<svg width="55" height="59" viewBox="0 0 55 59" fill="none" xmlns="http://www.w3.org/2000/svg">
<g clip-path="url(#clip0_4476_1620)">
<path d="M34.2258 39.9136H21.5657V45.3407H34.2258V39.9136Z" fill="#E6E7E8"/>
<path d="M34.7672 41.5419L33.1363 40.7906V35.6038H22.6647V40.7906L21.0244 41.4975L21.4607 56.2063H22.6647V58.4625H33.1363V56.2063H34.3309L34.7672 41.5419Z" fill="#F6CCB8"/>
<g style="mix-blend-mode:multiply">
<path d="M22.6648 35.6038V38.1797L33.1317 40.4522V35.6038H22.6648Z" fill="#F6CCB8"/>
</g>
<path d="M41.466 67.0001C41.6643 59.2701 41.2373 43.9547 34.9119 41.5771L34.5223 43.0378C33.8503 44.9673 32.1237 48.1219 28.0242 48.1219C23.3997 48.1219 21.6358 44.1064 21.0875 42.3658L20.8775 41.5771C14.5521 43.9524 14.3654 59.2701 14.6897 67.0001H41.4636H41.466Z" fill="#A3DDD6"/>
<path d="M30.4158 47.4011L29.4101 49.326H26.3513L25.376 47.4011L27.8959 45.3408L30.4158 47.4011Z" fill="#42404D"/>
<path d="M27.8957 45.3407L24.6759 48.7309L19.1694 42.1605L22.6063 40.4502L23.8989 41.6471L27.8957 45.3407Z" fill="#65C6BB"/>
<path d="M33.1899 40.4524L27.8958 45.3405L31.118 48.7331L36.6221 42.1603L33.1899 40.4524Z" fill="#65C6BB"/>
<path d="M29.9537 66.9998L29.4194 49.7852H26.3605L25.8379 66.9998H29.9537Z" fill="#42404D"/>
<path d="M3.32215 50.497L0.923584 67H27.3499C25.5393 59.977 20.7025 41.2061 20.7025 41.2061L9.33025 43.9219C6.17104 44.6756 3.79114 47.2818 3.32215 50.497Z" fill="#EBEBEB"/>
<path d="M46.4848 43.9104L35.3412 41.2085C35.3412 41.2085 30.5044 59.9771 28.6938 67.0025H54.8681L52.4672 50.4808C52.0006 47.2749 49.6347 44.6757 46.4871 43.9127L46.4848 43.9104Z" fill="#EBEBEB"/>
<path d="M19.7622 49.2395L17.8163 51.8971L26.3536 67.0001H27.2729L21.4982 39.9136L17.093 42.1815L17.2633 47.1839L19.7622 49.2395Z" fill="white"/>
<path d="M29.4381 67.0001L37.9754 51.8971L36.0295 49.2395L38.5284 47.1839L38.6987 42.1815L34.2936 39.9136L28.5188 67.0001H29.4381Z" fill="white"/>
<path d="M39.478 20.9628L39.8326 16.3547C39.8326 10.3302 34.0742 5.44678 28.0521 5.44678C22.03 5.44678 16.2716 10.3302 16.2716 16.3547L16.6262 20.9582C16.2903 21.0398 15.9846 21.1938 15.7303 21.4108C15.259 21.8121 14.9626 22.4048 14.9626 23.0721V25.34C14.9626 26.5393 15.9286 27.5122 17.1302 27.5192C17.1302 33.21 23.9666 38.6021 28.0521 38.6021C32.1376 38.6021 38.974 33.21 38.974 27.5192C40.171 27.5099 41.1393 26.5393 41.1393 25.34V23.0721C41.1393 22.0478 40.43 21.1938 39.478 20.9605V20.9628Z" fill="#F6CCB8"/>
<g style="mix-blend-mode:multiply" opacity="0.8">
<path d="M39.4778 20.9628L39.8325 16.3547C39.8325 10.3302 34.0741 5.44678 28.052 5.44678V20.9348C26.4607 24.3204 25.4341 29.2248 25.4341 29.2248H28.052V38.6044C28.052 38.6044 28.052 38.6044 28.0543 38.6044C32.1398 38.6044 38.9739 33.21 38.9739 27.5216C40.1708 27.5122 41.1391 26.5416 41.1391 25.3423V23.0744C41.1391 22.0501 40.4298 21.1961 39.4778 20.9628Z" fill="#F6CCB8"/>
</g>
<path d="M40.3694 20.9115C40.0917 22.0945 39.7417 22.7454 39.3241 23.6764C39.2378 23.8701 38.9461 23.8117 38.9438 23.5994C38.9344 22.3535 38.9181 20.3352 38.9181 20.3352L36.4752 12.9272C36.4752 12.9272 32.5997 13.7601 28.0452 13.9515C23.4954 13.7601 19.6199 12.9272 19.6199 12.9272L17.1373 20.3352C17.1373 20.3352 17.1373 22.3161 17.1373 23.5644C17.1373 23.7814 16.8387 23.8397 16.757 23.6391C16.3697 22.7081 15.8564 21.4645 15.7257 20.9115C15.1237 18.3543 14.8577 15.8064 14.9837 13.4335C15.0327 12.5819 15.1237 11.7536 15.2754 10.9556C15.4807 9.83797 15.791 8.77401 16.2087 7.78472C16.2087 7.78472 18.8756 0.752333 28.0405 0.759333C28.2319 0.754666 28.4162 0.75 28.5982 0.75C31.0714 0.75 32.8167 1.21665 34.4919 2.04495C34.4919 2.04495 37.2358 3.37489 39.5061 2.28527C39.5807 2.25027 39.6671 2.30627 39.6577 2.39027C39.6181 2.69592 39.4874 3.3189 39.0418 3.89987C39.6297 3.92554 40.2947 3.88354 41.067 3.71555C41.0764 3.71555 41.0834 3.71088 41.0927 3.71088V3.74121C41.1487 5.27648 40.6167 6.64376 39.8747 7.78238C40.2854 8.75534 40.591 9.7983 40.7987 10.8926C40.9504 11.6906 41.0484 12.5212 41.095 13.3658C41.2303 15.7621 40.969 18.3263 40.3577 20.9092L40.3694 20.9115Z" fill="#4F3C30"/>
<path d="M40.3343 19.1665H37.9731C37.2264 18.7746 36.1835 18.5249 34.7205 18.5249C32.2893 18.5249 30.6397 18.9916 29.7927 19.9015C29.3914 19.6822 28.7941 19.4302 28.1175 19.4302C27.4408 19.4302 26.8552 19.6752 26.4539 19.8945C25.6046 18.9892 23.9573 18.5249 21.5307 18.5249C20.0678 18.5249 19.0248 18.7746 18.2782 19.1665H15.9006V20.8675L16.6823 21.1405C16.6029 21.4601 16.5703 21.7821 16.5703 22.0948C16.5703 24.2087 17.0859 27.0179 21.5331 27.0179C25.5066 27.0179 26.5472 24.5727 27.0442 22.1834C27.1188 21.8218 27.1282 21.4765 27.0768 21.1521C27.2705 21.0285 27.5902 20.9188 28.1198 20.9188C28.6495 20.9188 28.9854 21.0331 29.1768 21.1615C29.1278 21.4835 29.1371 21.8241 29.2118 22.1834C29.7064 24.575 30.7494 27.0179 34.7229 27.0179C39.1724 27.0179 39.6857 24.2087 39.6857 22.0948C39.6857 21.7821 39.653 21.4555 39.5713 21.1358L40.3367 20.8675V19.1665H40.3343ZM26.1879 22.0061C25.6722 24.491 24.6829 26.1453 21.5307 26.1453C17.9352 26.1453 17.4406 24.197 17.4406 22.0948C17.4406 21.4275 17.4406 19.3975 21.5307 19.3975C24.3516 19.3975 25.4646 20.0368 25.9009 20.5712C26.2089 20.9491 26.3045 21.4321 26.1879 22.0038V22.0061ZM34.7205 26.1476C31.5683 26.1476 30.579 24.4933 30.0634 22.0084C29.9444 21.4368 30.0401 20.9538 30.3504 20.5758C30.7867 20.0392 31.8997 19.4022 34.7205 19.4022C38.8107 19.4022 38.8107 21.4321 38.8107 22.0994C38.8107 24.204 38.3161 26.1499 34.7205 26.1499V26.1476Z" fill="#42404D"/>
<path d="M37.9639 50.0841C37.9475 49.6851 37.5206 41.0124 33.1294 38.8005V39.8085C36.6993 42.1394 37.0866 50.0328 37.0912 50.1214L37.1099 50.5577L37.9825 50.5204L37.9639 50.0841Z" fill="#A7A9AC"/>
<path d="M22.6576 39.7056V38.6953C15.4759 42.3352 18.4928 61.1037 18.6281 61.925L18.7005 62.3544L19.5614 62.212L19.4891 61.7804C19.4564 61.5891 16.5609 43.5904 22.6576 39.7033V39.7056Z" fill="#A7A9AC"/>
<path d="M40.5234 63.7499C39.7137 63.6636 38.9624 63.4023 38.2788 63.0126C40.6494 61.0294 42.0073 57.5832 41.844 54.5406C41.683 51.5354 40.0287 49.6665 37.5275 49.6665C35.0262 49.6665 33.372 51.5331 33.211 54.5406C33.0477 57.5832 34.4056 61.0317 36.7762 63.0126C36.0925 63.4023 35.3436 63.6636 34.5316 63.7499C34.2913 63.7756 34.1186 63.9903 34.1443 64.2306C34.1676 64.4546 34.3566 64.6202 34.5783 64.6202C34.5946 64.6202 34.6086 64.6202 34.6249 64.6179C35.6889 64.5036 36.6618 64.1279 37.5275 63.5679C38.3931 64.1279 39.3661 64.5036 40.43 64.6179C40.4464 64.6179 40.4627 64.6202 40.4767 64.6202C40.696 64.6202 40.885 64.4546 40.9107 64.2306C40.9363 63.9903 40.7637 63.7756 40.5234 63.7499ZM34.0813 54.5873C34.1466 53.3694 34.6133 50.5391 37.5275 50.5391C40.4417 50.5391 40.9083 53.3694 40.9737 54.5873C41.1277 57.4735 39.8094 60.7564 37.5275 62.5133C35.2456 60.7564 33.9273 57.4735 34.0813 54.5873Z" fill="#A7A9AC"/>
<path d="M19.0599 59.3587C20.5065 59.3587 21.6778 60.53 21.6778 61.9766C21.6778 63.4232 20.5065 64.5945 19.0599 64.5945C17.6133 64.5945 16.442 63.4232 16.442 61.9766C16.442 60.53 17.6133 59.3587 19.0599 59.3587ZM19.0599 58.4861C17.1349 58.4861 15.5693 60.0517 15.5693 61.9766C15.5693 63.9015 17.1349 65.4671 19.0599 65.4671C20.9848 65.4671 22.5504 63.9015 22.5504 61.9766C22.5504 60.0517 20.9848 58.4861 19.0599 58.4861Z" fill="#A7A9AC"/>
</g>
<defs>
<clipPath id="clip0_4476_1620">
<rect width="53.9445" height="66.25" fill="white" transform="translate(0.923584 0.75)"/>
</clipPath>
</defs>
</svg>
