<svg width="58" height="59" viewBox="0 0 58 59" fill="none" xmlns="http://www.w3.org/2000/svg">
<g filter="url(#filter0_dd_2051_1769)">
<circle cx="29.0713" cy="26.064" r="24.5" fill="white"/>
</g>
<g clip-path="url(#clip0_2051_1769)">
<mask id="path-2-inside-1_2051_1769" fill="white">
<path d="M47.5465 42.4277C44.1896 46.2178 39.7483 48.8838 34.8249 50.0641C29.9015 51.2445 24.7341 50.8821 20.0236 49.026C15.3131 47.17 11.2874 43.9102 8.49245 39.6887C5.69745 35.4671 4.26841 30.4881 4.39911 25.4268C4.52981 20.3656 6.21393 15.467 9.22309 11.3953C12.2323 7.32364 16.4208 4.27595 21.2208 2.66553C26.0208 1.05511 31.2 0.959892 36.056 2.39278C40.9119 3.82566 45.2097 6.71732 48.3665 10.6756L47.2954 11.5299C44.3138 7.7913 40.2546 5.06016 35.6682 3.70682C31.0818 2.35347 26.1902 2.44341 21.6566 3.96443C17.1231 5.48545 13.167 8.36396 10.3249 12.2096C7.48279 16.0552 5.89215 20.6819 5.7687 25.4622C5.64526 30.2425 6.99497 34.9451 9.63482 38.9323C12.2747 42.9195 16.0769 45.9984 20.5259 47.7514C24.9749 49.5044 29.8554 49.8466 34.5055 48.7318C39.1556 47.617 43.3504 45.099 46.5209 41.5193L47.5465 42.4277Z"/>
</mask>
<path d="M47.5465 42.4277L48.6694 43.4223L49.664 42.2994L48.5411 41.3048L47.5465 42.4277ZM48.3665 10.6756L49.3018 11.8483L50.4745 10.9131L49.5392 9.74035L48.3665 10.6756ZM47.2954 11.5299L46.1226 12.4651L47.0579 13.6378L48.2306 12.7026L47.2954 11.5299ZM46.5209 41.5193L47.5155 40.3964L46.3926 39.4019L45.398 40.5248L46.5209 41.5193ZM47.5465 42.4277L46.4236 41.4332C43.2708 44.9929 39.0994 47.4969 34.4752 48.6055L34.8249 50.0641L35.1746 51.5228C40.3973 50.2707 45.1085 47.4427 48.6694 43.4223L47.5465 42.4277ZM34.8249 50.0641L34.4752 48.6055C29.851 49.7141 24.9977 49.3737 20.5735 47.6305L20.0236 49.026L19.4738 50.4216C24.4705 52.3904 29.9519 52.7749 35.1746 51.5228L34.8249 50.0641ZM20.0236 49.026L20.5735 47.6305C16.1493 45.8873 12.3683 42.8256 9.74316 38.8606L8.49245 39.6887L7.24173 40.5167C10.2066 44.9949 14.477 48.4528 19.4738 50.4216L20.0236 49.026ZM8.49245 39.6887L9.74316 38.8606C7.11804 34.8956 5.77585 30.2192 5.89861 25.4656L4.39911 25.4268L2.89961 25.3881C2.76096 30.757 4.27686 36.0386 7.24173 40.5167L8.49245 39.6887ZM4.39911 25.4268L5.89861 25.4656C6.02137 20.7119 7.60313 16.111 10.4294 12.2868L9.22309 11.3953L8.01678 10.5038C4.82473 14.8229 3.03825 20.0192 2.89961 25.3881L4.39911 25.4268ZM9.22309 11.3953L10.4294 12.2868C13.2557 8.46263 17.1897 5.60017 21.698 4.08763L21.2208 2.66553L20.7437 1.24344C15.652 2.95173 11.2088 6.18466 8.01678 10.5038L9.22309 11.3953ZM21.2208 2.66553L21.698 4.08763C26.2062 2.57509 31.0706 2.48565 35.6314 3.83145L36.056 2.39278L36.4805 0.954102C31.3294 -0.56587 25.8355 -0.464859 20.7437 1.24344L21.2208 2.66553ZM36.056 2.39278L35.6314 3.83145C40.1923 5.17725 44.2288 7.89316 47.1938 11.6109L48.3665 10.6756L49.5392 9.74035C46.1906 5.54148 41.6316 2.47407 36.4805 0.954102L36.056 2.39278ZM48.3665 10.6756L47.4312 9.50289L46.3601 10.3571L47.2954 11.5299L48.2306 12.7026L49.3018 11.8483L48.3665 10.6756ZM47.2954 11.5299L48.4681 10.5946C45.2947 6.61546 40.9743 3.70857 36.0927 2.26814L35.6682 3.70682L35.2437 5.14549C39.5349 6.41175 43.3329 8.96714 46.1226 12.4651L47.2954 11.5299ZM35.6682 3.70682L36.0927 2.26814C31.2112 0.827715 26.0048 0.923438 21.1795 2.54234L21.6566 3.96443L22.1337 5.38653C26.3756 3.96339 30.9524 3.87923 35.2437 5.14549L35.6682 3.70682ZM21.6566 3.96443L21.1795 2.54234C16.3542 4.16124 12.1436 7.22497 9.11859 11.3181L10.3249 12.2096L11.5312 13.1011C14.1904 9.50295 17.8919 6.80967 22.1337 5.38653L21.6566 3.96443ZM10.3249 12.2096L9.11859 11.3181C6.09359 15.4112 4.40059 20.3356 4.2692 25.4235L5.7687 25.4622L7.2682 25.5009C7.38371 21.0282 8.87199 16.6993 11.5312 13.1011L10.3249 12.2096ZM5.7687 25.4622L4.2692 25.4235C4.13781 30.5114 5.57438 35.5166 8.3841 39.7604L9.63482 38.9323L10.8855 38.1043C8.41557 34.3736 7.1527 29.9736 7.2682 25.5009L5.7687 25.4622ZM9.63482 38.9323L8.3841 39.7604C11.1938 44.0042 15.2407 47.2812 19.976 49.1469L20.5259 47.7514L21.0758 46.3558C16.9131 44.7156 13.3555 41.8349 10.8855 38.1043L9.63482 38.9323ZM20.5259 47.7514L19.976 49.1469C24.7113 51.0127 29.9058 51.377 34.8552 50.1905L34.5055 48.7318L34.1558 47.2732C29.8049 48.3162 25.2385 47.996 21.0758 46.3558L20.5259 47.7514ZM34.5055 48.7318L34.8552 50.1905C39.8046 49.0039 44.2692 46.3239 47.6438 42.5139L46.5209 41.5193L45.398 40.5248C42.4315 43.8741 38.5067 46.2301 34.1558 47.2732L34.5055 48.7318ZM46.5209 41.5193L45.5264 42.6422L46.552 43.5506L47.5465 42.4277L48.5411 41.3048L47.5155 40.3964L46.5209 41.5193Z" fill="#E4E5E7" mask="url(#path-2-inside-1_2051_1769)"/>
<mask id="path-4-inside-2_2051_1769" fill="white">
<path d="M51.7179 16.2553C53.152 19.5659 53.8429 23.1506 53.7419 26.757C53.6408 30.3634 52.7503 33.9038 51.1331 37.1289L49.9995 36.5605C51.5337 33.5011 52.3784 30.1426 52.4743 26.7215C52.5701 23.3004 51.9147 19.8999 50.5543 16.7594L51.7179 16.2553Z"/>
</mask>
<path d="M51.7179 16.2553L53.0943 15.6591L52.498 14.2827L51.1216 14.8789L51.7179 16.2553ZM51.1331 37.1289L50.4607 38.4698L51.8016 39.1422L52.474 37.8013L51.1331 37.1289ZM49.9995 36.5605L48.6587 35.8881L47.9863 37.2289L49.3271 37.9013L49.9995 36.5605ZM50.5543 16.7594L49.958 15.383L48.5816 15.9793L49.1779 17.3557L50.5543 16.7594ZM51.7179 16.2553L50.3415 16.8516C51.6885 19.9609 52.3374 23.3278 52.2425 26.715L53.7419 26.757L55.2413 26.799C55.3485 22.9734 54.6156 19.1708 53.0943 15.6591L51.7179 16.2553ZM53.7419 26.757L52.2425 26.715C52.1476 30.1022 51.3112 33.4275 49.7923 36.4565L51.1331 37.1289L52.474 37.8013C54.1895 34.3802 55.1341 30.6246 55.2413 26.799L53.7419 26.757ZM51.1331 37.1289L51.8055 35.7881L50.6719 35.2196L49.9995 36.5605L49.3271 37.9013L50.4607 38.4698L51.1331 37.1289ZM49.9995 36.5605L51.3404 37.2328C52.9728 33.9775 53.8717 30.4038 53.9737 26.7635L52.4743 26.7215L50.9748 26.6795C50.8851 29.8814 50.0945 33.0247 48.6587 35.8881L49.9995 36.5605ZM52.4743 26.7215L53.9737 26.7635C54.0756 23.1232 53.3783 19.5048 51.9307 16.1631L50.5543 16.7594L49.1779 17.3557C50.4512 20.2949 51.0645 23.4776 50.9748 26.6795L52.4743 26.7215ZM50.5543 16.7594L51.1505 18.1358L52.3142 17.6317L51.7179 16.2553L51.1216 14.8789L49.958 15.383L50.5543 16.7594Z" fill="#FF003C" mask="url(#path-4-inside-2_2051_1769)"/>
<g clip-path="url(#clip1_2051_1769)">
<path d="M25.3514 16.764V19.554" stroke="#626262" stroke-width="1.4" stroke-miterlimit="10" stroke-linecap="round" stroke-linejoin="round"/>
<path d="M32.7914 16.764V19.554" stroke="#626262" stroke-width="1.4" stroke-miterlimit="10" stroke-linecap="round" stroke-linejoin="round"/>
<path d="M21.1664 23.3576H36.9764" stroke="#626262" stroke-width="1.4" stroke-miterlimit="10" stroke-linecap="round" stroke-linejoin="round"/>
<path d="M33.2006 32.574L34.1213 33.4947L36.1022 31.6626" stroke="#FF003C" stroke-width="1.4" stroke-linecap="round" stroke-linejoin="round"/>
<path d="M20.7014 27.0869V22.8089C20.7014 20.0189 22.0964 18.1589 25.3514 18.1589H32.7914C36.0464 18.1589 37.4414 20.0189 37.4414 22.8089V30.1187C36.7625 29.3468 35.7674 28.8539 34.6514 28.8539C32.5961 28.8539 30.9314 30.5186 30.9314 32.5739C30.9314 33.2714 31.1267 33.9317 31.4708 34.4897C31.6661 34.8245 31.9172 35.1221 32.2055 35.3639H25.3514C22.0964 35.3639 20.7014 33.5039 20.7014 30.7139" stroke="#626262" stroke-width="1.4" stroke-miterlimit="10" stroke-linecap="round" stroke-linejoin="round"/>
<path d="M29.0673 27.645H29.0756" stroke="#626262" stroke-width="1.86" stroke-linecap="round" stroke-linejoin="round"/>
<path d="M25.6252 27.645H25.6335" stroke="#626262" stroke-width="1.86" stroke-linecap="round" stroke-linejoin="round"/>
<path d="M25.6252 30.435H25.6335" stroke="#626262" stroke-width="1.86" stroke-linecap="round" stroke-linejoin="round"/>
</g>
</g>
<defs>
<filter id="filter0_dd_2051_1769" x="0.586126" y="0.235577" width="56.9703" height="58.2987" filterUnits="userSpaceOnUse" color-interpolation-filters="sRGB">
<feFlood flood-opacity="0" result="BackgroundImageFix"/>
<feColorMatrix in="SourceAlpha" type="matrix" values="0 0 0 0 0 0 0 0 0 0 0 0 0 0 0 0 0 0 127 0" result="hardAlpha"/>
<feOffset dy="1.32839"/>
<feGaussianBlur stdDeviation="1.32839"/>
<feColorMatrix type="matrix" values="0 0 0 0 0.824475 0 0 0 0 0.852415 0 0 0 0 0.908297 0 0 0 0.6 0"/>
<feBlend mode="normal" in2="BackgroundImageFix" result="effect1_dropShadow_2051_1769"/>
<feColorMatrix in="SourceAlpha" type="matrix" values="0 0 0 0 0 0 0 0 0 0 0 0 0 0 0 0 0 0 127 0" result="hardAlpha"/>
<feOffset dy="3.98516"/>
<feGaussianBlur stdDeviation="1.99258"/>
<feColorMatrix type="matrix" values="0 0 0 0 0.539148 0 0 0 0 0.578009 0 0 0 0 0.675161 0 0 0 0.22 0"/>
<feBlend mode="normal" in2="effect1_dropShadow_2051_1769" result="effect2_dropShadow_2051_1769"/>
<feBlend mode="normal" in="SourceGraphic" in2="effect2_dropShadow_2051_1769" result="shape"/>
</filter>
<clipPath id="clip0_2051_1769">
<rect width="50" height="50" fill="white" transform="translate(4.07129 1.06396)"/>
</clipPath>
<clipPath id="clip1_2051_1769">
<rect width="20" height="20" fill="white" transform="translate(19.0713 16.064)"/>
</clipPath>
</defs>
</svg>
