<svg width="71" height="70" viewBox="0 0 71 70" fill="none" xmlns="http://www.w3.org/2000/svg">
<mask id="path-1-inside-1_2107_2347" fill="white">
<path d="M20.7673 66.5273C16.1585 64.3737 12.0779 61.2358 8.81291 57.3346C5.54793 53.4334 3.17796 48.8638 1.86992 43.9477L3.59791 43.4879C4.83874 48.1514 7.08693 52.4862 10.1841 56.187C13.2814 59.8877 17.1523 62.8644 21.5243 64.9074L20.7673 66.5273Z"/>
</mask>
<path d="M20.7673 66.5273L19.9206 68.3393L21.7325 69.186L22.5792 67.374L20.7673 66.5273ZM1.86992 43.9477L1.35567 42.0149L-0.577089 42.5292L-0.0628376 44.4619L1.86992 43.9477ZM3.59791 43.4879L5.53066 42.9737L5.01641 41.0409L3.08366 41.5552L3.59791 43.4879ZM21.5243 64.9074L23.3362 65.7541L24.1829 63.9421L22.371 63.0954L21.5243 64.9074ZM20.7673 66.5273L21.614 64.7154C17.2701 62.6855 13.424 59.7279 10.3466 56.051L8.81291 57.3346L7.27918 58.6182C10.7318 62.7436 15.0469 66.0618 19.9206 68.3393L20.7673 66.5273ZM8.81291 57.3346L10.3466 56.051C7.2693 52.374 5.03554 48.067 3.80268 43.4334L1.86992 43.9477L-0.0628376 44.4619C1.32038 49.6606 3.82655 54.4928 7.27918 58.6182L8.81291 57.3346ZM1.86992 43.9477L2.38417 45.8804L4.11216 45.4207L3.59791 43.4879L3.08366 41.5552L1.35567 42.0149L1.86992 43.9477ZM3.59791 43.4879L1.66515 44.0022C2.98116 48.9482 5.36555 53.5456 8.65042 57.4706L10.1841 56.187L11.7179 54.9033C8.80831 51.4268 6.69632 47.3547 5.53066 42.9737L3.59791 43.4879ZM10.1841 56.187L8.65042 57.4706C11.9353 61.3955 16.0407 64.5525 20.6776 66.7193L21.5243 64.9074L22.371 63.0954C18.2639 61.1762 14.6275 58.3799 11.7179 54.9033L10.1841 56.187ZM21.5243 64.9074L19.7124 64.0607L18.9554 65.6806L20.7673 66.5273L22.5792 67.374L23.3362 65.7541L21.5243 64.9074Z" fill="#FF003C" mask="url(#path-1-inside-1_2107_2347)"/>
<mask id="path-3-inside-2_2107_2347" fill="white">
<path d="M0.699901 34.9999C0.699901 27.861 2.89547 20.8947 6.98887 15.0459C11.0823 9.19711 16.8754 4.74873 23.5827 2.30401C30.29 -0.140705 37.5869 -0.46345 44.4839 1.37954C51.3808 3.22252 57.5441 7.14207 62.1379 12.6066C66.7317 18.0712 69.5337 24.8164 70.164 31.9274C70.7943 39.0385 69.2223 46.1714 65.6613 52.3587C62.1003 58.5461 56.7225 63.4886 50.2572 66.5159C43.792 69.5433 36.5521 70.509 29.5193 69.2821L29.8513 67.3791C36.4937 68.5378 43.3316 67.6257 49.438 64.7664C55.5444 61.9071 60.6236 57.239 63.987 51.3951C67.3503 45.5512 68.835 38.8143 68.2397 32.098C67.6444 25.3817 64.9979 19.011 60.6591 13.8497C56.3204 8.68852 50.4992 4.98656 43.9851 3.24589C37.4711 1.50521 30.5792 1.81003 24.2443 4.11904C17.9093 6.42804 12.4378 10.6295 8.57159 16.1536C4.70543 21.6777 2.63173 28.2573 2.63173 34.9999L0.699901 34.9999Z"/>
</mask>
<path d="M0.699901 34.9999L-1.3001 34.9999L-1.3001 36.9999L0.699901 36.9999L0.699901 34.9999ZM29.5193 69.2821L27.5491 68.9384L27.2054 70.9087L29.1756 71.2524L29.5193 69.2821ZM29.8513 67.3791L30.195 65.4088L28.2248 65.0651L27.8811 67.0354L29.8513 67.3791ZM2.63173 34.9999L2.63173 36.9999L4.63173 36.9999L4.63173 34.9999L2.63173 34.9999ZM0.699901 34.9999L2.6999 34.9999C2.6999 28.2712 4.76929 21.7054 8.62744 16.1927L6.98887 15.0459L5.35031 13.8991C1.02166 20.0841 -1.3001 27.4507 -1.3001 34.9999L0.699901 34.9999ZM6.98887 15.0459L8.62744 16.1927C12.4856 10.68 17.9458 6.4873 24.2676 4.18309L23.5827 2.30401L22.8978 0.424938C15.8051 3.01015 9.67896 7.71419 5.35031 13.8991L6.98887 15.0459ZM23.5827 2.30401L24.2676 4.18309C30.5894 1.87887 37.467 1.57467 43.9675 3.31174L44.4839 1.37954L45.0002 -0.552668C37.7069 -2.50157 29.9906 -2.16027 22.8978 0.424938L23.5827 2.30401ZM44.4839 1.37954L43.9675 3.31174C50.4681 5.04881 56.2772 8.74309 60.607 13.8936L62.1379 12.6066L63.6688 11.3197C58.811 5.54105 52.2935 1.39624 45.0002 -0.552668L44.4839 1.37954ZM62.1379 12.6066L60.607 13.8936C64.9368 19.0441 67.5778 25.4016 68.1718 32.104L70.164 31.9274L72.1562 31.7509C71.4897 24.2311 68.5266 17.0983 63.6688 11.3197L62.1379 12.6066ZM70.164 31.9274L68.1718 32.104C68.7659 38.8064 67.2843 45.5293 63.9279 51.3611L65.6613 52.3587L67.3947 53.3564C71.1604 46.8134 72.8227 39.2706 72.1562 31.7509L70.164 31.9274ZM65.6613 52.3587L63.9279 51.3611C60.5715 57.1929 55.5028 61.8513 49.4091 64.7047L50.2572 66.5159L51.1053 68.3272C57.9422 65.1259 63.629 59.8993 67.3947 53.3564L65.6613 52.3587ZM50.2572 66.5159L49.4091 64.7047C43.3154 67.558 36.4916 68.4683 29.863 67.3119L29.5193 69.2821L29.1756 71.2524C36.6125 72.5498 44.2685 71.5285 51.1053 68.3272L50.2572 66.5159ZM29.5193 69.2821L31.4896 69.6259L31.8216 67.7228L29.8513 67.3791L27.8811 67.0354L27.5491 68.9384L29.5193 69.2821ZM29.8513 67.3791L29.5076 69.3493C36.5541 70.5786 43.8082 69.611 50.2861 66.5777L49.438 64.7664L48.5899 62.9552C42.8551 65.6405 36.4332 66.4971 30.195 65.4088L29.8513 67.3791ZM49.438 64.7664L50.2861 66.5777C56.7641 63.5444 62.1524 58.5922 65.7204 52.3927L63.987 51.3951L62.2536 50.3975C59.0949 55.8858 54.3247 60.2698 48.5899 62.9552L49.438 64.7664ZM63.987 51.3951L65.7204 52.3927C69.2884 46.1933 70.8634 39.0464 70.2319 31.9214L68.2397 32.098L66.2475 32.2746C66.8066 38.5822 65.4123 44.9092 62.2536 50.3975L63.987 51.3951ZM68.2397 32.098L70.2319 31.9214C69.6004 24.7964 66.7929 18.038 62.1901 12.5628L60.6591 13.8497L59.1282 15.1367C63.203 19.9839 65.6885 25.967 66.2475 32.2746L68.2397 32.098ZM60.6591 13.8497L62.1901 12.5628C57.5873 7.0875 51.4119 3.16028 44.5015 1.31368L43.9851 3.24589L43.4688 5.17809C49.5865 6.81285 55.0535 10.2895 59.1282 15.1367L60.6591 13.8497ZM43.9851 3.24589L44.5015 1.31368C37.591 -0.532916 30.2798 -0.209537 23.5594 2.23996L24.2443 4.11904L24.9292 5.99811C30.8787 3.82961 37.3511 3.54333 43.4688 5.17809L43.9851 3.24589ZM24.2443 4.11904L23.5594 2.23996C16.8389 4.68946 11.0344 9.14657 6.93302 15.0068L8.57159 16.1536L10.2102 17.3004C13.8411 12.1124 18.9797 8.16661 24.9292 5.99811L24.2443 4.11904ZM8.57159 16.1536L6.93302 15.0068C2.83161 20.8671 0.631733 27.847 0.631732 34.9999L2.63173 34.9999L4.63173 34.9999C4.63173 28.6675 6.57924 22.4884 10.2102 17.3004L8.57159 16.1536ZM2.63173 34.9999L2.63173 32.9999L0.699901 32.9999L0.699901 34.9999L0.699901 36.9999L2.63173 36.9999L2.63173 34.9999Z" fill="#E4E5E7" mask="url(#path-3-inside-2_2107_2347)"/>
</svg>
