<svg width="70" height="70" viewBox="0 0 70 70" fill="none" xmlns="http://www.w3.org/2000/svg">
<mask id="path-1-inside-1_2107_2357" fill="white">
<path d="M69.2662 41.0707C68.3788 46.0799 66.4039 50.8336 63.4807 54.997C60.5575 59.1604 56.757 62.6323 52.347 65.1682L51.4556 63.6181C55.6391 61.2125 59.2443 57.919 62.0173 53.9695C64.7903 50.02 66.6637 45.5105 67.5055 40.7588L69.2662 41.0707Z"/>
</mask>
<path d="M69.2662 41.0707L71.2356 41.4196L71.5845 39.4502L69.6151 39.1013L69.2662 41.0707ZM52.347 65.1682L50.6132 66.1652L51.6101 67.899L53.3439 66.902L52.347 65.1682ZM51.4556 63.6181L50.4587 61.8843L48.7249 62.8812L49.7218 64.615L51.4556 63.6181ZM67.5055 40.7588L67.8544 38.7894L65.8851 38.4405L65.5362 40.4099L67.5055 40.7588ZM69.2662 41.0707L67.2969 40.7218C66.4605 45.4431 64.5991 49.9236 61.8439 53.8477L63.4807 54.997L65.1176 56.1462C68.2088 51.7435 70.2971 46.7166 71.2356 41.4196L69.2662 41.0707ZM63.4807 54.997L61.8439 53.8477C59.0887 57.7719 55.5066 61.0443 51.35 63.4344L52.347 65.1682L53.3439 66.902C58.0075 64.2204 62.0263 60.549 65.1176 56.1462L63.4807 54.997ZM52.347 65.1682L54.0808 64.1712L53.1894 62.6211L51.4556 63.6181L49.7218 64.615L50.6132 66.1652L52.347 65.1682ZM51.4556 63.6181L52.4526 65.3519C56.8895 62.8006 60.7131 59.3075 63.6541 55.1188L62.0173 53.9695L60.3805 52.8203C57.7755 56.5305 54.3887 59.6245 50.4587 61.8843L51.4556 63.6181ZM62.0173 53.9695L63.6541 55.1188C66.5952 50.93 68.5821 46.1473 69.4749 41.1076L67.5055 40.7588L65.5362 40.4099C64.7454 44.8738 62.9855 49.11 60.3805 52.8203L62.0173 53.9695ZM67.5055 40.7588L67.1567 42.7281L68.9174 43.04L69.2662 41.0707L69.6151 39.1013L67.8544 38.7894L67.5055 40.7588Z" fill="#FF003C" mask="url(#path-1-inside-1_2107_2357)"/>
<mask id="path-3-inside-2_2107_2357" fill="white">
<path d="M44.0069 68.6142C37.1112 70.4619 29.8141 70.1441 23.1051 67.7039C16.3961 65.2638 10.6 60.8194 6.50256 54.9734C2.40517 49.1274 0.204845 42.1626 0.199973 35.0237C0.1951 27.8848 2.38592 20.917 6.47532 15.0654C10.5647 9.21383 16.3548 4.76149 23.0605 2.3122C29.7661 -0.137094 37.0628 -0.464822 43.961 1.37346C50.8592 3.21174 57.0251 7.12707 61.6227 12.5885C66.2202 18.0499 69.0268 24.7932 69.662 31.9038L67.7378 32.0757C67.1379 25.3598 64.4871 18.9909 60.1448 13.8326C55.8025 8.67436 49.9788 4.97637 43.4635 3.24014C36.9483 1.50391 30.0566 1.81344 23.7233 4.12677C17.3899 6.4401 11.9212 10.6453 8.05879 16.172C4.1964 21.6988 2.1272 28.2797 2.1318 35.0224C2.13641 41.765 4.21458 48.3431 8.08452 53.8646C11.9545 59.3861 17.4289 63.5838 23.7654 65.8885C30.102 68.1931 36.994 68.4933 43.5069 66.7482L44.0069 68.6142Z"/>
</mask>
<path d="M44.0069 68.6142L44.5245 70.546L46.4564 70.0284L45.9387 68.0965L44.0069 68.6142ZM69.662 31.9038L69.8399 33.8959L71.832 33.718L71.654 31.7259L69.662 31.9038ZM67.7378 32.0757L65.7457 32.2536L65.9237 34.2457L67.9157 34.0678L67.7378 32.0757ZM43.5069 66.7482L45.4387 66.2305L44.9211 64.2987L42.9892 64.8163L43.5069 66.7482ZM44.0069 68.6142L43.4892 66.6823C36.9899 68.4238 30.1121 68.1243 23.7887 65.8244L23.1051 67.7039L22.4215 69.5835C29.516 72.1639 37.2325 72.4999 44.5245 70.546L44.0069 68.6142ZM23.1051 67.7039L23.7887 65.8244C17.4653 63.5245 12.0023 59.3355 8.14034 53.8255L6.50256 54.9734L4.86478 56.1213C9.19765 62.3033 15.327 67.0031 22.4215 69.5835L23.1051 67.7039ZM6.50256 54.9734L8.14034 53.8255C4.27843 48.3154 2.20457 41.751 2.19997 35.0223L0.199973 35.0237L-1.80003 35.0251C-1.79487 42.5743 0.53191 49.9393 4.86478 56.1213L6.50256 54.9734ZM0.199973 35.0237L2.19997 35.0223C2.19538 28.2937 4.26029 21.7264 8.11467 16.2111L6.47532 15.0654L4.83597 13.9198C0.511545 20.1077 -1.80518 27.4758 -1.80003 35.0251L0.199973 35.0237ZM6.47532 15.0654L8.11467 16.2111C11.969 10.6958 17.4264 6.49933 23.7466 4.1908L23.0605 2.3122L22.3743 0.433592C15.2833 3.02365 9.1604 7.73187 4.83597 13.9198L6.47532 15.0654ZM23.0605 2.3122L23.7466 4.1908C30.0669 1.88228 36.9442 1.57338 43.446 3.30601L43.961 1.37346L44.476 -0.5591C37.1813 -2.50303 29.4653 -2.15646 22.3743 0.433592L23.0605 2.3122ZM43.961 1.37346L43.446 3.30601C49.9477 5.03864 55.7593 8.72896 60.0926 13.8765L61.6227 12.5885L63.1527 11.3005C58.2909 5.52518 51.7706 1.38483 44.476 -0.5591L43.961 1.37346ZM61.6227 12.5885L60.0926 13.8765C64.4259 19.0241 67.0713 25.3798 67.6699 32.0818L69.662 31.9038L71.654 31.7259C70.9824 24.2066 68.0144 17.0758 63.1527 11.3005L61.6227 12.5885ZM69.662 31.9038L69.484 29.9118L67.5599 30.0836L67.7378 32.0757L67.9157 34.0678L69.8399 33.8959L69.662 31.9038ZM67.7378 32.0757L69.7299 31.8978C69.0935 24.7732 66.2813 18.0167 61.6748 12.5446L60.1448 13.8326L58.6147 15.1206C62.6928 19.965 65.1823 25.9464 65.7457 32.2536L67.7378 32.0757ZM60.1448 13.8326L61.6748 12.5446C57.0683 7.07247 50.8902 3.14946 43.9785 1.30758L43.4635 3.24014L42.9485 5.1727C49.0673 6.80328 54.5366 10.2762 58.6147 15.1206L60.1448 13.8326ZM43.4635 3.24014L43.9785 1.30758C37.0668 -0.534297 29.7558 -0.205927 23.0371 2.24816L23.7233 4.12677L24.4094 6.00537C30.3574 3.83281 36.8297 3.54211 42.9485 5.1727L43.4635 3.24014ZM23.7233 4.12677L23.0371 2.24816C16.3183 4.70225 10.5169 9.16331 6.41944 15.0264L8.05879 16.172L9.69814 17.3177C13.3255 12.1272 18.4614 8.17794 24.4094 6.00537L23.7233 4.12677ZM8.05879 16.172L6.41944 15.0264C2.32203 20.8894 0.126921 27.8708 0.131805 35.0237L2.1318 35.0224L4.13181 35.021C4.12748 28.6887 6.07077 22.5082 9.69814 17.3177L8.05879 16.172ZM2.1318 35.0224L0.131805 35.0237C0.136688 42.1767 2.34132 49.155 6.44674 55.0125L8.08452 53.8646L9.7223 52.7167C6.08785 47.5312 4.13613 41.3534 4.13181 35.021L2.1318 35.0224ZM8.08452 53.8646L6.44674 55.0125C10.5522 60.87 16.3597 65.3231 23.0818 67.768L23.7654 65.8885L24.449 64.0089C18.4981 61.8445 13.3568 57.9022 9.7223 52.7167L8.08452 53.8646ZM23.7654 65.8885L23.0818 67.768C29.8039 70.2129 37.1153 70.5313 44.0245 68.68L43.5069 66.7482L42.9892 64.8163C36.8726 66.4552 30.4 66.1734 24.449 64.0089L23.7654 65.8885ZM43.5069 66.7482L41.575 67.2658L42.075 69.1318L44.0069 68.6142L45.9387 68.0965L45.4387 66.2305L43.5069 66.7482Z" fill="#E4E5E7" mask="url(#path-3-inside-2_2107_2357)"/>
</svg>
