<svg width="13" height="13" viewBox="0 0 13 13" fill="none" xmlns="http://www.w3.org/2000/svg">
<path d="M7.58789 1.61816C7.93111 1.25891 8.5009 1.2458 8.86035 1.58886C9.2199 1.93207 9.23285 2.50178 8.88965 2.86133L5.47363 6.43945L8.88965 10.0186C9.23283 10.3781 9.21982 10.9478 8.86035 11.291C8.5009 11.6341 7.93112 11.621 7.58789 11.2617L3.5791 7.06152C3.57414 7.05633 3.57024 7.0502 3.56543 7.04492C3.55448 7.03292 3.54339 7.02123 3.5332 7.00879C3.50437 6.97351 3.47872 6.93665 3.45605 6.89843C3.45172 6.89113 3.44649 6.88435 3.44238 6.87695L3.42383 6.83984C3.42111 6.83435 3.41862 6.82877 3.41602 6.82324C3.40904 6.80842 3.40261 6.79343 3.39648 6.77832C3.39097 6.76472 3.38568 6.7511 3.38086 6.7373C3.3762 6.72397 3.3712 6.71076 3.36719 6.69726C3.36259 6.6818 3.35921 6.66603 3.35547 6.65039C3.35236 6.63739 3.34921 6.62443 3.34668 6.61133C3.34417 6.59833 3.34177 6.58533 3.33984 6.57226C3.33754 6.55668 3.33547 6.54106 3.33398 6.52539C3.3326 6.51076 3.33172 6.4961 3.33105 6.48144C3.33074 6.47461 3.33024 6.46778 3.33008 6.46093V6.41894C3.33025 6.41178 3.33072 6.40462 3.33105 6.39746C3.33173 6.38312 3.33263 6.36879 3.33398 6.35449C3.3355 6.3385 3.33747 6.32254 3.33984 6.30664C3.34174 6.29389 3.34423 6.28123 3.34668 6.26855C3.34947 6.25414 3.35295 6.23987 3.35645 6.22558C3.35955 6.21286 3.36254 6.2001 3.36621 6.1875C3.37139 6.16973 3.3775 6.15224 3.38379 6.13476C3.38543 6.13021 3.38696 6.12562 3.38867 6.12109L3.4043 6.08203C3.4084 6.07255 3.41255 6.06307 3.41699 6.05371C3.42086 6.04557 3.42458 6.03734 3.42871 6.02929C3.43707 6.013 3.44664 5.9973 3.45605 5.98144C3.48011 5.9409 3.50708 5.90146 3.53809 5.86425C3.54413 5.85701 3.55033 5.84986 3.55664 5.84277C3.56395 5.83453 3.57143 5.82639 3.5791 5.81836L7.58789 1.61816Z" fill="#4F4F4F"/>
</svg>
