<svg width="14" height="14" viewBox="0 0 14 14" fill="none" xmlns="http://www.w3.org/2000/svg">
<g clip-path="url(#clip0_2676_3683)">
<path d="M7.00009 9.84447V6.28891H6.64453M6.64453 9.84447H7.35564M7.00009 4.51113V4.15558" stroke="#FF003C" stroke-linecap="round" stroke-linejoin="round"/>
<path d="M0.538086 7.00001C0.538086 8.71378 1.21888 10.3574 2.4307 11.5692C3.64253 12.781 5.28611 13.4618 6.99988 13.4618C8.71366 13.4618 10.3572 12.781 11.5691 11.5692C12.7809 10.3574 13.4617 8.71378 13.4617 7.00001C13.4617 5.28623 12.7809 3.64265 11.5691 2.43082C10.3572 1.219 8.71366 0.538208 6.99988 0.538208C5.28611 0.538208 3.64253 1.219 2.4307 2.43082C1.21888 3.64265 0.538086 5.28623 0.538086 7.00001Z" stroke="#626262" stroke-linecap="round" stroke-linejoin="round"/>
</g>
<defs>
<clipPath id="clip0_2676_3683">
<rect width="14" height="14" fill="white"/>
</clipPath>
</defs>
</svg>
