<svg xmlns="http://www.w3.org/2000/svg" width="14" height="15" viewBox="0 0 14 15" fill="none">
  <path d="M7.00004 4.27753V10.7225M7.00004 10.7225L9.50643 8.21614M7.00004 10.7225L4.49365 8.21614" stroke="#FF003C" stroke-linecap="round" stroke-linejoin="round"/>
  <path d="M0.554932 5.6381C0.554932 4.03402 0.554932 3.23197 0.867156 2.61898C1.14178 2.08002 1.57996 1.64184 2.11892 1.36722C2.73191 1.05499 3.53395 1.05499 5.13804 1.05499H8.86182C10.4659 1.05499 11.268 1.05499 11.8809 1.36722C12.4199 1.64184 12.8581 2.08002 13.1327 2.61898C13.4449 3.23197 13.4449 4.03402 13.4449 5.6381V9.36188C13.4449 10.966 13.4449 11.768 13.1327 12.381C12.8581 12.92 12.4199 13.3581 11.8809 13.6328C11.268 13.945 10.4659 13.945 8.86182 13.945H5.13804C3.53395 13.945 2.73191 13.945 2.11892 13.6328C1.57996 13.3581 1.14178 12.92 0.867156 12.381C0.554932 11.768 0.554932 10.966 0.554932 9.36188V5.6381Z" stroke="#626262" stroke-linecap="round" stroke-linejoin="round"/>
</svg>
