<svg width="58" height="59" viewBox="0 0 58 59" fill="none" xmlns="http://www.w3.org/2000/svg">
<g filter="url(#filter0_dd_2051_1759)">
<circle cx="29.0713" cy="26.064" r="24.5" fill="white"/>
</g>
<g clip-path="url(#clip0_2051_1759)">
<mask id="path-2-inside-1_2051_1759" fill="white">
<path d="M10.5957 9.70021C13.9526 5.91013 18.3939 3.24415 23.3173 2.0638C28.2408 0.883459 33.4081 1.24587 38.1186 3.10189C42.8291 4.95791 46.8548 8.21772 49.6498 12.4393C52.4448 16.6608 53.8738 21.6398 53.7431 26.7011C53.6124 31.7623 51.9283 36.661 48.9191 40.7326C45.91 44.8043 41.7214 47.852 36.9214 49.4624C32.1214 51.0728 26.9422 51.168 22.0863 49.7352C17.2303 48.3023 12.9325 45.4106 9.77571 41.4523L10.8468 40.5981C13.8284 44.3366 17.8876 47.0678 22.474 48.4211C27.0604 49.7745 31.952 49.6845 36.4856 48.1635C41.0191 46.6425 44.9752 43.764 47.8173 39.9183C50.6594 36.0727 52.2501 31.446 52.3735 26.6657C52.497 21.8854 51.1472 17.1828 48.5074 13.1956C45.8676 9.2084 42.0653 6.12955 37.6163 4.37656C33.1673 2.62358 28.2869 2.28129 23.6367 3.39611C18.9866 4.51092 14.7918 7.02891 11.6213 10.6086L10.5957 9.70021Z"/>
</mask>
<path d="M10.5957 9.70021L9.47279 8.70567L8.47824 9.82856L9.60113 10.8231L10.5957 9.70021ZM9.77571 41.4523L8.84045 40.2796L7.66773 41.2149L8.60299 42.3876L9.77571 41.4523ZM10.8468 40.5981L12.0196 39.6628L11.0843 38.4901L9.91158 39.4253L10.8468 40.5981ZM11.6213 10.6086L10.6267 11.7315L11.7496 12.726L12.7442 11.6031L11.6213 10.6086ZM10.5957 9.70021L11.7186 10.6948C14.8714 7.13502 19.0428 4.63107 23.667 3.52247L23.3173 2.0638L22.9676 0.605135C17.7449 1.85722 13.0337 4.68523 9.47279 8.70567L10.5957 9.70021ZM23.3173 2.0638L23.667 3.52247C28.2912 2.41386 33.1445 2.75425 37.5687 4.49746L38.1186 3.10189L38.6685 1.70631C33.6717 -0.262509 28.1903 -0.646946 22.9676 0.605135L23.3173 2.0638ZM38.1186 3.10189L37.5687 4.49746C41.9929 6.24067 45.7739 9.30237 48.3991 13.2673L49.6498 12.4393L50.9005 11.6112C47.9356 7.13307 43.6652 3.67513 38.6685 1.70631L38.1186 3.10189ZM49.6498 12.4393L48.3991 13.2673C51.0242 17.2323 52.3664 21.9087 52.2436 26.6624L53.7431 26.7011L55.2426 26.7398C55.3812 21.3709 53.8654 16.0893 50.9005 11.6112L49.6498 12.4393ZM53.7431 26.7011L52.2436 26.6624C52.1208 31.416 50.5391 36.0169 47.7128 39.8411L48.9191 40.7326L50.1254 41.6241C53.3175 37.305 55.104 32.1087 55.2426 26.7398L53.7431 26.7011ZM48.9191 40.7326L47.7128 39.8411C44.8865 43.6653 40.9525 46.5278 36.4443 48.0403L36.9214 49.4624L37.3985 50.8845C42.4902 49.1762 46.9334 45.9433 50.1254 41.6241L48.9191 40.7326ZM36.9214 49.4624L36.4443 48.0403C31.936 49.5528 27.0716 49.6423 22.5108 48.2965L22.0863 49.7352L21.6617 51.1738C26.8128 52.6938 32.3068 52.5928 37.3985 50.8845L36.9214 49.4624ZM22.0863 49.7352L22.5108 48.2965C17.95 46.9507 13.9134 44.2348 10.9484 40.517L9.77571 41.4523L8.60299 42.3876C11.9516 46.5864 16.5106 49.6539 21.6617 51.1738L22.0863 49.7352ZM9.77571 41.4523L10.711 42.625L11.7821 41.7708L10.8468 40.5981L9.91158 39.4253L8.84045 40.2796L9.77571 41.4523ZM10.8468 40.5981L9.67412 41.5333C12.8475 45.5125 17.168 48.4194 22.0495 49.8598L22.474 48.4211L22.8985 46.9824C18.6073 45.7162 14.8093 43.1608 12.0196 39.6628L10.8468 40.5981ZM22.474 48.4211L22.0495 49.8598C26.931 51.3002 32.1374 51.2045 36.9627 49.5856L36.4856 48.1635L36.0085 46.7414C31.7667 48.1645 27.1898 48.2487 22.8985 46.9824L22.474 48.4211ZM36.4856 48.1635L36.9627 49.5856C41.788 47.9667 45.9986 44.903 49.0236 40.8099L47.8173 39.9183L46.611 39.0268C43.9518 42.625 40.2503 45.3183 36.0085 46.7414L36.4856 48.1635ZM47.8173 39.9183L49.0236 40.8099C52.0486 36.7168 53.7416 31.7924 53.873 26.7044L52.3735 26.6657L50.874 26.627C50.7585 31.0997 49.2702 35.4286 46.611 39.0268L47.8173 39.9183ZM52.3735 26.6657L53.873 26.7044C54.0044 21.6165 52.5678 16.6113 49.7581 12.3675L48.5074 13.1956L47.2567 14.0237C49.7266 17.7543 50.9895 22.1543 50.874 26.627L52.3735 26.6657ZM48.5074 13.1956L49.7581 12.3675C46.9484 8.12376 42.9015 4.84678 38.1662 2.98099L37.6163 4.37656L37.0665 5.77214C41.2292 7.41232 44.7867 10.2931 47.2567 14.0237L48.5074 13.1956ZM37.6163 4.37656L38.1662 2.98099C33.4309 1.1152 28.2364 0.75088 23.287 1.93744L23.6367 3.39611L23.9864 4.85477C28.3373 3.81169 32.9037 4.13196 37.0665 5.77214L37.6163 4.37656ZM23.6367 3.39611L23.287 1.93744C18.3377 3.124 13.873 5.80401 10.4984 9.61406L11.6213 10.6086L12.7442 11.6031C15.7107 8.25381 19.6355 5.89785 23.9864 4.85477L23.6367 3.39611ZM11.6213 10.6086L12.6158 9.48571L11.5902 8.57732L10.5957 9.70021L9.60113 10.8231L10.6267 11.7315L11.6213 10.6086Z" fill="#E4E5E7" mask="url(#path-2-inside-1_2051_1759)"/>
<mask id="path-4-inside-2_2051_1759" fill="white">
<path d="M6.42431 35.8726C4.99017 32.5621 4.29929 28.9773 4.40033 25.3709C4.50137 21.7645 5.39186 18.2241 7.0091 14.999L8.14268 15.5675C6.60855 18.6268 5.76381 21.9853 5.66796 25.4064C5.57212 28.8275 6.2275 32.2281 7.58794 35.3685L6.42431 35.8726Z"/>
</mask>
<path d="M6.42431 35.8726L5.04791 36.4689L5.64417 37.8453L7.02056 37.249L6.42431 35.8726ZM7.0091 14.999L7.68148 13.6582L6.34062 12.9858L5.66824 14.3266L7.0091 14.999ZM8.14268 15.5675L9.48354 16.2398L10.1559 14.899L8.81507 14.2266L8.14268 15.5675ZM7.58794 35.3685L8.1842 36.7449L9.5606 36.1487L8.96434 34.7723L7.58794 35.3685ZM6.42431 35.8726L7.80071 35.2764C6.45373 32.167 5.80485 28.8002 5.89974 25.4129L4.40033 25.3709L2.90092 25.3289C2.79374 29.1545 3.52661 32.9571 5.04791 36.4689L6.42431 35.8726ZM4.40033 25.3709L5.89974 25.4129C5.99464 22.0257 6.83101 18.7005 8.34996 15.6714L7.0091 14.999L5.66824 14.3266C3.95271 17.7477 3.0081 21.5033 2.90092 25.3289L4.40033 25.3709ZM7.0091 14.999L6.33671 16.3399L7.4703 16.9083L8.14268 15.5675L8.81507 14.2266L7.68148 13.6582L7.0091 14.999ZM8.14268 15.5675L6.80183 14.8951C5.1694 18.1504 4.27054 21.7241 4.16855 25.3644L5.66796 25.4064L7.16737 25.4484C7.25708 22.2465 8.04769 19.1032 9.48354 16.2398L8.14268 15.5675ZM5.66796 25.4064L4.16855 25.3644C4.06656 29.0047 4.76393 32.6231 6.21154 35.9648L7.58794 35.3685L8.96434 34.7723C7.69106 31.833 7.07767 28.6504 7.16737 25.4484L5.66796 25.4064ZM7.58794 35.3685L6.99168 33.9921L5.82805 34.4962L6.42431 35.8726L7.02056 37.249L8.1842 36.7449L7.58794 35.3685Z" fill="#FF003C" mask="url(#path-4-inside-2_2051_1759)"/>
<g clip-path="url(#clip1_2051_1759)">
<path d="M36.7716 35.1639H21.3716" stroke="#626262" stroke-width="1.4" stroke-linecap="round" stroke-linejoin="round"/>
<path d="M23.4706 35.164V29.3426C23.4706 26.2498 25.9778 23.7426 29.0706 23.7426C32.1634 23.7426 34.6706 26.2498 34.6706 29.3426V35.164" stroke="#626262" stroke-width="1.4" stroke-linecap="round" stroke-linejoin="round"/>
<path d="M29.0713 16.964V19.0642" stroke="#FF003C" stroke-width="1.4" stroke-linecap="round" stroke-linejoin="round"/>
<path d="M29.0713 31.0079V35.164" stroke="#626262" stroke-width="1.4" stroke-linecap="round" stroke-linejoin="round"/>
<path d="M21.4858 19.0641L22.9609 20.5616" stroke="#FF003C" stroke-width="1.4" stroke-linecap="round" stroke-linejoin="round"/>
<path d="M36.6563 19.0641L35.1813 20.5616" stroke="#FF003C" stroke-width="1.4" stroke-linecap="round" stroke-linejoin="round"/>
</g>
</g>
<defs>
<filter id="filter0_dd_2051_1759" x="0.586126" y="0.235577" width="56.9703" height="58.2987" filterUnits="userSpaceOnUse" color-interpolation-filters="sRGB">
<feFlood flood-opacity="0" result="BackgroundImageFix"/>
<feColorMatrix in="SourceAlpha" type="matrix" values="0 0 0 0 0 0 0 0 0 0 0 0 0 0 0 0 0 0 127 0" result="hardAlpha"/>
<feOffset dy="1.32839"/>
<feGaussianBlur stdDeviation="1.32839"/>
<feColorMatrix type="matrix" values="0 0 0 0 0.824475 0 0 0 0 0.852415 0 0 0 0 0.908297 0 0 0 0.6 0"/>
<feBlend mode="normal" in2="BackgroundImageFix" result="effect1_dropShadow_2051_1759"/>
<feColorMatrix in="SourceAlpha" type="matrix" values="0 0 0 0 0 0 0 0 0 0 0 0 0 0 0 0 0 0 127 0" result="hardAlpha"/>
<feOffset dy="3.98516"/>
<feGaussianBlur stdDeviation="1.99258"/>
<feColorMatrix type="matrix" values="0 0 0 0 0.539148 0 0 0 0 0.578009 0 0 0 0 0.675161 0 0 0 0.22 0"/>
<feBlend mode="normal" in2="effect1_dropShadow_2051_1759" result="effect2_dropShadow_2051_1759"/>
<feBlend mode="normal" in="SourceGraphic" in2="effect2_dropShadow_2051_1759" result="shape"/>
</filter>
<clipPath id="clip0_2051_1759">
<rect width="50" height="50" fill="white" transform="translate(4.07129 1.06396)"/>
</clipPath>
<clipPath id="clip1_2051_1759">
<rect width="20" height="20" fill="white" transform="translate(19.0713 16.064)"/>
</clipPath>
</defs>
</svg>
