<svg width="12" height="12" viewBox="0 0 12 12" fill="none" xmlns="http://www.w3.org/2000/svg">
<path d="M6.69281 1.04687C8.4737 1.83737 9.82369 2.87567 10.5216 3.47573C10.8743 3.779 11.071 4.21547 11.0953 4.67997C11.1288 5.31787 11.1693 6.31602 11.1693 7.40769C11.1693 8.24749 11.1453 9.05849 11.119 9.69525C11.0885 10.434 10.5011 11.0167 9.76215 11.0419C8.91036 11.071 7.64646 11.1001 5.99994 11.1001C4.35341 11.1001 3.0895 11.071 2.2377 11.0419C1.49876 11.0167 0.911366 10.434 0.880854 9.69528C0.854555 9.05851 0.830566 8.24749 0.830566 7.40769C0.830566 6.31602 0.871104 5.31785 0.904557 4.67995C0.928919 4.21544 1.12557 3.779 1.47826 3.47576C2.17615 2.8757 3.52616 1.83738 5.30705 1.04687C5.748 0.851156 6.25189 0.851156 6.69281 1.04687Z" stroke="#626262" stroke-width="1.66909" stroke-linejoin="round"/>
</svg>
