<?xml version="1.0" encoding="UTF-8"?>
<svg width="17px" height="17px" viewBox="0 0 17 17" version="1.1" xmlns="http://www.w3.org/2000/svg" xmlns:xlink="http://www.w3.org/1999/xlink">
    <defs>
        <linearGradient x1="119.185838%" y1="-22.9543686%" x2="28.538438%" y2="85.8411534%" id="linearGradient-1">
            <stop stop-color="#00E5FF" offset="0%"></stop>
            <stop stop-color="#00E676" offset="100%"></stop>
        </linearGradient>
        <linearGradient x1="69.0270946%" y1="-32.091607%" x2="45.7606791%" y2="85.8411534%" id="linearGradient-2">
            <stop stop-color="#00E5FF" offset="0%"></stop>
            <stop stop-color="#00E676" offset="100%"></stop>
        </linearGradient>
    </defs>
    <g stroke="none" stroke-width="1" fill="none" fill-rule="evenodd">
        <g transform="translate(-377.000000, -1829.000000)" id="Elements/Lobby-main-note2">
            <g transform="translate(20.000000, 1827.000000)">
                <g id="Group-15-Copy" transform="translate(357.200000, 2.200000)">
                    <path d="M8.39286896,0.50000634 C10.7596188,0.570461693 12.6808798,1.47312262 14.0671863,2.90163365 C15.4457317,4.32214721 16.2957682,6.2584103 16.2999865,8.39338386 C16.231925,10.7611546 15.3298608,12.6834778 13.90106,14.070003 C12.4802922,15.4487329 10.5429429,16.2981322 8.40661611,16.2999865 C6.03867049,16.2319175 4.11648275,15.329824 2.73006609,13.9011287 C1.34972187,12.478691 0.5,10.5385188 0.5,8.4 C0.5,6.21852887 1.38420855,4.24346073 2.81387541,2.81379387 C4.24186262,1.38580666 6.21402818,0.50194356 8.39286896,0.50000634 Z" id="Path" stroke="url(#linearGradient-1)"></path>
                    <path d="M7.525,4.55 C7.525,3.9704 7.9947,3.5 8.575,3.5 L8.575,3.5 C9.1546,3.5 9.625,3.9704 9.625,4.55 L9.625,4.55 C9.625,5.1296 9.1546,5.6 8.575,5.6 L8.575,5.6 C7.9947,5.6 7.525,5.1296 7.525,4.55 L7.525,4.55 Z M6.65,7.35 C6.65,6.9636 6.9636,6.65 7.35,6.65 L7.35,6.65 L8.05,6.65 C8.8235,6.65 9.45,7.2765 9.45,8.05 L9.45,8.05 L9.45,11.375 C9.45,11.4716 9.5284,11.55 9.625,11.55 L9.625,11.55 L10.15,11.55 C10.5364,11.55 10.85,11.8636 10.85,12.25 L10.85,12.25 C10.85,12.6357 10.5364,12.95 10.15,12.95 L10.15,12.95 L7.35,12.95 C6.9636,12.95 6.65,12.6357 6.65,12.25 L6.65,12.25 C6.65,11.8636 6.9636,11.55 7.35,11.55 L7.35,11.55 L7.875,11.55 C7.9716,11.55 8.05,11.4716 8.05,11.375 L8.05,11.375 L8.05,8.225 C8.05,8.1284 7.9716,8.05 7.875,8.05 L7.875,8.05 L7.35,8.05 C6.9636,8.05 6.65,7.7364 6.65,7.35 L6.65,7.35 Z" id="Combined-Shape" fill="url(#linearGradient-2)"></path>
                </g>
            </g>
        </g>
    </g>
</svg>
