<svg width="50" height="51" viewBox="0 0 50 51" fill="none" xmlns="http://www.w3.org/2000/svg">
<mask id="path-1-inside-1_3143_35939" fill="white">
<path d="M41.3637 7.19126C45.1538 10.5481 47.8198 14.9895 49.0001 19.9129C50.1804 24.8363 49.818 30.0037 47.962 34.7142C46.106 39.4246 42.8462 43.4504 38.6246 46.2453C34.4031 49.0403 29.4241 50.4694 24.3628 50.3387C19.3016 50.208 14.4029 48.5239 10.3313 45.5147C6.25962 42.5055 3.21192 38.317 1.60151 33.5169C-0.00891211 28.7169 -0.104134 23.5378 1.32875 18.6818C2.76164 13.8259 5.6533 9.52809 9.61159 6.37129L10.4658 7.44243C6.72727 10.424 3.99613 14.4832 2.64279 19.0696C1.28945 23.656 1.37939 28.5476 2.90041 33.0812C4.42143 37.6147 7.29994 41.5708 11.1456 44.4129C14.9912 47.255 19.6179 48.8456 24.3982 48.9691C29.1785 49.0925 33.8811 47.7428 37.8683 45.103C41.8555 42.4631 44.9344 38.6609 46.6873 34.2119C48.4403 29.7629 48.7826 24.8824 47.6678 20.2323C46.553 15.5822 44.035 11.3874 40.4553 8.21687L41.3637 7.19126Z"/>
</mask>
<path d="M41.3637 7.19126L42.3582 6.06837L41.2353 5.07382L40.2408 6.19671L41.3637 7.19126ZM9.61159 6.37129L10.7843 5.43603L9.84905 4.26331L8.67633 5.19857L9.61159 6.37129ZM10.4658 7.44243L11.4011 8.61515L12.5738 7.67988L11.6386 6.50716L10.4658 7.44243ZM40.4553 8.21687L39.3324 7.22233L38.3379 8.34521L39.4608 9.33976L40.4553 8.21687ZM41.3637 7.19126L40.3691 8.31415C43.9289 11.467 46.4328 15.6384 47.5414 20.2626L49.0001 19.9129L50.4588 19.5632C49.2067 14.3405 46.3787 9.62928 42.3582 6.06837L41.3637 7.19126ZM49.0001 19.9129L47.5414 20.2626C48.65 24.8868 48.3097 29.7401 46.5664 34.1643L47.962 34.7142L49.3576 35.264C51.3264 30.2673 51.7108 24.7859 50.4588 19.5632L49.0001 19.9129ZM47.962 34.7142L46.5664 34.1643C44.8232 38.5885 41.7615 42.3695 37.7966 44.9946L38.6246 46.2453L39.4527 47.4961C43.9308 44.5312 47.3888 40.2608 49.3576 35.264L47.962 34.7142ZM38.6246 46.2453L37.7966 44.9946C33.8316 47.6198 29.1552 48.9619 24.4015 48.8392L24.3628 50.3387L24.3241 51.8382C29.693 51.9768 34.9746 50.4609 39.4527 47.4961L38.6246 46.2453ZM24.3628 50.3387L24.4015 48.8392C19.6479 48.7164 15.047 47.1347 11.2228 44.3084L10.3313 45.5147L9.43975 46.721C13.7589 49.9131 18.9552 51.6995 24.3241 51.8382L24.3628 50.3387ZM10.3313 45.5147L11.2228 44.3084C7.3986 41.4821 4.53615 37.5481 3.0236 33.0398L1.60151 33.5169L0.179411 33.9941C1.88771 39.0858 5.12063 43.529 9.43975 46.721L10.3313 45.5147ZM1.60151 33.5169L3.0236 33.0398C1.51106 28.5316 1.42163 23.6672 2.76742 19.1064L1.32875 18.6818L-0.109924 18.2573C-1.6299 23.4084 -1.52889 28.9023 0.179411 33.9941L1.60151 33.5169ZM1.32875 18.6818L2.76742 19.1064C4.11322 14.5455 6.82914 10.509 10.5469 7.54402L9.61159 6.37129L8.67633 5.19857C4.47746 8.54723 1.41005 13.1062 -0.109924 18.2573L1.32875 18.6818ZM9.61159 6.37129L8.43887 7.30656L9.29311 8.37769L10.4658 7.44243L11.6386 6.50716L10.7843 5.43603L9.61159 6.37129ZM10.4658 7.44243L9.53057 6.2697C5.55143 9.44312 2.64455 13.7635 1.20412 18.6451L2.64279 19.0696L4.08146 19.4941C5.34772 15.2028 7.90311 11.4048 11.4011 8.61515L10.4658 7.44243ZM2.64279 19.0696L1.20412 18.6451C-0.236311 23.5266 -0.140588 28.733 1.47831 33.5583L2.90041 33.0812L4.32251 32.604C2.89936 28.3622 2.81521 23.7854 4.08146 19.4941L2.64279 19.0696ZM2.90041 33.0812L1.47831 33.5583C3.09721 38.3836 6.16095 42.5942 10.254 45.6192L11.1456 44.4129L12.0371 43.2066C8.43892 40.5474 5.74565 36.8459 4.32251 32.604L2.90041 33.0812ZM11.1456 44.4129L10.254 45.6192C14.3471 48.6442 19.2716 50.3372 24.3595 50.4686L24.3982 48.9691L24.4369 47.4696C19.9642 47.3541 15.6353 45.8658 12.0371 43.2066L11.1456 44.4129ZM24.3982 48.9691L24.3595 50.4686C29.4474 50.6 34.4526 49.1634 38.6964 46.3537L37.8683 45.103L37.0402 43.8523C33.3096 46.3222 28.9096 47.5851 24.4369 47.4696L24.3982 48.9691ZM37.8683 45.103L38.6964 46.3537C42.9401 43.544 46.2171 39.4971 48.0829 34.7618L46.6873 34.2119L45.2918 33.662C43.6516 37.8247 40.7709 41.3823 37.0402 43.8523L37.8683 45.103ZM46.6873 34.2119L48.0829 34.7618C49.9487 30.0265 50.313 24.832 49.1265 19.8826L47.6678 20.2323L46.2091 20.582C47.2522 24.9329 46.9319 29.4993 45.2918 33.662L46.6873 34.2119ZM47.6678 20.2323L49.1265 19.8826C47.9399 14.9332 45.2599 10.4685 41.4498 7.09398L40.4553 8.21687L39.4608 9.33976C42.8101 12.3063 45.1661 16.2311 46.2091 20.582L47.6678 20.2323ZM40.4553 8.21687L41.5782 9.21142L42.4866 8.1858L41.3637 7.19126L40.2408 6.19671L39.3324 7.22233L40.4553 8.21687Z" fill="#E4E5E7" mask="url(#path-1-inside-1_3143_35939)"/>
<mask id="path-3-inside-2_3143_35939" fill="white">
<path d="M15.1913 3.01989C18.5018 1.58575 22.0866 0.894875 25.693 0.995912C29.2994 1.09695 32.8398 1.98744 36.0649 3.60468L35.4964 4.73826C32.4371 3.20413 29.0786 2.35939 25.6575 2.26354C22.2364 2.1677 18.8358 2.82308 15.6954 4.18352L15.1913 3.01989Z"/>
</mask>
<path d="M15.1913 3.01989L14.595 1.64349L13.2186 2.23975L13.8149 3.61615L15.1913 3.01989ZM36.0649 3.60468L37.4057 4.27706L38.0781 2.93621L36.7373 2.26382L36.0649 3.60468ZM35.4964 4.73826L34.8241 6.07912L36.1649 6.75151L36.8373 5.41065L35.4964 4.73826ZM15.6954 4.18352L14.319 4.77978L14.9152 6.15618L16.2916 5.55992L15.6954 4.18352ZM15.1913 3.01989L15.7876 4.39629C18.8969 3.04932 22.2637 2.40043 25.651 2.49532L25.693 0.995912L25.735 -0.5035C21.9094 -0.610677 18.1068 0.122191 14.595 1.64349L15.1913 3.01989ZM25.693 0.995912L25.651 2.49532C29.0382 2.59022 32.3634 3.42659 35.3925 4.94554L36.0649 3.60468L36.7373 2.26382C33.3162 0.548295 29.5606 -0.396322 25.735 -0.5035L25.693 0.995912ZM36.0649 3.60468L34.724 2.93229L34.1556 4.06588L35.4964 4.73826L36.8373 5.41065L37.4057 4.27706L36.0649 3.60468ZM35.4964 4.73826L36.1688 3.39741C32.9135 1.76498 29.3398 0.866117 25.6995 0.76413L25.6575 2.26354L25.6155 3.76295C28.8174 3.85266 31.9607 4.64328 34.8241 6.07912L35.4964 4.73826ZM25.6575 2.26354L25.6995 0.76413C22.0592 0.662144 18.4408 1.35951 15.0991 2.80712L15.6954 4.18352L16.2916 5.55992C19.2309 4.28664 22.4135 3.67325 25.6155 3.76295L25.6575 2.26354ZM15.6954 4.18352L17.0718 3.58726L16.5677 2.42363L15.1913 3.01989L13.8149 3.61615L14.319 4.77978L15.6954 4.18352Z" fill="#FF003C" mask="url(#path-3-inside-2_3143_35939)"/>
<path d="M28.1822 16.3325C28.7459 17.7416 28.8762 20.0662 31.1413 21.828M16.3459 32.8189C16.902 31.7067 19.8461 32.9067 21.4186 30.7052C23.5322 27.7461 23.1095 22.2507 21.8413 18.0234M28.0638 26.478C28.9977 26.478 29.7547 25.7209 29.7547 24.7871C29.7547 24.1612 29.4147 23.6147 28.9093 23.3224" stroke="#4F4F4F" stroke-width="1.4" stroke-linecap="round" stroke-linejoin="round"/>
<path d="M31.1414 21.828C35.7914 25.4447 33.6777 27.3235 29.4505 29.0144C25.2232 30.7053 26.0687 34.9325 20.5732 34.9325C17.1914 34.9325 15.7899 33.9311 16.3459 32.8189" stroke="#FF003C" stroke-width="1.4" stroke-linecap="round" stroke-linejoin="round"/>
</svg>
