<svg width="17" height="17" viewBox="0 0 17 17" fill="none" xmlns="http://www.w3.org/2000/svg">
<path d="M10.8129 1.21399C9.64423 1.21399 9.17383 1.68439 9.17383 2.85304V5.82243C9.17383 6.99108 9.64423 7.46148 10.8129 7.46148H13.7823C14.9509 7.46148 15.4213 6.99108 15.4213 5.82243V2.85304C15.4213 1.68439 14.9509 1.21399 13.7823 1.21399" stroke="#626262" stroke-width="1.2" stroke-linecap="round" stroke-linejoin="round"/>
<path d="M6.96868 6.00618V2.66929C6.96868 1.63294 6.49828 1.21399 5.32963 1.21399H2.36024C1.19159 1.21399 0.721191 1.63294 0.721191 2.66929V5.99883C0.721191 7.04253 1.19159 7.45413 2.36024 7.45413H5.32963C6.49828 7.46148 6.96868 7.04253 6.96868 6.00618Z" stroke="#626262" stroke-width="1.2" stroke-linecap="round" stroke-linejoin="round"/>
<path d="M5.32963 15.9139C6.49828 15.9139 6.96868 15.4435 6.96868 14.2748V11.3054C6.96868 10.1368 6.49828 9.66638 5.32963 9.66638H2.36024C1.19159 9.66638 0.721191 10.1368 0.721191 11.3054V14.2748C0.721191 15.4435 1.19159 15.9139 2.36024 15.9139" stroke="#626262" stroke-width="1.2" stroke-linecap="round" stroke-linejoin="round"/>
<path d="M9.90869 12.6064H14.3187" stroke="#FF003C" stroke-width="1.2" stroke-linecap="round"/>
<path d="M12.1138 14.8115V10.4015" stroke="#FF003C" stroke-width="1.2" stroke-linecap="round"/>
</svg>
