<svg width="41" height="61" viewBox="0 0 41 61" fill="none" xmlns="http://www.w3.org/2000/svg">
<path d="M25.0982 0.0351562C24.4677 0.0353104 23.8348 0.334816 23.4684 0.966797L17.609 10.8389C17.2095 11.5143 16.4716 11.9434 15.6734 11.9434H1.9498C0.48675 11.9436 -0.445543 13.5403 0.286713 14.8057L7.13242 26.6504C7.53173 27.3572 7.53243 28.2179 7.13339 28.9248H7.13242L0.255463 40.7373C-0.47716 42.0028 0.455189 43.5996 1.91855 43.5996H15.6109C16.441 43.5999 17.1767 44.0303 17.5758 44.7363H17.5777L23.1803 54.416C23.546 55.0476 24.2112 55.3797 24.8434 55.3799C25.0119 55.3799 25.1799 55.347 25.3375 55.3154L25.4039 55.3018V47.9727L25.2525 48.2188L24.9107 48.7705L21.317 42.584C20.1559 40.5527 17.9637 39.2952 15.6109 39.2949H6.1373L10.8736 31.0762C12.034 29.0451 12.0341 26.4979 10.8736 24.4668L6.1373 16.248H15.6422C17.9636 16.2479 20.1241 15.0214 21.317 13.0225L25.0953 6.68262L25.2486 6.96973L25.4039 6.93066V0.0351562H25.0982Z" fill="white"/>
<path d="M17.2338 6.93152H33.3773C33.5683 6.93152 33.7275 7.09072 33.7275 7.28177V7.34545C33.7275 7.50466 33.6002 7.63203 33.441 7.69571C33.0589 10.1156 29.8747 12.058 27.009 12.6311L26.1812 55.776L25.0349 56.5083V56.4765H24.5891L23.5065 12.6311C20.609 12.058 17.4248 10.0838 17.0746 7.66387C16.9472 7.60018 16.8517 7.50466 16.8517 7.3773V7.31361C16.8835 7.09072 17.0427 6.93152 17.2338 6.93152Z" fill="#221F1F"/>
<path d="M18.7305 22.9795C19.0489 25.081 21.6917 27.1826 23.8888 29.1249L23.7614 23.3935C23.1246 22.6929 22.6788 22.0243 22.7107 21.4511C22.7425 20.0183 26.8819 20.7506 27.7416 20.9417C28.8242 21.1964 31.3078 21.6422 32.4541 21.674C33.3775 21.7059 34.4282 21.2601 35.2879 20.7825C35.8929 20.5277 36.4024 20.2412 36.7208 20.0183C37.1666 20.0183 37.7079 20.0501 38.1537 20.0501C38.8223 20.0501 40.8283 21.3238 40.8283 21.3238L38.7586 19.8272L40.892 18.2352C40.892 18.2352 38.9178 19.6043 38.1855 19.6043C37.676 19.6043 37.1984 19.5725 36.8163 19.5088C36.7208 19.4133 36.5934 19.3178 36.4342 19.2223C35.6382 18.4262 33.3775 17.5347 32.4859 17.5347C30.9575 17.5347 29.5247 17.7894 29.0152 17.7894C28.5058 17.7894 26.5316 18.1715 23.443 17.8531C21.4688 17.5665 18.1892 19.5407 18.7305 22.9795ZM26.3406 49.5351L26.4361 44.9818C27.1047 45.7142 27.6779 46.5102 28.1874 47.6565C29.3973 50.4903 27.8053 52.6237 26.5316 55.4894C25.258 58.387 26.054 59.6288 25.5445 59.9472C25.0351 60.2656 24.4619 59.7561 24.2709 57.8138C23.9206 54.5023 26.4679 52.0187 26.5634 50.3311C26.5634 50.1082 26.5316 49.8535 26.3406 49.5351ZM26.7227 31.1946L26.8182 25.4631C28.7286 27.1826 30.7028 29.1249 30.7346 31.1946C30.8302 35.8115 24.0798 38.7409 24.1754 41.5111C24.1754 41.734 24.1754 41.925 24.2709 42.1479L24.3982 47.0196C22.9972 45.5231 21.5962 43.8355 21.5325 41.7658C21.437 37.4673 27.0411 34.6971 27.0411 32.6911C27.0411 32.0224 26.8819 31.5766 26.7227 31.1946Z" fill="#CCCCCC"/>
<path d="M32.0719 20.0502C31.7026 20.0502 31.4033 19.7509 31.4033 19.3816C31.4033 19.0123 31.7026 18.7129 32.0719 18.7129C32.4412 18.7129 32.7406 19.0123 32.7406 19.3816C32.7406 19.7509 32.4412 20.0502 32.0719 20.0502Z" fill="#221F1F"/>
</svg>
