<svg width="138" height="61" viewBox="0 0 138 61" fill="none" xmlns="http://www.w3.org/2000/svg">
<path d="M25.0982 0.595215C24.4677 0.595369 23.8348 0.894875 23.4684 1.52686L17.609 11.3989C17.2095 12.0744 16.4716 12.5034 15.6734 12.5034H1.9498C0.48675 12.5037 -0.445543 14.1004 0.286713 15.3657L7.13242 27.2104C7.53173 27.9173 7.53243 28.7779 7.13339 29.4849H7.13242L0.255463 41.2974C-0.47716 42.5629 0.455189 44.1597 1.91855 44.1597H15.6109C16.441 44.16 17.1767 44.5904 17.5758 45.2964H17.5777L23.1803 54.9761C23.546 55.6077 24.2112 55.9397 24.8434 55.9399C25.0119 55.9399 25.1799 55.907 25.3375 55.8755L25.4039 55.8618V48.5327L25.2525 48.7788L24.9107 49.3306L21.317 43.144C20.1559 41.1128 17.9637 39.8553 15.6109 39.855H6.1373L10.8736 31.6362C12.034 29.6052 12.0341 27.0579 10.8736 25.0269L6.1373 16.8081H15.6422C17.9636 16.808 20.1241 15.5814 21.317 13.5825L25.0953 7.24268L25.2486 7.52979L25.4039 7.49072V0.595215H25.0982Z" fill="white"/>
<path d="M17.2338 7.49158H33.3773C33.5683 7.49158 33.7275 7.65078 33.7275 7.84183V7.90551C33.7275 8.06472 33.6002 8.19208 33.441 8.25577C33.0589 10.6757 29.8747 12.618 27.009 13.1912L26.1812 56.336L25.0349 57.0684V57.0365H24.5891L23.5065 13.1912C20.609 12.618 17.4248 10.6439 17.0746 8.22393C16.9472 8.16024 16.8517 8.06472 16.8517 7.93735V7.87367C16.8835 7.65078 17.0427 7.49158 17.2338 7.49158Z" fill="#221F1F"/>
<path d="M18.7305 23.5396C19.0489 25.6411 21.6917 27.7426 23.8888 29.6849L23.7614 23.9535C23.1246 23.253 22.6788 22.5843 22.7107 22.0112C22.7425 20.5783 26.8819 21.3107 27.7416 21.5017C28.8242 21.7565 31.3078 22.2022 32.4541 22.2341C33.3775 22.2659 34.4282 21.8202 35.2879 21.3425C35.8929 21.0878 36.4024 20.8012 36.7208 20.5783C37.1666 20.5783 37.7079 20.6102 38.1537 20.6102C38.8223 20.6102 40.8283 21.8838 40.8283 21.8838L38.7586 20.3873L40.892 18.7952C40.892 18.7952 38.9178 20.1644 38.1855 20.1644C37.676 20.1644 37.1984 20.1326 36.8163 20.0689C36.7208 19.9734 36.5934 19.8778 36.4342 19.7823C35.6382 18.9863 33.3775 18.0947 32.4859 18.0947C30.9575 18.0947 29.5247 18.3495 29.0152 18.3495C28.5058 18.3495 26.5316 18.7316 23.443 18.4131C21.4688 18.1266 18.1892 20.1007 18.7305 23.5396ZM26.3406 50.0952L26.4361 45.5419C27.1047 46.2742 27.6779 47.0702 28.1874 48.2165C29.3973 51.0504 27.8053 53.1838 26.5316 56.0495C25.258 58.947 26.054 60.1888 25.5445 60.5072C25.0351 60.8257 24.4619 60.3162 24.2709 58.3739C23.9206 55.0624 26.4679 52.5788 26.5634 50.8912C26.5634 50.6683 26.5316 50.4136 26.3406 50.0952ZM26.7227 31.7546L26.8182 26.0232C28.7286 27.7426 30.7028 29.6849 30.7346 31.7546C30.8302 36.3716 24.0798 39.301 24.1754 42.0712C24.1754 42.2941 24.1754 42.4851 24.2709 42.708L24.3982 47.5797C22.9972 46.0832 21.5962 44.3956 21.5325 42.3259C21.437 38.0273 27.0411 35.2571 27.0411 33.2511C27.0411 32.5825 26.8819 32.1367 26.7227 31.7546Z" fill="#CCCCCC"/>
<path d="M32.0719 20.6103C31.7026 20.6103 31.4033 20.3109 31.4033 19.9416C31.4033 19.5723 31.7026 19.2729 32.0719 19.2729C32.4412 19.2729 32.7406 19.5723 32.7406 19.9416C32.7406 20.3109 32.4412 20.6103 32.0719 20.6103Z" fill="#221F1F"/>
<path d="M94.5785 33.2847H91.7777L91.433 31.5396C91.0399 32.08 90.5204 32.5559 89.8734 32.9653C89.2265 33.3747 88.3866 33.5796 87.3549 33.5796C86.2086 33.5795 85.1853 33.3004 84.2846 32.7437C83.3839 32.1868 82.671 31.4256 82.1469 30.4595C81.6228 29.4931 81.3607 28.3949 81.3607 27.1665C81.3608 25.9383 81.6228 24.8452 82.1469 23.8872C82.671 22.9291 83.3838 22.1761 84.2846 21.6274C85.1853 21.0788 86.2085 20.8043 87.3549 20.8042C88.2721 20.8042 89.0752 20.9759 89.7631 21.3198C90.4508 21.6637 91.0072 22.1469 91.433 22.769V15.5952H94.5785V33.2847ZM73.0141 20.8042C74.2096 20.8042 75.2659 21.0663 76.183 21.5903C77.1001 22.1144 77.8165 22.8308 78.3324 23.7397C78.8483 24.6487 79.1068 25.6602 79.1068 26.7739C79.1068 26.9541 79.1023 27.1428 79.0941 27.3394C79.086 27.5356 79.0744 27.7401 79.058 27.9526H69.7953C69.8608 28.9026 70.1926 29.6485 70.7904 30.189C71.3882 30.7294 72.1136 30.9995 72.9652 30.9995C73.6036 30.9994 74.1398 30.8562 74.5736 30.5698C75.0077 30.2832 75.3314 29.9103 75.5443 29.4517H78.7387C78.5094 30.2214 78.1283 30.9217 77.5961 31.5522C77.0638 32.1828 76.4083 32.6782 75.6303 33.0386C74.8524 33.3988 73.9722 33.5786 72.9897 33.5786C71.7613 33.5786 70.672 33.3166 69.7221 32.7925C68.7722 32.2684 68.0272 31.5315 67.4867 30.5815C66.9463 29.6316 66.6752 28.5343 66.6752 27.2896C66.6752 26.0286 66.9418 24.9069 67.474 23.9243C68.0063 22.9417 68.7433 22.1761 69.685 21.6274C70.6267 21.0788 71.7366 20.8042 73.0141 20.8042ZM55.1049 26.9946L60.5092 16.0874H64.2436V33.2847H61.099V21.4185L56.308 30.8276H53.8266L49.0365 21.4185V33.2847H45.892V16.0874H49.6264L55.1049 26.9946ZM101.015 33.2847H97.8705V21.0991H101.015V33.2847ZM117.039 18.6177H112.003V33.2847H108.859V18.6177H103.847V16.0874H117.039V18.6177ZM122.567 33.2847H119.422V21.0991H122.567V33.2847ZM129.004 26.0366L133.328 21.0991H137.062L132.075 26.6509L137.872 33.2847H133.942L129.004 27.1665V33.2847H125.859V15.5952H129.004V26.0366ZM88.019 23.5552C87.0199 23.5552 86.1926 23.8915 85.5375 24.563C84.8825 25.2344 84.5542 26.1021 84.5541 27.1665C84.5541 28.2311 84.8824 29.1075 85.5375 29.7954C86.1926 30.4833 87.0199 30.8276 88.019 30.8276C89.0342 30.8275 89.8653 30.4876 90.5121 29.8081C91.159 29.1285 91.4827 28.2563 91.4828 27.1919C91.4828 26.1273 91.1591 25.2544 90.5121 24.5747C89.8653 23.8952 89.0341 23.5553 88.019 23.5552ZM73.0141 23.3589C72.2443 23.3589 71.5646 23.5762 70.975 24.0103C70.3854 24.4443 70.0089 25.1034 69.8451 25.9878H75.9135C75.8644 25.1854 75.5691 24.5467 75.0287 24.0718C74.4882 23.5968 73.8166 23.3589 73.0141 23.3589ZM99.4428 15.5952C100.016 15.5953 100.486 15.7635 100.855 16.0991C101.223 16.4349 101.408 16.8651 101.408 17.3892C101.408 17.9132 101.223 18.347 100.855 18.6909C100.486 19.0348 100.016 19.2075 99.4428 19.2075C98.8695 19.2075 98.3982 19.0349 98.0297 18.6909C97.6613 18.347 97.477 17.9131 97.477 17.3892C97.477 16.8651 97.6612 16.4349 98.0297 16.0991C98.3982 15.7634 98.8695 15.5952 99.4428 15.5952ZM120.995 15.5952C121.568 15.5952 122.039 15.7634 122.408 16.0991C122.776 16.4349 122.96 16.8651 122.96 17.3892C122.96 17.9131 122.776 18.347 122.408 18.6909C122.039 19.0349 121.568 19.2075 120.995 19.2075C120.421 19.2075 119.951 19.0348 119.582 18.6909C119.214 18.347 119.03 17.9132 119.03 17.3892C119.03 16.8651 119.214 16.4349 119.582 16.0991C119.951 15.7636 120.422 15.5952 120.995 15.5952Z" fill="white"/>
<path d="M62.2092 50.0483C71.8669 49.1334 84.7969 48.5026 97.8734 49.6439C98.0439 49.6588 98.17 49.8093 98.1551 49.9799C98.1402 50.1504 97.9902 50.2764 97.8197 50.2616C84.7938 49.1247 71.9042 49.7526 62.268 50.6655C57.4508 51.1218 53.4483 51.6493 50.6509 52.0625C49.2522 52.2691 48.1546 52.447 47.4074 52.5733C47.0337 52.6365 46.7475 52.6869 46.5551 52.7213C46.4589 52.7384 46.3858 52.7519 46.3372 52.7608L46.2688 52.7734C46.2674 52.7737 46.2664 52.7738 46.2657 52.774H46.2647C46.0965 52.8055 45.9346 52.6949 45.9029 52.5267C45.8713 52.3584 45.982 52.1965 46.1502 52.1649L46.1507 52.1644H46.1517C46.1525 52.1642 46.1537 52.1641 46.1553 52.1639C46.1585 52.1633 46.1632 52.1625 46.1694 52.1613C46.182 52.159 46.2009 52.1552 46.2257 52.1507C46.2752 52.1416 46.349 52.128 46.4461 52.1107C46.6404 52.0759 46.9285 52.0257 47.304 51.9622C48.0552 51.8352 49.157 51.6562 50.5602 51.4489C53.3665 51.0343 57.3797 50.5058 62.2092 50.0483Z" fill="white"/>
<path d="M46.8546 44.0886C47.1261 44.0886 47.3553 44.189 47.5411 44.3748C47.7267 44.5605 47.8126 44.8035 47.8126 45.075C47.8125 45.3607 47.7268 45.5894 47.5411 45.7751C47.3553 45.9609 47.1261 46.0613 46.8546 46.0613C46.5832 46.0612 46.3547 45.9608 46.169 45.7751C45.9832 45.5894 45.8975 45.3464 45.8975 45.075C45.8975 44.7892 45.9833 44.5605 46.169 44.3748C46.3547 44.1891 46.5832 44.0887 46.8546 44.0886ZM67.6475 40.4597C68.1045 40.4598 68.5045 40.559 68.8331 40.7732C69.1617 40.9875 69.4194 41.2737 69.5909 41.6453C69.7623 42.0167 69.8477 42.4454 69.8477 42.9167V43.5027C69.8477 43.9743 69.7624 44.4036 69.5909 44.7751C69.4194 45.1466 69.1617 45.4462 68.8331 45.6462C68.5045 45.8605 68.1046 45.9606 67.6475 45.9607H65.0889V44.6746H67.2188C67.5044 44.6745 67.7326 44.5744 67.8897 44.3601C68.0469 44.1458 68.1192 43.8887 68.1192 43.5886V42.8171C68.1192 42.5171 68.0469 42.26 67.8897 42.0457C67.7326 41.8314 67.5044 41.7313 67.2188 41.7312H66.7042L66.5753 42.4031C66.5751 42.4316 66.5607 42.4742 66.5606 42.531C66.5606 42.6452 66.604 42.7311 66.6895 42.8025C66.7753 42.8739 66.9041 42.9315 67.0899 42.9744L66.8467 44.0173C66.2181 44.0173 65.7605 43.9034 65.4747 43.6462C65.1889 43.389 65.046 43.0456 65.046 42.6169C65.046 42.4885 65.061 42.3601 65.0753 42.2458L65.461 40.4597H67.6475ZM52.4571 40.4304C52.9713 40.4305 53.371 40.5738 53.671 40.8738C53.9711 41.1596 54.129 41.6167 54.129 42.2312V45.947H52.3848V42.1316C52.3848 41.8458 52.2419 41.7029 51.9561 41.7029H49.3272V40.4304H52.4571ZM58.001 41.6023L58.5587 42.4744L58.8301 41.5593L59.1016 40.4167H60.7589L59.5733 43.9744L60.8731 45.9324H59.044V45.947L57.4581 43.446L56.7012 45.947H55.0714L56.1436 42.6746L56.4434 41.8884L55.5577 40.4167H57.2872L58.001 41.6023ZM63.8174 41.5457V45.947H62.088V41.5457H62.0743L61.9737 40.4304H63.7032L63.8174 41.5457ZM73.2198 40.4304C73.7342 40.4304 74.1345 40.5737 74.4346 40.8738C74.7347 41.1596 74.8917 41.6167 74.8917 42.2312V45.947H73.1631V42.1316C73.1631 41.8458 73.0202 41.7029 72.7344 41.7029H70.7764V40.4304H73.2198ZM79.4083 40.4304C79.9224 40.4305 80.3221 40.5738 80.6221 40.8738C80.9222 41.1596 81.0801 41.6167 81.0801 42.2312V45.947H79.336V42.1316C79.336 41.8458 79.1931 41.7029 78.9073 41.7029H76.2784V40.4304H79.4083ZM86.0528 40.4304H88.8819V41.8455L87.2393 45.947H85.5098L87.1534 41.7029H84.5098V39.116H86.0528V40.4304ZM50.9991 45.9324H49.2559V43.3171L49.4991 42.6746H50.9991V45.9324ZM77.9356 45.9324H76.1924V43.3171L76.4356 42.6746H77.9356V45.9324ZM96.4844 40.4304C96.9989 40.4304 97.3992 40.5734 97.6993 40.8591C97.9993 41.1449 98.1563 41.6023 98.1563 42.2166V45.9324H96.4278V42.1169C96.4278 41.8313 96.2846 41.6884 95.9991 41.6882H94.9122V45.9324H93.1837V40.4304H96.4844ZM91.8262 41.5457V43.0603L91.8116 43.6599L90.0831 43.946V41.5457L89.9825 40.4304H91.712L91.8262 41.5457Z" fill="white"/>
<path d="M128.962 40.5979C129.055 40.5796 129.13 40.5989 129.199 40.6331C129.277 40.6726 129.33 40.7471 129.362 40.8108C129.397 40.8811 129.416 40.9708 129.398 41.0618L129.396 41.0725L129.391 41.0813C129.337 41.1894 129.282 41.3547 129.209 41.5715C129.139 41.7818 129.083 42.0067 129.04 42.26C128.999 42.5117 128.985 42.7501 128.985 43.0042C128.998 43.2323 129.048 43.4325 129.139 43.6086C129.265 43.599 129.382 43.5983 129.488 43.6116C129.603 43.626 129.695 43.6411 129.789 43.6721C129.874 43.7007 129.936 43.7326 129.998 43.7766H129.999C130.064 43.8093 130.128 43.8575 130.176 43.9055C130.204 43.9333 130.227 43.9667 130.239 44.0081C130.25 44.0488 130.249 44.0908 130.241 44.134C130.223 44.2213 130.172 44.3052 130.131 44.3733L130.125 44.3831L130.124 44.3821C129.946 44.6054 129.735 44.7715 129.479 44.8772C129.247 44.9727 129.005 44.9711 128.766 44.8987L128.424 44.7815C128.355 44.7612 128.296 44.7473 128.244 44.7405C128.171 44.7416 128.041 44.7662 127.879 44.8333C127.657 44.9304 127.449 45.0563 127.254 45.2092C127.06 45.3622 126.864 45.5587 126.666 45.7981C126.597 45.8957 126.516 46.0181 126.449 46.1663C126.38 46.318 126.323 46.4841 126.282 46.679V46.6799C126.24 46.8613 126.212 47.0555 126.212 47.2483C126.212 47.4398 126.24 47.63 126.307 47.8196L126.421 48.1067C126.443 48.1638 126.462 48.2162 126.475 48.262C126.488 48.3068 126.499 48.352 126.499 48.3918C126.498 48.4283 126.489 48.4847 126.44 48.5178C126.391 48.5506 126.333 48.5386 126.29 48.5217C126.244 48.503 126.185 48.4647 126.119 48.4124C126.05 48.3587 125.966 48.285 125.866 48.1917L125.864 48.1897C125.798 48.1236 125.734 48.0278 125.688 47.9045C125.643 47.7851 125.614 47.6657 125.585 47.5364C125.556 47.4042 125.541 47.2868 125.527 47.1584L125.515 46.9817C125.515 46.9257 125.52 46.8737 125.528 46.8323C125.572 46.471 125.658 46.1501 125.79 45.8713C125.921 45.5958 126.068 45.3472 126.258 45.1125L126.26 45.1106C126.448 44.8939 126.653 44.6881 126.889 44.5256C127.121 44.3517 127.367 44.2065 127.624 44.0637L127.627 44.0627C127.648 44.0524 127.668 44.0417 127.688 44.0315C127.707 44.0214 127.727 44.0114 127.746 44.0022C127.782 43.9841 127.82 43.9657 127.858 43.9563C127.9 43.9457 127.932 43.9248 127.976 43.8958L127.985 43.8899L127.995 43.887C128.002 43.8844 128.008 43.8809 128.011 43.8772C128.013 43.8749 128.016 43.8717 128.019 43.8674C128.02 43.8667 128.02 43.8655 128.021 43.8645C128.024 43.8557 128.027 43.8449 128.027 43.8186C127.956 43.216 127.97 42.6953 128.072 42.2297C128.174 41.7606 128.394 41.2804 128.726 40.7747V40.7737C128.79 40.6771 128.864 40.6176 128.962 40.5979ZM105.301 42.2659C105.319 42.2699 105.339 42.2758 105.358 42.2844L105.414 42.3215L105.546 42.4709C105.671 42.6169 105.772 42.7566 105.849 42.8889H105.85C105.968 43.0662 106.063 43.2299 106.176 43.386L106.181 43.3928V43.3938C106.238 43.493 106.296 43.5949 106.34 43.6829C106.382 43.767 106.429 43.8584 106.459 43.9651L106.496 44.1135C106.504 44.1606 106.511 44.2084 106.517 44.2542L106.536 44.342C106.548 44.4321 106.545 44.5279 106.534 44.6272V44.6301C106.526 44.6839 106.514 44.7337 106.497 44.7756C106.481 44.8124 106.457 44.8473 106.424 44.8733L106.425 44.8743C106.424 44.876 106.42 44.8765 106.418 44.8782C106.416 44.8796 106.415 44.8826 106.414 44.884L106.413 44.8831C106.39 44.9017 106.359 44.9212 106.318 44.9163C106.27 44.9103 106.238 44.8766 106.219 44.8479L106.213 44.8401C106.115 44.6437 106.003 44.4598 105.888 44.2737C105.775 44.0906 105.665 43.9393 105.557 43.8313L105.553 43.8284V43.8274C105.441 43.7017 105.351 43.627 105.267 43.5911C105.222 43.5718 105.194 43.5669 105.173 43.5686C105.158 43.57 105.141 43.5761 105.119 43.5959C105.008 43.8331 104.897 44.0976 104.785 44.3635C104.67 44.6357 104.526 44.952 104.37 45.3079V45.3088C104.226 45.6239 104.082 45.9251 103.924 46.2268C103.763 46.5341 103.573 46.784 103.368 46.9895C103.158 47.1994 102.917 47.3344 102.647 47.4094C102.366 47.4875 102.06 47.4385 101.709 47.2922L101.693 47.2854L101.681 47.2717L101.453 47.0149V47.0139C101.437 46.9975 101.426 46.9779 101.418 46.9602C101.409 46.9398 101.401 46.9156 101.394 46.8899C101.38 46.8382 101.369 46.7729 101.362 46.6985L101.348 46.5657L101.471 46.6184C101.763 46.7432 102.006 46.7813 102.202 46.7551C102.4 46.7285 102.571 46.6496 102.716 46.5178C102.867 46.3805 103.004 46.2166 103.113 45.9983L103.282 45.6604C103.336 45.5438 103.389 45.4232 103.439 45.303C103.624 44.8192 103.795 44.3355 103.952 43.8518C104.108 43.3682 104.236 42.8978 104.35 42.4417L104.356 42.4202L104.371 42.4055C104.415 42.361 104.491 42.3275 104.585 42.3118C104.672 42.2973 104.773 42.283 104.873 42.2688C104.979 42.2537 105.084 42.2532 105.169 42.2532C105.216 42.2532 105.262 42.2571 105.301 42.2659ZM101.685 44.5657C101.732 44.5736 101.777 44.5873 101.812 44.6106L101.834 44.6252L101.843 44.6506C101.849 44.6688 101.856 44.6815 101.868 44.7102C101.877 44.7335 101.89 44.7673 101.89 44.8049C101.89 44.8705 101.873 44.9501 101.84 45.0178L101.842 45.0188L101.728 45.3186L101.726 45.3215C101.682 45.4251 101.622 45.5439 101.534 45.677C101.448 45.8052 101.361 45.9365 101.259 46.0676C101.155 46.2014 101.036 46.32 100.902 46.4241C100.771 46.5259 100.636 46.6162 100.499 46.677L100.499 46.678C100.412 46.7141 100.334 46.7433 100.268 46.7639C100.21 46.782 100.156 46.7938 100.111 46.7961L100.112 46.7971C100.073 46.8049 100.035 46.8088 100.003 46.8088C99.9878 46.8088 99.9711 46.8082 99.9555 46.8049C99.9467 46.8031 99.9338 46.7967 99.9194 46.7883L99.9184 46.7903C99.9032 46.7827 99.8533 46.7556 99.853 46.6965C99.853 46.6712 99.8638 46.651 99.8716 46.6389C99.8777 46.6294 99.885 46.621 99.8921 46.6135C99.9098 46.5823 99.927 46.563 99.9409 46.5491L99.9467 46.5432L99.9546 46.5383C100.062 46.4709 100.158 46.3896 100.241 46.3069C100.323 46.2242 100.393 46.1401 100.45 46.0696L100.455 46.0627L100.456 46.0637C100.456 46.0634 100.456 46.0623 100.457 46.0608C100.459 46.0585 100.462 46.0549 100.465 46.051C100.472 46.0432 100.48 46.0331 100.49 46.0208C100.509 45.9961 100.535 45.9631 100.564 45.927C100.589 45.8884 100.612 45.8489 100.636 45.8079C100.661 45.7654 100.687 45.72 100.717 45.675C100.772 45.5794 100.813 45.4966 100.855 45.4124C100.899 45.3242 100.924 45.2727 100.936 45.2366L100.938 45.2327C100.967 45.1612 100.994 45.0913 101.022 45.0081L101.024 45.0042C101.052 44.935 101.084 44.8524 101.134 44.7854C101.181 44.7236 101.227 44.6775 101.27 44.635L101.278 44.6262V44.6272C101.352 44.5719 101.427 44.554 101.511 44.554C101.578 44.554 101.636 44.5576 101.685 44.5657ZM127.161 40.3538C127.265 40.3712 127.352 40.424 127.418 40.4905C127.497 40.5694 127.512 40.6665 127.512 40.76C127.512 40.8276 127.499 40.8875 127.471 40.9417C127.443 40.9949 127.403 41.0388 127.356 41.0784L127.347 41.0852L127.337 41.0891C127.215 41.1435 127.076 41.2271 126.936 41.3254C126.797 41.423 126.643 41.5484 126.503 41.6877L126.5 41.6907C126.345 41.8318 126.204 41.973 126.063 42.1282C125.923 42.2821 125.797 42.4363 125.669 42.592L125.505 42.8401C125.348 43.0929 125.207 43.3609 125.091 43.6448L125.092 43.6458C125.035 43.8041 124.977 43.949 124.919 44.0793C124.877 44.2052 124.835 44.3328 124.792 44.4465C124.762 44.5639 124.719 44.681 124.661 44.7971C124.606 44.9069 124.545 45.042 124.471 45.1604C124.315 45.4304 124.185 45.6473 124.068 45.8079C123.951 45.9687 123.834 46.1007 123.731 46.2034L123.727 46.2073C123.611 46.3091 123.49 46.3997 123.368 46.4612C123.251 46.5193 123.092 46.5904 122.919 46.6624L122.92 46.6633C122.889 46.6769 122.853 46.6859 122.818 46.6829C122.78 46.6795 122.746 46.6619 122.721 46.6331C122.698 46.6063 122.685 46.5731 122.678 46.5413C122.671 46.509 122.667 46.4727 122.667 46.4338V46.428H122.668C122.683 46.2347 122.728 46.0134 122.815 45.7512V45.7502C122.903 45.5014 123.048 45.1963 123.249 44.8372L123.508 44.3958C123.587 44.2672 123.658 44.1556 123.723 44.0618L124.051 43.5491L124.053 43.5461C124.13 43.4303 124.17 43.2988 124.198 43.1467C124.211 43.0108 124.211 42.8613 124.198 42.7258L124.197 42.7249C124.183 42.5734 124.156 42.4351 124.114 42.2815C124.07 42.1214 124.041 41.9759 124.012 41.8333V41.8303C123.998 41.7449 123.984 41.6585 123.969 41.5579C123.954 41.4517 123.953 41.3521 123.987 41.2502C124.006 41.1725 124.046 41.1088 124.106 41.0627C124.167 41.016 124.243 40.9899 124.325 40.9817C124.397 40.9745 124.459 40.9709 124.511 40.9729C124.563 40.9749 124.611 40.9829 124.654 41.0042C124.746 41.05 124.828 41.1145 124.881 41.1995C124.913 41.2401 124.941 41.2871 124.964 41.3352L125.022 41.4788L125.023 41.4817C125.037 41.5317 125.052 41.5821 125.066 41.6321C125.08 41.6819 125.095 41.7317 125.109 41.7815L125.192 42.0461L125.195 42.053L125.213 42.0989C125.219 42.1087 125.225 42.1139 125.228 42.1165C125.231 42.1184 125.232 42.1193 125.233 42.1194C125.234 42.1195 125.239 42.1196 125.247 42.1165C125.287 42.0962 125.319 42.0799 125.344 42.0657C125.371 42.0503 125.386 42.0398 125.392 42.0334C125.518 41.8932 125.646 41.7507 125.774 41.6223C125.83 41.559 125.888 41.4921 125.945 41.4241C126.002 41.3565 126.06 41.288 126.118 41.2229C126.232 41.094 126.345 40.9672 126.443 40.8411L126.446 40.8362C126.562 40.7054 126.679 40.5892 126.81 40.4729L126.816 40.467C126.919 40.3932 127.042 40.3342 127.161 40.3538ZM114.53 40.2532C114.614 40.2402 114.695 40.2559 114.759 40.2688C114.834 40.2838 114.944 40.3147 115.04 40.3782H115.041C115.059 40.3885 115.076 40.3984 115.091 40.4075C115.107 40.4164 115.122 40.4255 115.136 40.4338C115.163 40.4498 115.193 40.4688 115.214 40.4905C115.227 40.5036 115.246 40.522 115.26 40.5413C115.274 40.56 115.294 40.5914 115.294 40.6311C115.294 40.6533 115.297 40.7034 115.256 40.7444L115.123 40.8792V40.7219C114.98 40.6973 114.875 40.713 114.797 40.7571L114.796 40.7561L114.433 40.9934L114.434 40.9944C114.382 41.0333 114.271 41.1299 114.101 41.3137L114.099 41.3157C114.058 41.3572 114.016 41.4029 113.973 41.4495C113.931 41.4956 113.886 41.5431 113.842 41.5872C113.76 41.6691 113.69 41.7507 113.622 41.8469L113.623 41.8479C113.408 42.163 113.18 42.4909 112.952 42.8333C112.724 43.174 112.511 43.5294 112.312 43.8987C112.111 44.2716 111.913 44.6259 111.743 44.9944L111.742 44.9963C111.558 45.3641 111.416 45.7191 111.289 46.0745L111.288 46.0735C111.275 46.1106 111.258 46.1544 111.231 46.2004C111.222 46.2286 111.209 46.2558 111.196 46.2795C111.182 46.3048 111.169 46.3268 111.156 46.3538C111.145 46.3789 111.134 46.4017 111.123 46.4202C111.111 46.4382 111.096 46.4593 111.074 46.4739C111.047 46.4913 111.012 46.4988 110.976 46.4836C110.948 46.4715 110.93 46.4488 110.92 46.4338L110.921 46.4329C110.909 46.4162 110.903 46.3996 110.901 46.3899C110.897 46.3753 110.895 46.3589 110.894 46.344C110.892 46.3141 110.892 46.2751 110.892 46.2336C110.892 46.1516 110.893 46.05 110.907 45.9475L110.916 45.7893C110.922 45.7372 110.929 45.6855 110.936 45.636C110.95 45.5411 110.95 45.4874 110.95 45.4612V45.4543L110.951 45.4475C111.009 45.1277 111.111 44.7649 111.27 44.3743C111.427 43.9879 111.6 43.5845 111.816 43.1809C112.032 42.7784 112.277 42.3753 112.536 42.0012C112.795 41.6117 113.084 41.2654 113.372 40.9631L113.57 40.7708C113.768 40.5934 113.97 40.4605 114.181 40.3606L114.19 40.3557C114.206 40.3504 114.222 40.3436 114.249 40.3313C114.273 40.3201 114.303 40.307 114.338 40.2981C114.396 40.2716 114.454 40.2573 114.514 40.2551V40.2542H114.516C114.52 40.254 114.525 40.2522 114.53 40.2522V40.2532ZM110.997 41.4426L111.006 41.4465L111.015 41.4524C111.061 41.4831 111.094 41.5248 111.116 41.5745L111.133 41.6272L111.135 41.635L111.138 41.7249C111.132 41.812 111.1 41.8932 111.056 41.9817L111.054 41.9846C110.856 42.339 110.685 42.6789 110.543 43.0042L110.544 43.0051C110.401 43.3486 110.258 43.6786 110.115 44.0071C109.972 44.3362 109.828 44.6522 109.67 44.968C109.512 45.2857 109.323 45.6039 109.106 45.9075L109.099 45.9182L109.098 45.9172C108.97 46.045 108.822 46.1115 108.642 46.1116C108.56 46.1116 108.485 46.0956 108.42 46.0588C108.356 46.0217 108.307 45.9661 108.272 45.8967C108.225 45.8032 108.18 45.6675 108.151 45.5198C108.122 45.3762 108.092 45.2154 108.078 45.054C108.063 44.8974 108.049 44.7544 108.035 44.6116C108.021 44.4707 108.007 44.3723 107.993 44.2883L107.991 44.2756H107.992C107.992 44.2541 107.989 44.2396 107.986 44.2297C107.983 44.2202 107.978 44.2122 107.972 44.1995C107.971 44.2012 107.969 44.2035 107.967 44.2053C107.964 44.2098 107.96 44.2161 107.956 44.2249L107.952 44.2317L107.948 44.2366C107.87 44.3401 107.802 44.4875 107.747 44.6956V44.6975C107.732 44.7493 107.712 44.8046 107.695 44.8577C107.677 44.9115 107.66 44.964 107.646 45.012C107.616 45.1174 107.571 45.2226 107.529 45.3215L107.527 45.3254C107.487 45.4054 107.425 45.4438 107.363 45.4749L107.355 45.4788L107.346 45.4807C107.304 45.4911 107.247 45.4915 107.205 45.4446C107.17 45.4055 107.163 45.3503 107.163 45.304V45.2913L107.242 45.304L107.164 45.2913C107.178 45.2056 107.192 45.1206 107.207 45.0217C107.221 44.9217 107.236 44.8185 107.265 44.6868V44.6858C107.321 44.4484 107.366 44.2381 107.427 44.1008C107.571 43.7137 107.729 43.3679 107.902 43.0647L107.903 43.0627C108.077 42.7723 108.268 42.5365 108.462 42.3723L108.47 42.3655L108.478 42.3616C108.526 42.3374 108.578 42.3196 108.627 42.3127C108.677 42.3061 108.731 42.3097 108.778 42.3333C108.878 42.3839 108.907 42.4993 108.891 42.6145V42.6165C108.885 42.6541 108.882 42.7069 108.878 42.7756L108.864 43.01C108.85 43.1919 108.849 43.3887 108.849 43.5891C108.849 43.7999 108.863 43.9834 108.877 44.1692C108.888 44.3105 108.907 44.4125 108.932 44.4846C108.961 44.4741 108.996 44.4564 109.035 44.4221C109.096 44.367 109.163 44.2815 109.232 44.1643L109.233 44.1624C109.304 44.0489 109.389 43.9065 109.459 43.7795C109.531 43.6365 109.619 43.4888 109.702 43.3372C109.858 43.0245 110.015 42.6975 110.157 42.385C110.229 42.2123 110.302 42.0659 110.375 41.9475C110.446 41.8206 110.504 41.719 110.563 41.6311C110.608 41.5569 110.676 41.4836 110.771 41.4592V41.4583C110.834 41.433 110.894 41.4255 110.946 41.4319L110.997 41.4426ZM135.18 42.1545C135.365 42.1238 135.575 42.139 135.794 42.1829L135.793 42.1838C136.026 42.2275 136.231 42.2855 136.421 42.3586H136.422C136.645 42.4476 136.837 42.5662 137.027 42.7122C137.217 42.8588 137.365 43.0067 137.498 43.1682C137.565 43.2507 137.621 43.337 137.669 43.4221L137.794 43.6711L137.796 43.677C137.871 43.8863 137.889 44.0588 137.857 44.219L137.856 44.2229C137.825 44.3451 137.765 44.481 137.708 44.6077L137.706 44.6135C137.632 44.7458 137.542 44.882 137.42 45.0032C137.302 45.1218 137.166 45.227 137.014 45.303L137.012 45.3049C136.846 45.3803 136.677 45.426 136.464 45.426C136.384 45.426 136.277 45.4102 136.171 45.3801C136.068 45.3505 135.951 45.3064 135.837 45.2639L135.83 45.261V45.26C135.772 45.2315 135.718 45.2042 135.65 45.177C135.609 45.1606 135.572 45.1408 135.54 45.1233C135.508 45.1052 135.48 45.0895 135.45 45.0774L135.438 45.0725L135.478 45.0042L135.438 45.0715C135.37 45.0308 135.317 45.0036 135.249 44.9768C135.206 44.9592 135.166 44.9407 135.13 44.9221C135.096 44.9702 135.067 45.0138 135.044 45.0481C135.014 45.0931 134.968 45.1546 134.92 45.2024C134.806 45.3449 134.69 45.4754 134.545 45.6057C134.408 45.7419 134.229 45.845 134.013 45.9319C133.999 45.9413 133.981 45.9514 133.958 45.9514C133.938 45.9514 133.912 45.943 133.893 45.9211C133.875 45.9007 133.871 45.8773 133.871 45.8616C133.871 45.8005 133.892 45.7427 133.927 45.6897C134.055 45.463 134.183 45.2346 134.311 45.0208C134.439 44.8078 134.551 44.596 134.681 44.3655C134.698 44.3197 134.726 44.2651 134.765 44.2112C134.8 44.1425 134.85 44.0929 134.909 44.0481L134.941 44.0227C134.976 44.0008 135.018 43.9894 135.061 43.9846C135.09 43.9814 135.122 43.9804 135.157 43.9827L135.265 43.9983L135.273 43.9993L135.28 44.0022C135.355 44.0322 135.436 44.0805 135.514 44.1194C135.592 44.1583 135.698 44.2043 135.788 44.2629C135.97 44.3613 136.133 44.4289 136.279 44.4553H136.28C136.419 44.4831 136.543 44.4963 136.651 44.4963C136.742 44.4963 136.838 44.4612 136.944 44.4094C136.967 44.3784 136.982 44.3195 136.949 44.2317C136.908 44.1223 136.852 43.9991 136.785 43.8762L136.656 43.6868C136.612 43.6262 136.568 43.5675 136.52 43.5129C136.42 43.3985 136.341 43.3212 136.282 43.2854L136.275 43.2815V43.2805C136.121 43.1689 135.954 43.0717 135.766 42.9563V42.9553C135.583 42.857 135.389 42.7604 135.197 42.6917V42.6926C135.166 42.6823 135.141 42.6667 135.124 42.6565C135.105 42.6455 135.094 42.639 135.082 42.635C135.04 42.621 134.988 42.6037 134.935 42.5686V42.5676C134.873 42.5337 134.827 42.4807 134.818 42.4143L134.811 42.3811C134.81 42.3695 134.811 42.3565 134.813 42.344C134.818 42.3192 134.83 42.298 134.844 42.2815C134.871 42.2511 134.912 42.2311 134.95 42.2161C135.029 42.1845 135.107 42.1686 135.177 42.1545H135.18ZM114.671 42.5891C114.722 42.5993 114.763 42.6316 114.792 42.6702L114.808 42.6917V42.7327C114.808 42.7414 114.807 42.7539 114.806 42.7688C114.804 42.7992 114.8 42.8418 114.792 42.8879L114.786 42.9309L114.747 42.9475C114.652 42.9881 114.585 43.0279 114.534 43.0667L114.522 43.0745C114.474 43.0984 114.423 43.1351 114.371 43.1877L114.363 43.1956C114.256 43.276 114.148 43.3832 114.053 43.5315C113.955 43.6858 113.873 43.8368 113.819 44.0129C113.764 44.1912 113.737 44.3675 113.75 44.5559C113.764 44.7436 113.804 44.9163 113.895 45.1018C113.963 45.1788 114.042 45.2125 114.151 45.2249C114.278 45.2248 114.378 45.2245 114.463 45.2004C114.485 45.1916 114.511 45.1852 114.54 45.1887C114.567 45.1922 114.59 45.2056 114.611 45.2219C114.634 45.2339 114.658 45.2528 114.67 45.2844C114.68 45.3098 114.679 45.3373 114.679 45.3469C114.679 45.3974 114.655 45.4439 114.643 45.468C114.62 45.5142 114.578 45.5522 114.53 45.5842L114.527 45.5862C114.46 45.6262 114.368 45.6871 114.279 45.7317C114.191 45.7758 114.069 45.822 113.974 45.8625L113.971 45.8645V45.8635C113.731 45.9535 113.504 45.9689 113.29 45.9241V45.925L113.288 45.9241C113.286 45.9239 113.285 45.9243 113.284 45.9241V45.9231C113.16 45.9033 113.032 45.8196 112.927 45.6995C112.813 45.5684 112.751 45.3913 112.75 45.176V44.9612C112.75 44.9157 112.752 44.8564 112.764 44.804C112.764 44.7482 112.782 44.6809 112.797 44.636C112.81 44.5975 112.823 44.5434 112.837 44.4739C112.844 44.4418 112.847 44.4134 112.851 44.385C112.854 44.3614 112.858 44.3253 112.873 44.2971C112.875 44.2918 112.878 44.2856 112.881 44.2708C112.885 44.2574 112.89 44.2342 112.902 44.2112C112.911 44.1925 112.92 44.1778 112.927 44.1672C112.934 44.1566 112.939 44.1493 112.944 44.1399C112.954 44.119 112.971 44.0983 112.981 44.0842C112.992 44.0678 113.004 44.0492 113.016 44.0256L113.018 44.0217C113.193 43.7157 113.399 43.4516 113.649 43.2307C113.835 43.0667 114.045 42.9108 114.285 42.7639L114.535 42.6204C114.575 42.5929 114.622 42.5794 114.671 42.5891ZM131.863 42.3958C132.066 42.3958 132.259 42.4105 132.439 42.4553C132.615 42.4994 132.781 42.5599 132.932 42.6506C133.079 42.7387 133.2 42.8284 133.305 42.9338C133.481 43.1102 133.617 43.3049 133.694 43.5315L133.75 43.7112C133.796 43.8974 133.807 44.1053 133.785 44.3264V44.3313L133.707 44.3186L133.784 44.3313C133.768 44.4226 133.738 44.5436 133.678 44.679C133.62 44.8097 133.548 44.9547 133.475 45.0852L133.472 45.0911C133.384 45.2228 133.28 45.3551 133.162 45.4739C133.039 45.596 132.917 45.6732 132.781 45.7336L132.768 45.7395V45.7375C132.751 45.7417 132.732 45.7458 132.712 45.7454C132.694 45.7448 132.659 45.74 132.634 45.7092C132.61 45.6781 132.612 45.6422 132.616 45.6243C132.619 45.6051 132.627 45.586 132.635 45.5696C132.66 45.5209 132.693 45.443 132.751 45.3665C132.824 45.2365 132.893 45.1113 132.934 45.0159L132.936 45.012C132.988 44.9075 133.014 44.8021 133.028 44.6946C133.041 44.587 133.041 44.4789 133.028 44.3713C133.015 44.2676 132.975 44.1457 132.918 44.0042C132.893 43.9414 132.855 43.876 132.802 43.8098C132.751 43.7466 132.686 43.6949 132.614 43.637C132.546 43.5828 132.465 43.5284 132.385 43.4885C132.297 43.4444 132.222 43.4077 132.15 43.3958L132.145 43.3948C131.964 43.3531 131.768 43.3248 131.558 43.3108C131.345 43.3108 131.122 43.3114 130.886 43.3391L130.885 43.3381C130.834 43.346 130.781 43.3441 130.735 43.3196C130.685 43.2926 130.654 43.2456 130.643 43.1907C130.622 43.0826 130.67 42.986 130.76 42.8811C130.837 42.7888 130.929 42.7127 131.019 42.6526C131.063 42.6235 131.103 42.5979 131.137 42.5764C131.172 42.5546 131.199 42.5372 131.219 42.5237L131.227 42.5178L131.237 42.5149C131.443 42.4414 131.652 42.3958 131.863 42.3958ZM116.466 43.2776C116.541 43.266 116.621 43.2763 116.704 43.301L116.788 43.3313L116.793 43.3333C116.892 43.3824 116.957 43.4485 117.014 43.5051C117.105 43.5964 117.123 43.6916 117.124 43.7893V43.7971L117.122 43.8049C117.077 44.0268 117.004 44.2341 116.901 44.4397C116.798 44.6451 116.68 44.8214 116.548 44.9827C116.415 45.1457 116.266 45.2792 116.105 45.3967C115.94 45.5169 115.772 45.5926 115.591 45.6379L115.582 45.6409H115.573C115.545 45.6408 115.513 45.6352 115.485 45.6165C115.456 45.5969 115.44 45.5681 115.431 45.5393C115.416 45.4878 115.424 45.4232 115.438 45.3586L115.441 45.3479L115.515 45.3762L115.442 45.3479C115.489 45.2222 115.555 45.0938 115.612 44.9094L115.614 44.9026L115.828 44.3616C115.899 44.1747 115.971 44.0017 116.043 43.843C116.078 43.7666 116.107 43.6967 116.131 43.6331C116.156 43.5702 116.179 43.5099 116.201 43.4583L116.204 43.4504L116.208 43.4436C116.276 43.3507 116.363 43.2938 116.466 43.2776ZM117.248 42.2102C117.597 42.2248 117.917 42.2832 118.193 42.3557C118.474 42.4297 118.726 42.5636 118.933 42.7258H118.934C119.488 43.1343 119.7 43.5608 119.608 44.0159L119.609 44.0168C119.6 44.0695 119.579 44.127 119.553 44.1858C119.527 44.2451 119.494 44.3113 119.458 44.3821C119.383 44.5331 119.277 44.6662 119.148 44.8098L119.149 44.8108C119.028 44.9618 118.878 45.0799 118.705 45.1956L118.706 45.1965C118.538 45.318 118.357 45.3928 118.152 45.4514L118.146 45.4534C118.11 45.4605 118.071 45.466 118.04 45.4631C118.024 45.4617 117.999 45.4577 117.977 45.4417C117.95 45.4219 117.937 45.3917 117.937 45.3616C117.937 45.3121 117.96 45.2536 117.994 45.2034L117.996 45.2004C118.236 44.8755 118.401 44.5841 118.483 44.2971C118.555 44.0462 118.551 43.8466 118.482 43.6829L118.446 43.6106C118.352 43.4238 118.219 43.2783 118.034 43.1721H118.033C117.84 43.0759 117.634 42.9937 117.388 42.9387L117.194 42.9094C116.995 42.8837 116.783 42.8684 116.573 42.8684C116.278 42.8684 115.997 42.8961 115.702 42.9524H115.701C115.659 42.96 115.62 42.9643 115.587 42.9622C115.558 42.9602 115.514 42.952 115.485 42.9163C115.451 42.8744 115.46 42.8254 115.471 42.7961C115.483 42.7665 115.503 42.7366 115.527 42.7092C115.613 42.5924 115.773 42.5014 115.958 42.4299L115.964 42.428L116.312 42.3313C116.422 42.3026 116.526 42.2768 116.627 42.2551L116.633 42.2542L116.939 42.2219C117.041 42.2147 117.143 42.2102 117.245 42.2102H117.248Z" fill="white"/>
</svg>
