<svg width="50" height="51" viewBox="0 0 50 51" fill="none" xmlns="http://www.w3.org/2000/svg">
<mask id="path-1-inside-1_3143_35903" fill="white">
<path d="M49.635 23.8401C49.9413 28.8938 48.6859 33.9194 46.0391 38.2355C43.3924 42.5515 39.4823 45.9491 34.839 47.9675C30.1958 49.9859 25.0442 50.5275 20.0827 49.5187C15.1213 48.51 10.5901 45.9998 7.10368 42.3285C3.61725 38.6573 1.34426 34.0026 0.592955 28.9957C-0.158345 23.9888 0.648387 18.872 2.90377 14.3391C5.15914 9.80625 8.75402 6.0767 13.2009 3.65623C17.6478 1.23575 22.7315 0.241468 27.7626 0.808212L27.6093 2.16966C22.8574 1.63437 18.0559 2.57346 13.8559 4.85957C9.65587 7.14568 6.26055 10.6682 4.13037 14.9494C2.0002 19.2306 1.23825 24.0634 1.94784 28.7924C2.65743 33.5213 4.80425 37.9176 8.09714 41.3851C11.39 44.8526 15.6697 47.2234 20.3557 48.1762C25.0417 49.1289 29.9074 48.6174 34.2928 46.711C38.6783 44.8047 42.3714 41.5957 44.8712 37.5192C47.3711 33.4428 48.5567 28.6962 48.2674 23.923L49.635 23.8401Z"/>
</mask>
<path d="M49.635 23.8401L51.1322 23.7494L51.0415 22.2521L49.5442 22.3429L49.635 23.8401ZM27.7626 0.808212L29.2532 0.976121L29.4211 -0.514451L27.9305 -0.68236L27.7626 0.808212ZM27.6093 2.16966L27.4414 3.66023L28.9319 3.82814L29.0998 2.33757L27.6093 2.16966ZM48.2674 23.923L48.1767 22.4258L46.6794 22.5165L46.7702 24.0138L48.2674 23.923ZM49.635 23.8401L48.1377 23.9309C48.4254 28.6774 47.2463 33.3976 44.7604 37.4513L46.0391 38.2355L47.3179 39.0196C50.1255 34.4413 51.4571 29.1102 51.1322 23.7494L49.635 23.8401ZM46.0391 38.2355L44.7604 37.4513C42.2745 41.505 38.6021 44.6961 34.241 46.5918L34.839 47.9675L35.437 49.3431C40.3625 47.202 44.5102 43.598 47.3179 39.0196L46.0391 38.2355ZM34.839 47.9675L34.241 46.5918C29.88 48.4876 25.0415 48.9962 20.3816 48.0488L20.0827 49.5187L19.7839 50.9887C25.0469 52.0587 30.5116 51.4842 35.437 49.3431L34.839 47.9675ZM20.0827 49.5187L20.3816 48.0488C15.7217 47.1014 11.4659 44.7438 8.19137 41.2956L7.10368 42.3285L6.01599 43.3615C9.71432 47.2559 14.5209 49.9186 19.7839 50.9887L20.0827 49.5187ZM7.10368 42.3285L8.19137 41.2956C4.91683 37.8475 2.78199 33.4757 2.07635 28.7731L0.592955 28.9957L-0.890439 29.2183C-0.093473 34.5295 2.31766 39.4671 6.01599 43.3615L7.10368 42.3285ZM0.592955 28.9957L2.07635 28.7731C1.37071 24.0705 2.12841 19.2647 4.24671 15.0073L2.90377 14.3391L1.56082 13.6709C-0.831635 18.4793 -1.6874 23.9071 -0.890439 29.2183L0.592955 28.9957ZM2.90377 14.3391L4.24671 15.0073C6.36501 10.7499 9.74141 7.24707 13.918 4.97371L13.2009 3.65623L12.4838 2.33875C7.76664 4.90634 3.95327 8.86256 1.56082 13.6709L2.90377 14.3391ZM13.2009 3.65623L13.918 4.97371C18.0946 2.70034 22.8694 1.76649 27.5947 2.29878L27.7626 0.808212L27.9305 -0.68236C22.5936 -1.28355 17.2009 -0.228836 12.4838 2.33875L13.2009 3.65623ZM27.7626 0.808212L26.2721 0.640303L26.1187 2.00175L27.6093 2.16966L29.0998 2.33757L29.2532 0.976121L27.7626 0.808212ZM27.6093 2.16966L27.7772 0.679085C22.7196 0.109356 17.6091 1.10887 13.1388 3.5421L13.8559 4.85957L14.573 6.17705C18.5028 4.03805 22.9953 3.15939 27.4414 3.66023L27.6093 2.16966ZM13.8559 4.85957L13.1388 3.5421C8.66849 5.97532 5.05468 9.7245 2.78743 14.2812L4.13037 14.9494L5.47332 15.6176C7.46642 11.6119 10.6433 8.31605 14.573 6.17705L13.8559 4.85957ZM4.13037 14.9494L2.78743 14.2812C0.520175 18.8379 -0.290811 23.9817 0.464446 29.015L1.94784 28.7924L3.43124 28.5698C2.7673 24.1451 3.48022 19.6233 5.47332 15.6176L4.13037 14.9494ZM1.94784 28.7924L0.464446 29.015C1.21971 34.0482 3.50466 38.7274 7.00945 42.418L8.09714 41.3851L9.18483 40.3522C6.10383 37.1078 4.09517 32.9944 3.43124 28.5698L1.94784 28.7924ZM8.09714 41.3851L7.00945 42.418C10.5142 46.1086 15.0693 48.6321 20.0568 49.6461L20.3557 48.1762L20.6546 46.7062C16.2701 45.8148 12.2658 43.5965 9.18483 40.3522L8.09714 41.3851ZM20.3557 48.1762L20.0568 49.6461C25.0444 50.6601 30.2232 50.1157 34.8908 48.0867L34.2928 46.711L33.6949 45.3354C29.5916 47.1191 25.039 47.5977 20.6546 46.7062L20.3557 48.1762ZM34.2928 46.711L34.8908 48.0867C39.5585 46.0576 43.4892 42.6421 46.1499 38.3034L44.8712 37.5192L43.5925 36.7351C41.2535 40.5492 37.7981 43.5517 33.6949 45.3354L34.2928 46.711ZM44.8712 37.5192L46.1499 38.3034C48.8106 33.9646 50.0726 28.9126 49.7647 23.8323L48.2674 23.923L46.7702 24.0138C47.0408 28.4798 45.9315 32.921 43.5925 36.7351L44.8712 37.5192ZM48.2674 23.923L48.3582 25.4203L49.7257 25.3374L49.635 23.8401L49.5442 22.3429L48.1767 22.4258L48.2674 23.923Z" fill="#E4E5E7" mask="url(#path-1-inside-1_3143_35903)"/>
<mask id="path-3-inside-2_3143_35903" fill="white">
<path d="M34.0778 2.38379C37.4328 3.71061 40.4561 5.75687 42.9348 8.37844C45.4135 11 47.2873 14.1331 48.4242 17.5572L47.2207 17.9568C46.1422 14.7087 44.3647 11.7365 42.0134 9.24968C39.662 6.76281 36.7941 4.8217 33.6115 3.56305L34.0778 2.38379Z"/>
</mask>
<path d="M34.0778 2.38379L34.6295 0.988909L33.2346 0.437265L32.683 1.83214L34.0778 2.38379ZM48.4242 17.5572L48.8969 18.9807L50.3205 18.5081L49.8478 17.0845L48.4242 17.5572ZM47.2207 17.9568L45.7971 18.4295L46.2698 19.853L47.6934 19.3803L47.2207 17.9568ZM33.6115 3.56305L32.2166 3.0114L31.665 4.40628L33.0598 4.95792L33.6115 3.56305ZM34.0778 2.38379L33.5262 3.77867C36.6773 5.02485 39.5168 6.94674 41.8449 9.40898L42.9348 8.37844L44.0248 7.3479C41.3954 4.567 38.1884 2.39638 34.6295 0.988909L34.0778 2.38379ZM42.9348 8.37844L41.8449 9.40898C44.1729 11.8712 45.9328 14.8139 47.0006 18.0298L48.4242 17.5572L49.8478 17.0845C48.6418 13.4523 46.6541 10.1288 44.0248 7.3479L42.9348 8.37844ZM48.4242 17.5572L47.9515 16.1336L46.748 16.5332L47.2207 17.9568L47.6934 19.3803L48.8969 18.9807L48.4242 17.5572ZM47.2207 17.9568L48.6443 17.4841C47.4967 14.0279 45.6053 10.8653 43.1033 8.21914L42.0134 9.24968L40.9234 10.2802C43.1241 12.6078 44.7877 15.3895 45.7971 18.4295L47.2207 17.9568ZM42.0134 9.24968L43.1033 8.21914C40.6013 5.57294 37.5496 3.50746 34.1631 2.16817L33.6115 3.56305L33.0598 4.95792C36.0385 6.13593 38.7227 7.95268 40.9234 10.2802L42.0134 9.24968ZM33.6115 3.56305L35.0064 4.11469L35.4727 2.93543L34.0778 2.38379L32.683 1.83214L32.2166 3.0114L33.6115 3.56305Z" fill="#FF003C" mask="url(#path-3-inside-2_3143_35903)"/>
<g clip-path="url(#clip0_3143_35903)">
<path d="M21.2802 16.0333V18.8233" stroke="#4F4F4F" stroke-width="1.4" stroke-miterlimit="10" stroke-linecap="round" stroke-linejoin="round"/>
<path d="M28.7201 16.0333V18.8233" stroke="#4F4F4F" stroke-width="1.4" stroke-miterlimit="10" stroke-linecap="round" stroke-linejoin="round"/>
<path d="M17.0951 22.627H32.9051" stroke="#4F4F4F" stroke-width="1.4" stroke-miterlimit="10" stroke-linecap="round" stroke-linejoin="round"/>
<path d="M29.1293 31.8433L30.05 32.764L32.0309 30.9319" stroke="#FF003C" stroke-width="1.4" stroke-linecap="round" stroke-linejoin="round"/>
<path d="M16.6301 26.3564V22.0783C16.6301 19.2883 18.0251 17.4283 21.2801 17.4283H28.7201C31.9751 17.4283 33.3701 19.2883 33.3701 22.0783V29.3881C32.6912 28.6162 31.6961 28.1233 30.5801 28.1233C28.5248 28.1233 26.8601 29.788 26.8601 31.8433C26.8601 32.5408 27.0554 33.2011 27.3995 33.7591C27.5948 34.0939 27.8459 34.3915 28.1342 34.6333H21.2801C18.0251 34.6333 16.6301 32.7733 16.6301 29.9833" stroke="#4F4F4F" stroke-width="1.4" stroke-miterlimit="10" stroke-linecap="round" stroke-linejoin="round"/>
<path d="M24.9959 26.9143H25.0043" stroke="#4F4F4F" stroke-width="1.86" stroke-linecap="round" stroke-linejoin="round"/>
<path d="M21.5538 26.9143H21.5622" stroke="#4F4F4F" stroke-width="1.86" stroke-linecap="round" stroke-linejoin="round"/>
<path d="M21.5538 29.7044H21.5622" stroke="#4F4F4F" stroke-width="1.86" stroke-linecap="round" stroke-linejoin="round"/>
</g>
<defs>
<clipPath id="clip0_3143_35903">
<rect width="20" height="20" fill="white" transform="translate(15 15.3334)"/>
</clipPath>
</defs>
</svg>
