<svg width="21" height="21" viewBox="0 0 21 21" fill="none" xmlns="http://www.w3.org/2000/svg">
<path d="M4.9324 4.92508H15.2102M4.9324 4.92508C4.9324 2.65457 6.77301 0.813965 9.04351 0.813965H11.0991C13.3696 0.813965 15.2102 2.65457 15.2102 4.92508M4.9324 4.92508C2.6619 4.92508 0.821289 6.76568 0.821289 9.03619V15.2029C0.821289 17.4734 2.6619 19.314 4.9324 19.314H15.2102C17.4807 19.314 19.3213 17.4734 19.3213 15.2029V9.03619C19.3213 6.76568 17.4807 4.92508 15.2102 4.92508" stroke="#626262" stroke-width="1.4" stroke-linecap="round" stroke-linejoin="round"/>
<path d="M6.98779 12.1066H10.0711M10.0711 12.1066H13.1545M10.0711 12.1066V9.02332M10.0711 12.1066V15.19" stroke="#FF003C" stroke-width="1.4" stroke-linecap="round" stroke-linejoin="round"/>
</svg>
