<svg width="146" height="55" viewBox="0 0 146 55" fill="none" xmlns="http://www.w3.org/2000/svg">
<path d="M3.78796 49.4971C3.78796 49.4971 53.0025 40.2568 103.307 44.6474" stroke="#FF003C" stroke-width="1.19489" stroke-miterlimit="10" stroke-linecap="round" stroke-linejoin="round"/>
<path d="M0.54499 37.7889C0.171935 37.4158 -0.000244141 36.928 -0.000244141 36.3828C-0.000244141 35.8088 0.171935 35.3497 0.54499 34.9766C0.918044 34.6036 1.37719 34.4027 1.92242 34.4027C2.46766 34.4027 2.9268 34.6036 3.29985 34.9766C3.67291 35.3497 3.84509 35.8375 3.84509 36.3828C3.84509 36.9567 3.67291 37.4158 3.29985 37.7889C2.9268 38.162 2.46766 38.3628 1.92242 38.3628C1.37719 38.3628 0.918044 38.162 0.54499 37.7889Z" fill="#221F1F"/>
<path d="M6.74365 32.8531L7.23149 31.5617H10.2446V38.1046H6.74365V32.8531ZM13.0282 30.4713C13.0282 29.8974 12.7412 29.6104 12.1673 29.6104H6.88713V27.0564H13.1717C14.2047 27.0564 15.0082 27.3434 15.6109 27.946C16.2135 28.5199 16.5292 29.4382 16.5292 30.6722V38.1333H13.0282V30.4713Z" fill="#221F1F"/>
<path d="M26.4006 38.1333L23.2153 33.1114L21.6944 38.1333H18.423L20.5752 31.5618L21.1778 29.9835L19.3987 27.0277H22.8709L24.3058 29.4095L25.4249 31.16L25.9702 29.3234L26.5154 27.0277H29.8442L27.4624 34.1731L30.0738 38.1046H26.4006V38.1333Z" fill="#221F1F"/>
<path d="M32.4842 29.2947L32.2833 27.0564H35.7556L35.9852 29.2947V38.1333H32.5129V29.2947H32.4842Z" fill="#221F1F"/>
<path d="M38.5393 35.5794H42.8151C43.389 35.5794 43.8482 35.3785 44.1639 34.948C44.4795 34.5176 44.623 34.0011 44.623 33.3984V31.8488C44.623 31.2462 44.4795 30.7297 44.1639 30.2992C43.8482 29.8688 43.389 29.6679 42.8151 29.6679H41.782L41.5238 31.0166C41.5238 31.074 41.4951 31.1601 41.4951 31.2749C41.4951 31.5045 41.5812 31.6766 41.7533 31.8201C41.9255 31.9636 42.1838 32.0784 42.5568 32.1645L42.069 34.2593C40.8064 34.2593 39.8881 34.0297 39.3141 33.5132C38.7402 32.9967 38.4532 32.308 38.4532 31.4471C38.4532 31.1888 38.4819 30.9305 38.5106 30.701L39.2854 27.1139H43.676C44.5943 27.1139 45.3978 27.3148 46.0578 27.7452C46.7178 28.1757 47.2344 28.7496 47.5787 29.4957C47.9231 30.2418 48.0953 31.1027 48.0953 32.0497V33.2262C48.0953 34.1732 47.9231 35.0341 47.5787 35.7802C47.2344 36.5263 46.7178 37.129 46.0578 37.5307C45.3978 37.9612 44.5943 38.162 43.676 38.162H38.5393V35.5794Z" fill="#221F1F"/>
<path d="M54.7526 30.4713C54.7526 29.8974 54.4657 29.6104 53.8917 29.6104H49.9603V27.0564H54.8674C55.9005 27.0564 56.704 27.3434 57.3066 27.946C57.9093 28.5199 58.2249 29.4382 58.2249 30.6722V38.1333H54.7526V30.4713Z" fill="#221F1F"/>
<path d="M60.8364 32.8531L61.3243 31.5617H64.3374V38.1046H60.8364V32.8531ZM67.1497 30.4713C67.1497 29.8974 66.8627 29.6104 66.2888 29.6104H61.0086V27.0564H67.2931C68.3262 27.0564 69.1297 27.3434 69.7323 27.946C70.335 28.5199 70.6506 29.4382 70.6506 30.6722V38.1333H67.1497V30.4713Z" fill="#221F1F"/>
<path d="M86.319 27.0565V29.8974L83.0189 38.1333H79.5466L82.8467 29.6104H77.5378V24.4164H80.6371V27.0565H86.319Z" fill="#221F1F"/>
<path d="M88.7294 29.2947L88.5286 27.0564H92.0008L92.2304 29.2947V32.3366L92.2017 33.5418L88.7294 34.1157V29.2947Z" fill="#221F1F"/>
<path d="M104.025 27.9173C104.627 28.4912 104.943 29.4095 104.943 30.6435V38.1046H101.471V30.4426C101.471 29.8687 101.184 29.5817 100.61 29.5817H98.4287V38.1046H94.9564V28.6921V27.0564H101.585C102.618 27.0564 103.422 27.3434 104.025 27.9173Z" fill="#221F1F"/>
<path d="M33.3739 17.0988C33.3739 17.2135 33.3452 17.357 33.2878 17.4718L33.0583 18.0744C32.9722 18.2753 32.8574 18.5049 32.6852 18.7631C32.513 19.0214 32.3409 19.2797 32.14 19.538C31.9391 19.7962 31.7095 20.0258 31.4513 20.2267C31.193 20.4275 30.9347 20.5997 30.6765 20.7145C30.3321 20.858 30.0738 20.9441 29.9304 20.9441C29.7869 20.9728 29.6721 20.9728 29.6434 20.9441C29.586 20.9154 29.586 20.8867 29.6434 20.8293C29.6721 20.7719 29.7008 20.7432 29.7295 20.7145C29.959 20.571 30.1599 20.3989 30.3321 20.2267C30.5043 20.0545 30.6478 19.8823 30.7625 19.7388C30.7912 19.7101 30.8773 19.5953 30.9921 19.4519C31.1069 19.2797 31.193 19.1075 31.3078 18.9353C31.4226 18.7345 31.5087 18.5623 31.5947 18.3901C31.6808 18.2179 31.7382 18.1031 31.7669 18.017C31.8243 17.8736 31.8817 17.7301 31.9391 17.5579C31.9965 17.4144 32.0539 17.2709 32.14 17.1561C32.2261 17.0414 32.3122 16.9553 32.3983 16.8692C32.513 16.7831 32.6278 16.7544 32.7713 16.7544C33.0296 16.7544 33.2018 16.7831 33.2878 16.8405C33.3165 16.9266 33.3739 17.0127 33.3739 17.0988Z" fill="#FF003C" stroke="#FF003C" stroke-width="0.142249" stroke-miterlimit="10"/>
<path d="M42.7002 16.7257C42.6715 16.9266 42.6141 17.0701 42.528 17.1275C42.4706 17.1849 42.4132 17.1849 42.3558 17.0988C42.1549 16.697 41.9254 16.324 41.6958 15.9509C41.4662 15.5779 41.2366 15.2622 41.0071 15.0326C40.7775 14.7744 40.5766 14.6022 40.3757 14.5161C40.1749 14.43 40.0314 14.43 39.8879 14.5735C39.6583 15.0613 39.4288 15.6066 39.1992 16.1518C38.9696 16.697 38.6826 17.3283 38.367 18.0458C38.08 18.6771 37.7931 19.2797 37.4774 19.8823C37.1617 20.485 36.7887 20.9728 36.3869 21.3746C35.9852 21.7763 35.526 22.0346 35.0095 22.1781C34.493 22.3215 33.919 22.2354 33.2303 21.9485L32.7712 21.4319C32.7138 21.3746 32.6564 21.1737 32.6277 20.8867C33.2303 21.145 33.7468 21.2311 34.1773 21.1737C34.6077 21.1163 34.9808 20.9441 35.2965 20.6571C35.6121 20.3702 35.8991 20.0258 36.1287 19.5667C36.3582 19.1362 36.5878 18.6484 36.7887 18.1605C37.1617 17.1849 37.5061 16.2092 37.8218 15.2335C38.1374 14.2578 38.3957 13.3108 38.6253 12.3925C38.6827 12.3352 38.7974 12.2778 38.9696 12.2491C39.1418 12.2204 39.3427 12.1917 39.5435 12.163C39.7444 12.1343 39.9453 12.1343 40.1175 12.1343C40.2897 12.1343 40.4331 12.163 40.4905 12.2204C40.8636 12.6221 41.1506 12.9952 41.3514 13.3395C41.581 13.6839 41.7819 14.0282 42.0114 14.3439C42.1262 14.5448 42.241 14.7457 42.3271 14.9178C42.4132 15.09 42.4993 15.2622 42.5567 15.4631C42.6141 15.6353 42.6428 15.8361 42.6715 16.037C42.7289 16.2379 42.7289 16.4675 42.7002 16.7257Z" fill="#FF003C" stroke="#FF003C" stroke-width="0.142249" stroke-miterlimit="10"/>
<path d="M51.7969 11.3595C51.3952 12.0769 51.0508 12.7656 50.7638 13.4256C50.4769 14.1143 50.1899 14.7744 49.903 15.4344C49.616 16.0944 49.329 16.7257 49.0134 17.3571C48.6977 17.9884 48.3246 18.6197 47.8942 19.2223C47.6646 19.4519 47.4064 19.5667 47.0907 19.5667C46.8037 19.5667 46.6029 19.4519 46.4881 19.2223C46.402 19.0501 46.3159 18.7919 46.2585 18.5049C46.2011 18.2179 46.1437 17.9023 46.115 17.5866C46.0863 17.271 46.0576 16.984 46.0289 16.697C46.0002 16.4101 45.9715 16.2092 45.9428 16.037C45.9428 15.9222 45.9141 15.8648 45.8854 15.8074C45.8567 15.75 45.8281 15.75 45.7707 15.7214C45.742 15.7214 45.6846 15.7213 45.6559 15.75C45.6272 15.7787 45.5985 15.8074 45.5698 15.8648C45.3976 16.0944 45.2541 16.4101 45.1393 16.8405C45.0819 17.0414 44.9959 17.271 44.9385 17.4718C44.8811 17.6727 44.795 17.8736 44.7089 18.0745C44.6515 18.1892 44.5654 18.2466 44.4506 18.304C44.3358 18.3327 44.2784 18.2753 44.2784 18.1032C44.3071 17.931 44.3358 17.7588 44.3645 17.5579C44.3932 17.3571 44.4219 17.1562 44.4793 16.8979C44.5941 16.4101 44.6802 16.0083 44.795 15.75C45.0819 14.9752 45.3976 14.2865 45.742 13.6839C46.0863 13.11 46.4594 12.6508 46.8324 12.3352C47.0046 12.2491 47.1768 12.2204 47.2916 12.2778C47.4064 12.3352 47.4638 12.4786 47.4351 12.6795C47.4064 12.8517 47.4064 13.1387 47.3777 13.483C47.349 13.8561 47.349 14.2578 47.349 14.6596C47.349 15.09 47.3777 15.4631 47.4064 15.8361C47.4351 16.2092 47.4925 16.4675 47.5785 16.6396C47.8368 16.6396 48.1238 16.3814 48.4107 15.8935C48.5542 15.664 48.7264 15.377 48.8699 15.1187C49.0134 14.8318 49.1855 14.5448 49.3577 14.2291C49.6734 13.5978 49.989 12.9378 50.276 12.3065C50.4195 11.9621 50.563 11.6751 50.7065 11.4456C50.8499 11.1873 50.9647 10.9864 51.0795 10.8142C51.1656 10.6708 51.2804 10.556 51.4239 10.5273C51.5674 10.4699 51.6821 10.4699 51.7682 10.4986C51.8543 10.556 51.9117 10.6421 51.9404 10.7569C51.9691 10.9577 51.9117 11.1299 51.7969 11.3595Z" fill="#FF003C" stroke="#FF003C" stroke-width="0.142249" stroke-miterlimit="10"/>
<path d="M60.1479 8.74807C59.8323 8.69067 59.574 8.71937 59.3731 8.83416L58.627 9.322C58.5122 9.40809 58.2827 9.60896 57.9383 9.98202C57.7661 10.1542 57.5939 10.3551 57.4218 10.5273C57.2496 10.6994 57.1061 10.8716 56.9626 11.0725C56.5322 11.7038 56.073 12.3638 55.6139 13.0525C55.1547 13.7413 54.7243 14.4587 54.3225 15.2048C53.9208 15.9509 53.519 16.6683 53.1747 17.4144C52.8016 18.1605 52.5147 18.8779 52.2564 19.5953C52.2277 19.6814 52.199 19.7675 52.1416 19.8536C52.1129 19.9397 52.0555 20.0258 51.9981 20.1406C51.912 20.3415 51.8546 20.3702 51.7973 20.2841C51.7686 20.2554 51.7686 20.1406 51.7686 19.9684C51.7686 19.7962 51.7686 19.5953 51.7973 19.3945C51.7973 19.1936 51.8259 18.9927 51.8546 18.7918C51.8833 18.591 51.8833 18.4762 51.8833 18.4188C51.9981 17.7875 52.199 17.0701 52.5147 16.2953C52.8303 15.5204 53.1747 14.7169 53.6051 13.9134C54.0356 13.1099 54.5234 12.3064 55.04 11.5603C55.5565 10.7855 56.1304 10.0968 56.7044 9.49418C57.2209 8.94894 57.7374 8.57589 58.2827 8.31762C58.3688 8.28892 58.4548 8.23153 58.5696 8.20283C58.6844 8.14544 58.7992 8.11674 58.914 8.11674C59.0575 8.08805 59.201 8.11674 59.3444 8.14544C59.4879 8.17414 59.6888 8.23153 59.861 8.34632C60.0045 8.43241 60.1192 8.4898 60.1766 8.54719C60.234 8.60459 60.2914 8.66198 60.2914 8.71937C60.2914 8.77676 60.2914 8.80546 60.2627 8.83416C60.2627 8.74807 60.2053 8.77676 60.1479 8.74807ZM59.287 13.2247C59.0862 13.3108 58.9427 13.3969 58.8279 13.483C58.7131 13.5404 58.5983 13.6265 58.4835 13.7413C58.254 13.9134 58.0244 14.143 57.8235 14.4587C57.6226 14.7743 57.4505 15.09 57.3357 15.4631C57.2209 15.8361 57.1635 16.2092 57.1922 16.6109C57.2209 17.0127 57.307 17.3857 57.5079 17.7875C57.68 17.9883 57.8809 18.0744 58.1392 18.1031C58.3975 18.1031 58.627 18.1031 58.8279 18.0457C58.8853 18.017 58.9427 18.017 59.0001 18.0744C59.0575 18.1031 59.0575 18.1318 59.0575 18.1892C59.0575 18.2466 59.0288 18.304 59.0001 18.3614C58.9714 18.4188 58.914 18.4762 58.8279 18.5336C58.6844 18.6197 58.5122 18.7345 58.3401 18.8205C58.1679 18.9066 57.9383 18.9927 57.7374 19.0788C57.2783 19.251 56.8478 19.2797 56.4461 19.1936C56.2452 19.1649 56.0156 19.0214 55.8148 18.7918C55.6139 18.5623 55.4991 18.2466 55.4991 17.8449C55.4991 17.6727 55.4991 17.5292 55.4991 17.4144C55.4991 17.2996 55.4991 17.1848 55.5278 17.0988C55.5278 17.0127 55.5565 16.8979 55.5852 16.8118C55.6139 16.7257 55.6426 16.6109 55.6713 16.4674C55.7 16.3239 55.7 16.2092 55.7287 16.1518C55.7574 16.0944 55.7574 16.037 55.7861 15.9796C55.8148 15.9222 55.8435 15.8935 55.8722 15.8361C55.9009 15.7787 55.9582 15.7213 56.0156 15.6065C56.36 15.0039 56.7617 14.4874 57.2496 14.0569C57.7374 13.6265 58.3114 13.2247 59.0001 12.8517C59.1149 12.7656 59.2296 12.7943 59.3157 12.9091C59.3157 12.9091 59.3157 13.0525 59.287 13.2247Z" fill="#FF003C" stroke="#FF003C" stroke-width="0.142249" stroke-miterlimit="10"/>
<path d="M63.9647 15.0614C63.8786 15.4918 63.7351 15.8935 63.5342 16.2953C63.3334 16.6971 63.1038 17.0414 62.8455 17.3571C62.5873 17.6727 62.3003 17.931 61.9846 18.1606C61.669 18.3901 61.3533 18.5336 61.009 18.6197C60.8655 18.6197 60.8368 18.5049 60.8942 18.2467C60.9803 18.0171 61.1237 17.7301 61.2385 17.3571C61.382 17.0127 61.5255 16.6397 61.669 16.2666C61.8125 15.8935 61.9559 15.5492 62.0994 15.2335C62.2429 14.9179 62.329 14.6596 62.4151 14.4587C62.6447 14.1431 62.9603 14.1144 63.3908 14.2865C63.5629 14.3726 63.6777 14.4874 63.7925 14.6022C63.936 14.7457 63.9647 14.8892 63.9647 15.0614ZM68.9579 15.4918C68.9292 15.664 68.8144 15.8935 68.6709 16.1805C68.5274 16.4675 68.3266 16.7257 68.0683 17.0127C67.8387 17.2997 67.5518 17.5293 67.2074 17.7588C66.8917 17.9884 66.5474 18.1319 66.1456 18.2467C66.0021 18.2754 65.9161 18.2754 65.9161 18.218C65.9161 18.1606 65.9448 18.0745 66.0021 17.9884C66.49 17.3284 66.8343 16.7257 67.0065 16.1231C67.1787 15.5205 67.15 15.0327 66.9204 14.6309C66.7196 14.2292 66.4326 13.9135 66.0308 13.6839C65.6291 13.483 65.1986 13.3109 64.6821 13.1961C64.1656 13.11 63.5916 13.0526 63.0177 13.0526C62.4151 13.0526 61.8412 13.11 61.2385 13.2248C60.9229 13.2822 60.8655 13.1961 61.0377 12.9952C61.1811 12.7943 61.4681 12.6221 61.8412 12.4787C62.329 12.3352 62.7594 12.2204 63.1612 12.1343C63.5629 12.0769 63.9647 12.0482 64.3664 12.0482C65.0552 12.0769 65.6865 12.1917 66.2317 12.3352C66.777 12.4787 67.2648 12.7369 67.6665 13.0526C68.757 13.8561 69.1301 14.6596 68.9579 15.4918Z" fill="#FF003C" stroke="#FF003C" stroke-width="0.142249" stroke-miterlimit="10"/>
<path d="M84.5687 9.49419C84.3105 9.60898 84.0235 9.78115 83.7365 9.98203C83.4496 10.1829 83.1339 10.4412 82.847 10.7281C82.5313 11.0151 82.2443 11.3021 81.9574 11.6177C81.6704 11.9334 81.4121 12.2491 81.1539 12.5647C80.6947 13.2247 80.293 13.9421 79.9773 14.717C79.8625 15.0326 79.7477 15.3196 79.6329 15.5778C79.5469 15.8361 79.4608 16.0944 79.3747 16.324C79.3173 16.5535 79.2312 16.7831 79.1164 17.0127C79.0016 17.2422 78.8868 17.5005 78.7433 17.7301C78.4277 18.2753 78.1694 18.7058 77.9398 19.0214C77.7103 19.3371 77.4807 19.5954 77.2798 19.7962C77.0503 19.9971 76.8207 20.1693 76.5911 20.2841C76.3615 20.3989 76.0459 20.5423 75.7015 20.6858C75.5006 20.7719 75.4146 20.6571 75.4146 20.3702C75.4432 19.9971 75.5293 19.5667 75.7015 19.0501C75.8737 18.5623 76.1607 17.9597 76.5624 17.2422C76.9355 16.5822 77.2511 16.0657 77.5094 15.6926C77.7677 15.2909 77.9972 14.9465 78.1694 14.6596C78.3416 14.4013 78.4277 14.1143 78.4851 13.7987C78.5138 13.5117 78.5138 13.196 78.4851 12.9091C78.4564 12.5934 78.399 12.3064 78.3129 11.9908C78.2268 11.6751 78.1694 11.3882 78.112 11.1012C78.0833 10.929 78.0546 10.7568 78.0259 10.556C77.9972 10.3551 77.9972 10.1829 78.0546 10.0107C78.112 9.75246 78.3129 9.60897 78.5999 9.58028C78.8868 9.55158 79.059 9.55158 79.1738 9.60897C79.346 9.69506 79.4895 9.80985 79.5755 9.95333C79.6903 10.0968 79.7764 10.2977 79.8338 10.4699C79.8912 10.6707 79.9486 10.8716 80.006 11.0725C80.0634 11.2734 80.1208 11.4742 80.1782 11.6177C80.2356 11.8186 80.3504 11.9047 80.4938 11.8473C80.666 11.7612 80.7808 11.7038 80.8382 11.6464C81.0965 11.3595 81.3547 11.0725 81.613 10.8142C81.8426 10.556 82.0721 10.269 82.3017 10.0107C82.5313 9.75246 82.7609 9.49419 82.9617 9.23592C83.1913 8.97765 83.4209 8.74808 83.6792 8.51851C83.88 8.37503 84.0809 8.28894 84.2531 8.31763C84.4253 8.34633 84.5687 8.43242 84.6835 8.5472C84.7983 8.66199 84.827 8.80547 84.827 8.97765C84.827 9.20722 84.7409 9.35071 84.5687 9.49419Z" fill="#FF003C" stroke="#FF003C" stroke-width="0.142249" stroke-miterlimit="10"/>
<path d="M90.2219 15.4056C90.308 15.4917 90.3367 15.5778 90.308 15.7213C90.2793 15.8648 90.1932 16.0083 90.1072 16.1518C89.7628 16.5822 89.3611 16.8979 88.8732 17.0987C88.3854 17.2996 87.8688 17.2709 87.3523 17.07C86.9792 16.9266 86.6923 16.8405 86.4627 16.8118C86.2905 16.8118 86.0036 16.8692 85.6592 17.0126C85.2001 17.2135 84.7696 17.4718 84.3679 17.7875C83.9661 18.1031 83.5644 18.5049 83.1626 18.9927C83.0191 19.1936 82.8469 19.4519 82.7035 19.7675C82.56 20.0832 82.4452 20.4275 82.3591 20.8293C82.273 21.2023 82.2156 21.6041 82.2156 22.0058C82.2156 22.4076 82.273 22.8093 82.4165 23.2111C82.4739 23.3546 82.56 23.5555 82.6461 23.785C82.7322 24.0146 82.7896 24.1868 82.7896 24.3016C82.7896 24.4163 82.7322 24.4737 82.5887 24.4163C82.4452 24.359 82.1869 24.1581 81.7852 23.785C81.6704 23.6702 81.5556 23.4981 81.4695 23.2685C81.3834 23.0389 81.326 22.8093 81.2686 22.5511C81.2112 22.2928 81.1825 22.0632 81.1538 21.805C81.1252 21.5754 81.1252 21.3458 81.1538 21.2023C81.2399 20.4849 81.4121 19.8536 81.6704 19.3084C81.9287 18.7631 82.2156 18.2753 82.5887 17.8162C82.9617 17.3857 83.3635 16.984 83.8226 16.6683C84.2818 16.3239 84.7696 16.037 85.2862 15.75C85.4583 15.6639 85.6018 15.5778 85.7166 15.5491C85.8314 15.5204 85.9175 15.463 86.0036 15.4056C86.0897 15.3769 86.1183 15.3196 86.147 15.2909C86.1757 15.2335 86.1757 15.1761 86.1757 15.1187C86.0323 13.9134 86.061 12.8804 86.2618 11.9621C86.4627 11.0438 86.8932 10.0968 87.5532 9.09241C87.668 8.92023 87.7827 8.83414 87.9262 8.80545C88.0697 8.77675 88.1845 8.80545 88.2993 8.86284C88.4141 8.92023 88.5002 9.03502 88.5576 9.14981C88.6149 9.26459 88.6436 9.40807 88.6149 9.55156C88.5002 9.78113 88.3854 10.1255 88.2419 10.5559C88.0984 10.9864 87.9836 11.4455 87.8975 11.9621C87.8114 12.4786 87.7827 12.9664 87.7827 13.483C87.8114 13.9995 87.9262 14.4587 88.1558 14.8604C88.4428 14.8317 88.701 14.8317 88.9306 14.8604C89.1602 14.8891 89.3324 14.9178 89.5045 14.9752C89.6767 15.0326 89.7915 15.09 89.9063 15.1761C90.0211 15.2335 90.1359 15.3196 90.2219 15.4056Z" fill="#FF003C" stroke="#FF003C" stroke-width="0.142249" stroke-miterlimit="10"/>
<path d="M97.4245 16.1231C97.3958 16.2953 97.3384 16.5249 97.2237 16.7831C97.1089 17.0414 96.9654 17.3284 96.8219 17.5866C96.6497 17.8449 96.4489 18.1032 96.2193 18.3327C95.9897 18.5623 95.7601 18.7058 95.5019 18.8206C95.3871 18.8493 95.3584 18.8206 95.4158 18.7058C95.4732 18.591 95.5306 18.4475 95.6453 18.304C95.7888 18.0458 95.9323 17.7875 96.0184 17.5866C96.1332 17.3571 96.1906 17.1275 96.2193 16.8979C96.248 16.6683 96.248 16.4388 96.2193 16.2092C96.1906 15.9796 96.1045 15.7214 95.9897 15.4344C95.9323 15.2909 95.8462 15.1474 95.7314 15.004C95.6167 14.8605 95.4732 14.7457 95.3297 14.6309C95.1862 14.5161 95.014 14.4013 94.8419 14.3152C94.6697 14.2291 94.4975 14.1431 94.3253 14.1144C93.9523 14.0283 93.5505 13.9709 93.1201 13.9422C92.6896 13.9422 92.2305 13.9422 91.7426 13.9996C91.5705 14.0283 91.4557 13.9709 91.427 13.8274C91.3983 13.6839 91.4557 13.5404 91.6278 13.3396C91.7713 13.1674 91.9435 13.0239 92.1157 12.9091C92.2879 12.7943 92.4313 12.7082 92.5174 12.6508C92.9192 12.5074 93.3209 12.4213 93.7227 12.4213C94.1244 12.4213 94.4975 12.45 94.8419 12.5361C95.1862 12.6221 95.5019 12.7369 95.7888 12.9091C96.0758 13.0813 96.3054 13.2535 96.5062 13.4543C96.8506 13.7987 97.1089 14.1718 97.2524 14.6022C97.4245 15.0326 97.4819 15.5492 97.4245 16.1231Z" fill="#FF003C" stroke="#FF003C" stroke-width="0.142249" stroke-miterlimit="10"/>
<path d="M105.603 15.8935C105.546 16.1231 105.431 16.3814 105.316 16.6397C105.173 16.8979 105 17.1562 104.771 17.3858C104.541 17.6153 104.283 17.8162 103.996 17.9597C103.68 18.1032 103.365 18.1893 102.963 18.1893C102.819 18.1893 102.619 18.1606 102.418 18.1032C102.217 18.0458 101.987 17.9597 101.758 17.8736C101.643 17.8162 101.528 17.7588 101.385 17.7014C101.241 17.644 101.126 17.5579 100.983 17.5005C100.839 17.4145 100.725 17.3571 100.581 17.2997C100.438 17.2423 100.323 17.1849 100.237 17.1275C100.122 17.271 100.036 17.4145 99.9785 17.5005C99.9211 17.5866 99.835 17.7014 99.7489 17.7875C99.5194 18.0745 99.2898 18.3327 99.0028 18.591C98.7445 18.8493 98.4002 19.0502 97.9697 19.2223C97.941 19.251 97.9124 19.251 97.9124 19.2223C97.9124 19.1362 97.941 19.0502 97.9984 18.9641C98.2567 18.5049 98.515 18.0458 98.7732 17.6153C99.0315 17.1849 99.2611 16.7544 99.5194 16.2953C99.548 16.2092 99.6054 16.0944 99.6915 15.9796C99.7489 15.8648 99.835 15.7788 99.9498 15.6927C100.036 15.6066 100.237 15.5779 100.524 15.6353C100.667 15.6927 100.811 15.7788 100.983 15.8648C101.155 15.9509 101.356 16.037 101.528 16.1518C101.901 16.3527 102.246 16.4962 102.561 16.5536C102.848 16.611 103.106 16.6397 103.336 16.6397C103.566 16.6397 103.795 16.5536 104.025 16.4388C104.139 16.324 104.168 16.1231 104.082 15.8935C103.996 15.664 103.881 15.4057 103.738 15.1474C103.566 14.8892 103.393 14.6309 103.193 14.4013C102.992 14.1718 102.819 13.9996 102.676 13.9135C102.36 13.6839 102.016 13.483 101.643 13.2535C101.27 13.0526 100.868 12.8517 100.466 12.7082C100.38 12.6795 100.323 12.6221 100.237 12.5934C100.151 12.5647 100.065 12.5361 99.9785 12.4787C99.8637 12.4213 99.8063 12.3352 99.8063 12.2491C99.7776 12.163 99.835 12.1056 99.9785 12.0482C100.122 11.9908 100.265 11.9621 100.409 11.9334C100.753 11.876 101.155 11.9047 101.586 11.9908C102.045 12.0769 102.446 12.1917 102.819 12.3352C103.25 12.5074 103.623 12.7369 103.996 13.0239C104.369 13.3109 104.656 13.5978 104.914 13.9135C105.173 14.2291 105.345 14.5735 105.488 14.8892C105.632 15.2909 105.66 15.6066 105.603 15.8935Z" fill="#FF003C" stroke="#FF003C" stroke-width="0.142249" stroke-miterlimit="10"/>
<path d="M139.091 26.999C138.718 26.339 138.718 25.5355 139.091 24.8755L145.261 14.2004C145.892 13.1099 145.089 11.7325 143.826 11.7325H131.458C130.712 11.7325 130.023 11.3307 129.65 10.6994L124.37 1.8035C124.054 1.25827 123.509 1 122.964 1C122.907 1 122.82 1 122.763 1V7.14105L122.964 6.768L126.436 12.5934C127.498 14.3726 129.421 15.463 131.487 15.463H140.182L135.849 22.9815C134.816 24.7894 134.816 27.0564 135.849 28.8643L140.182 36.3828H131.515C129.421 36.3828 127.469 37.502 126.436 39.3098L123.136 44.9917L122.763 44.3891V50.6737C122.907 50.7024 123.05 50.731 123.194 50.731C123.739 50.731 124.313 50.4441 124.628 49.8988L129.679 41.1751C130.052 40.5151 130.741 40.1133 131.515 40.1133H143.855C145.118 40.1133 145.921 38.7359 145.29 37.6454L139.091 26.999Z" fill="#FF003C" stroke="#FF003C" stroke-width="0.148045" stroke-miterlimit="3.864"/>
<path d="M130.052 7.14099H115.503C115.331 7.14099 115.187 7.28447 115.187 7.45665V7.51405C115.187 7.65753 115.302 7.77231 115.446 7.82971C115.79 10.0106 118.66 11.7611 121.242 12.2777L121.988 51.1614L123.022 51.8215V51.7928H123.423L124.399 12.2777C127.01 11.7611 129.88 9.98195 130.196 7.80101C130.31 7.74362 130.397 7.65753 130.397 7.54274V7.48535C130.368 7.28447 130.224 7.14099 130.052 7.14099Z" fill="#221F1F"/>
<path d="M128.703 21.6041C128.416 23.4981 126.034 25.3921 124.054 27.1426L124.169 21.9772C124.743 21.3459 125.145 20.7432 125.116 20.2267C125.087 18.9354 121.357 19.5954 120.582 19.7675C119.606 19.9971 117.368 20.3989 116.335 20.4276C115.503 20.4563 114.556 20.0545 113.781 19.6241C113.236 19.3945 112.777 19.1362 112.49 18.9354C112.088 18.9354 111.6 18.964 111.198 18.964C110.596 18.964 108.788 20.1119 108.788 20.1119L110.653 18.7632L108.73 17.3283C108.73 17.3283 110.51 18.5623 111.17 18.5623C111.629 18.5623 112.059 18.5336 112.404 18.4762C112.49 18.3901 112.604 18.304 112.748 18.2179C113.465 17.5005 115.503 16.697 116.306 16.697C117.684 16.697 118.975 16.9266 119.434 16.9266C119.893 16.9266 121.673 17.271 124.456 16.984C126.235 16.7257 129.191 18.5049 128.703 21.6041ZM121.845 45.537L121.759 41.4334C121.156 42.0934 120.64 42.8108 120.18 43.8439C119.09 46.3979 120.525 48.3206 121.673 50.9033C122.82 53.5146 122.103 54.6338 122.562 54.9208C123.021 55.2077 123.538 54.7486 123.71 52.9981C124.026 50.0137 121.73 47.7753 121.644 46.2544C121.644 46.0536 121.673 45.824 121.845 45.537ZM121.5 29.0078L121.414 23.8425C119.693 25.3921 117.913 27.1426 117.885 29.0078C117.799 33.1688 123.882 35.8089 123.796 38.3055C123.796 38.5064 123.796 38.6785 123.71 38.8794L123.595 43.27C124.858 41.9213 126.121 40.4003 126.178 38.5351C126.264 34.661 121.213 32.1644 121.213 30.3566C121.213 29.7539 121.357 29.3522 121.5 29.0078Z" fill="#CCCCCC"/>
<path d="M116.679 18.964C117.012 18.964 117.282 18.6942 117.282 18.3614C117.282 18.0286 117.012 17.7588 116.679 17.7588C116.347 17.7588 116.077 18.0286 116.077 18.3614C116.077 18.6942 116.347 18.964 116.679 18.964Z" fill="#221F1F"/>
</svg>
