<svg width="50" height="50" viewBox="0 0 50 50" fill="none" xmlns="http://www.w3.org/2000/svg">
<mask id="path-1-inside-1_3920_3160" fill="white">
<path d="M17.1815 1.59077C21.9837 -0.0130961 27.163 -0.101249 32.017 1.33826C36.871 2.77778 41.1648 5.6753 44.3162 9.6379C47.4676 13.6005 49.3241 18.4364 49.6338 23.4899C49.9436 28.5434 48.6917 33.5698 46.0478 37.8877C43.404 42.2055 39.4962 45.6058 34.8544 47.6273C30.2125 49.6489 25.0613 50.194 20.0991 49.1887C15.137 48.1833 10.6041 45.6762 7.11518 42.0073C3.62624 38.3384 1.35008 33.6853 0.595357 28.6789L1.9501 28.4747C2.66293 33.2031 4.81274 37.598 8.108 41.0632C11.4033 44.5284 15.6845 46.8964 20.3712 47.8459C25.0579 48.7954 29.9232 48.2806 34.3073 46.3712C38.6915 44.4619 42.3824 41.2504 44.8794 37.1722C47.3765 33.0941 48.5589 28.3467 48.2663 23.5737C47.9738 18.8008 46.2204 14.2333 43.2439 10.4907C40.2675 6.74805 36.212 4.01138 31.6274 2.65178C27.0429 1.29217 22.1511 1.37543 17.6155 2.89026L17.1815 1.59077Z"/>
</mask>
<path d="M17.1815 1.59077L16.7063 0.168023L15.2836 0.6432L15.7588 2.06595L17.1815 1.59077ZM0.595357 28.6789L0.371756 27.1957L-1.11148 27.4193L-0.887884 28.9025L0.595357 28.6789ZM1.9501 28.4747L3.43335 28.2511L3.20974 26.7678L1.7265 26.9914L1.9501 28.4747ZM17.6155 2.89026L16.1928 3.36544L16.668 4.78819L18.0907 4.31301L17.6155 2.89026ZM17.1815 1.59077L17.6567 3.01352C22.167 1.50713 27.0315 1.42433 31.5905 2.77636L32.017 1.33826L32.4435 -0.0998293C27.2945 -1.62683 21.8004 -1.53332 16.7063 0.168023L17.1815 1.59077ZM32.017 1.33826L31.5905 2.77636C36.1495 4.12838 40.1824 6.8498 43.1422 10.5716L44.3162 9.6379L45.4902 8.70424C42.1473 4.5008 37.5925 1.42717 32.4435 -0.0998293L32.017 1.33826ZM44.3162 9.6379L43.1422 10.5716C46.1021 14.2933 47.8457 18.8353 48.1366 23.5817L49.6338 23.4899L51.131 23.3981C50.8024 18.0375 48.8331 12.9077 45.4902 8.70424L44.3162 9.6379ZM49.6338 23.4899L48.1366 23.5817C48.4276 28.328 47.2517 33.049 44.7686 37.1044L46.0478 37.8877L47.3271 38.671C50.1316 34.0907 51.4596 28.7587 51.131 23.3981L49.6338 23.4899ZM46.0478 37.8877L44.7686 37.1044C42.2855 41.1598 38.6152 44.3534 34.2555 46.2521L34.8544 47.6273L35.4533 49.0026C40.3773 46.8581 44.5226 43.2512 47.3271 38.671L46.0478 37.8877ZM34.8544 47.6273L34.2555 46.2521C29.8957 48.1508 25.0575 48.6628 20.397 47.7185L20.0991 49.1887L19.8013 50.6588C25.065 51.7252 30.5294 51.147 35.4533 49.0026L34.8544 47.6273ZM20.0991 49.1887L20.397 47.7185C15.7364 46.7743 11.4791 44.4196 8.20216 40.9737L7.11518 42.0073L6.0282 43.041C9.72918 46.9329 14.5376 49.5924 19.8013 50.6588L20.0991 49.1887ZM7.11518 42.0073L8.20216 40.9737C4.92527 37.5278 2.78745 33.1574 2.0786 28.4553L0.595357 28.6789L-0.887884 28.9025C-0.0872945 34.2132 2.32721 39.1491 6.0282 43.041L7.11518 42.0073ZM0.595357 28.6789L0.818958 30.1622L2.17371 29.9579L1.9501 28.4747L1.7265 26.9914L0.371756 27.1957L0.595357 28.6789ZM1.9501 28.4747L0.466864 28.6983C1.22556 33.731 3.51371 38.4087 7.02102 42.0969L8.108 41.0632L9.19498 40.0295C6.11177 36.7873 4.1003 32.6753 3.43335 28.2511L1.9501 28.4747ZM8.108 41.0632L7.02102 42.0969C10.5283 45.7851 15.0851 48.3054 20.0733 49.316L20.3712 47.8459L20.669 46.3758C16.284 45.4873 12.2782 43.2718 9.19498 40.0295L8.108 41.0632ZM20.3712 47.8459L20.0733 49.316C25.0616 50.3267 30.24 49.7787 34.9063 47.7465L34.3073 46.3712L33.7084 44.996C29.6064 46.7825 25.0541 47.2642 20.669 46.3758L20.3712 47.8459ZM34.3073 46.3712L34.9063 47.7465C39.5726 45.7143 43.5009 42.2961 46.1587 37.9555L44.8794 37.1722L43.6002 36.389C41.2638 40.2047 37.8104 43.2095 33.7084 44.996L34.3073 46.3712ZM44.8794 37.1722L46.1587 37.9555C48.8164 33.615 50.0749 28.562 49.7635 23.482L48.2663 23.5737L46.7691 23.6655C47.0429 28.1313 45.9366 32.5732 43.6002 36.389L44.8794 37.1722ZM48.2663 23.5737L49.7635 23.482C49.4521 18.4019 47.5859 13.5405 44.4179 9.55702L43.2439 10.4907L42.0699 11.4243C44.8548 14.9261 46.4954 19.1997 46.7691 23.6655L48.2663 23.5737ZM43.2439 10.4907L44.4179 9.55702C41.2499 5.57355 36.9335 2.66077 32.0539 1.21368L31.6274 2.65178L31.201 4.08987C35.4905 5.36198 39.285 7.92255 42.0699 11.4243L43.2439 10.4907ZM31.6274 2.65178L32.0539 1.21368C27.1744 -0.23341 21.9678 -0.144793 17.1404 1.46752L17.6155 2.89026L18.0907 4.31301C22.3345 2.89566 26.9114 2.81776 31.201 4.08987L31.6274 2.65178ZM17.6155 2.89026L19.0383 2.41509L18.6043 1.11559L17.1815 1.59077L15.7588 2.06595L16.1928 3.36544L17.6155 2.89026Z" fill="#E4E5E7" mask="url(#path-1-inside-1_3920_3160)"/>
<mask id="path-3-inside-2_3920_3160" fill="white">
<path d="M0.482761 22.1711C0.896039 18.587 2.09008 15.1371 3.98079 12.0644C5.8715 8.99165 8.4129 6.37081 11.426 4.38644L12.1235 5.44552C9.26521 7.32793 6.8544 9.81411 5.06083 12.729C3.26727 15.6438 2.13458 18.9164 1.74254 22.3164L0.482761 22.1711Z"/>
</mask>
<path d="M0.482761 22.1711L-1.00736 21.9993L-1.17919 23.4894L0.310936 23.6612L0.482761 22.1711ZM11.426 4.38644L12.6787 3.56142L11.8537 2.30869L10.601 3.13371L11.426 4.38644ZM12.1235 5.44552L12.9485 6.69825L14.2012 5.87323L13.3762 4.6205L12.1235 5.44552ZM1.74254 22.3164L1.57072 23.8065L3.06084 23.9783L3.23267 22.4882L1.74254 22.3164ZM0.482761 22.1711L1.97289 22.3429C2.36105 18.9767 3.48252 15.7365 5.25832 12.8505L3.98079 12.0644L2.70327 11.2783C0.697643 14.5378 -0.568969 18.1974 -1.00736 21.9993L0.482761 22.1711ZM3.98079 12.0644L5.25832 12.8505C7.03412 9.96449 9.42106 7.50294 12.251 5.63917L11.426 4.38644L10.601 3.13371C7.40475 5.23869 4.70889 8.01882 2.70327 11.2783L3.98079 12.0644ZM11.426 4.38644L10.1733 5.21147L10.8708 6.27055L12.1235 5.44552L13.3762 4.6205L12.6787 3.56142L11.426 4.38644ZM12.1235 5.44552L11.2985 4.19279C8.25706 6.1958 5.69178 8.84127 3.78331 11.9429L5.06083 12.729L6.33836 13.515C8.01701 10.7869 10.2734 8.46006 12.9485 6.69825L12.1235 5.44552ZM5.06083 12.729L3.78331 11.9429C1.87484 15.0445 0.669576 18.5268 0.252415 22.1445L1.74254 22.3164L3.23267 22.4882C3.59959 19.3061 4.65971 16.2431 6.33836 13.515L5.06083 12.729ZM1.74254 22.3164L1.91437 20.8262L0.654587 20.681L0.482761 22.1711L0.310936 23.6612L1.57072 23.8065L1.74254 22.3164Z" fill="#FF003C" mask="url(#path-3-inside-2_3920_3160)"/>
<path d="M34.2057 22.5359C34.2057 19.8521 32.0047 17.2595 28.8947 17.2222C26.4163 17.2222 25 18.8657 25 18.8657C25 18.8657 23.5838 17.2222 21.1053 17.2222C17.9187 17.2222 15.7944 19.852 15.7944 22.5359C15.7944 26.9651 19.8808 30.1818 23.8133 32.459C24.5475 32.8842 25.4526 32.8842 26.1867 32.459C30.1193 30.1818 34.2057 26.9651 34.2057 22.5359Z" stroke="#626262" stroke-width="1.4" stroke-linejoin="round"/>
<path d="M31.6951 22.2435C31.4027 20.8777 30.3584 19.9696 29.1844 19.7329" stroke="#626262" stroke-width="1.4" stroke-linecap="round" stroke-linejoin="round"/>
<path d="M21.9167 25.3269H25M25 25.3269H28.0834M25 25.3269V22.2435M25 25.3269V28.4102" stroke="#FF003C" stroke-width="1.4" stroke-linecap="round" stroke-linejoin="round"/>
</svg>
