<svg width="71" height="70" viewBox="0 0 71 70" fill="none" xmlns="http://www.w3.org/2000/svg">
<mask id="path-1-inside-1_2107_2337" fill="white">
<path d="M68.2108 23.1241C69.9468 27.9059 70.6134 33.0102 70.1635 38.0774C69.7136 43.1447 68.1583 48.0517 65.607 52.4528L64.06 51.5561C66.4802 47.3811 67.9557 42.7262 68.3824 37.9193C68.8092 33.1124 68.1768 28.2704 66.53 23.7344L68.2108 23.1241Z"/>
</mask>
<path d="M68.2108 23.1241L70.0907 22.4416L69.4082 20.5617L67.5282 21.2442L68.2108 23.1241ZM65.607 52.4528L64.6039 54.1831L66.3342 55.1862L67.3373 53.4559L65.607 52.4528ZM64.06 51.5561L62.3297 50.553L61.3267 52.2833L63.057 53.2864L64.06 51.5561ZM66.53 23.7344L65.8475 21.8544L63.9675 22.5369L64.6501 24.4169L66.53 23.7344ZM68.2108 23.1241L66.3308 23.8067C67.9671 28.3136 68.5954 33.1245 68.1713 37.9006L70.1635 38.0774L72.1557 38.2543C72.6314 32.8958 71.9265 27.4982 70.0907 22.4416L68.2108 23.1241ZM70.1635 38.0774L68.1713 37.9006C67.7473 42.6766 66.2814 47.3016 63.8767 51.4498L65.607 52.4528L67.3373 53.4559C70.0352 48.8018 71.68 43.6128 72.1557 38.2543L70.1635 38.0774ZM65.607 52.4528L66.61 50.7225L65.063 49.8258L64.06 51.5561L63.057 53.2864L64.6039 54.1831L65.607 52.4528ZM64.06 51.5561L65.7903 52.5591C68.3571 48.1312 69.922 43.1943 70.3746 38.0962L68.3824 37.9193L66.3902 37.7425C65.9894 42.2581 64.6033 46.631 62.3297 50.553L64.06 51.5561ZM68.3824 37.9193L70.3746 38.0962C70.8272 32.9981 70.1566 27.8627 68.4099 23.0518L66.53 23.7344L64.6501 24.4169C66.1971 28.6781 66.7911 33.2268 66.3902 37.7425L68.3824 37.9193ZM66.53 23.7344L67.2125 25.6143L68.8933 25.0041L68.2108 23.1241L67.5282 21.2442L65.8475 21.8544L66.53 23.7344Z" fill="#FF003C" mask="url(#path-1-inside-1_2107_2337)"/>
<mask id="path-3-inside-2_2107_2337" fill="white">
<path d="M60.1073 59.6073C55.0593 64.6553 48.5809 68.0286 41.5507 69.2699C34.5205 70.5111 27.2786 69.5602 20.8072 66.5461C14.3357 63.532 8.94783 58.6006 5.37414 52.4205C1.80045 46.2404 0.21389 39.1108 0.829618 31.9985C1.44535 24.8861 4.23357 18.1352 8.81616 12.6613C13.3988 7.18732 19.554 3.25516 26.4472 1.39806C33.3403 -0.45905 40.6379 -0.151244 47.3501 2.27973C54.0624 4.71071 59.8647 9.14722 63.9701 14.9876L62.3896 16.0986C58.5121 10.5824 53.032 6.39213 46.6923 4.09611C40.3526 1.80008 33.4602 1.50936 26.9497 3.26337C20.4392 5.01739 14.6256 8.73126 10.2974 13.9014C5.96923 19.0714 3.33579 25.4476 2.75425 32.1651C2.1727 38.8826 3.67119 45.6165 7.04649 51.4535C10.4218 57.2905 15.5106 61.9482 21.6228 64.7949C27.735 67.6417 34.5749 68.5398 41.2148 67.3675C47.8547 66.1951 53.9735 63.009 58.7412 58.2413L60.1073 59.6073Z"/>
</mask>
<path d="M60.1073 59.6073L61.5215 61.0215L62.9357 59.6073L61.5215 58.1931L60.1073 59.6073ZM63.9701 14.9876L65.1202 16.6238L66.7564 15.4737L65.6063 13.8375L63.9701 14.9876ZM62.3896 16.0986L60.7534 17.2487L61.9035 18.8849L63.5397 17.7348L62.3896 16.0986ZM58.7412 58.2413L60.1555 56.827L58.7412 55.4128L57.327 56.827L58.7412 58.2413ZM60.1073 59.6073L58.693 58.1931C53.9352 62.9509 47.8291 66.1304 41.2029 67.3003L41.5507 69.2699L41.8984 71.2394C49.3327 69.9268 56.1834 66.3596 61.5215 61.0215L60.1073 59.6073ZM41.5507 69.2699L41.2029 67.3003C34.5768 68.4703 27.7511 67.574 21.6516 64.7331L20.8072 66.5461L19.9628 68.3591C26.8061 71.5465 34.4642 72.552 41.8984 71.2394L41.5507 69.2699ZM20.8072 66.5461L21.6516 64.7331C15.5521 61.8923 10.4738 57.2442 7.10551 51.4193L5.37414 52.4205L3.64277 53.4217C7.42184 59.9569 13.1194 65.1718 19.9628 68.3591L20.8072 66.5461ZM5.37414 52.4205L7.10551 51.4193C3.7372 45.5944 2.24182 38.8746 2.82216 32.171L0.829618 31.9985L-1.16293 31.826C-1.81404 39.3471 -0.136305 46.8865 3.64277 53.4217L5.37414 52.4205ZM0.829618 31.9985L2.82216 32.171C3.40251 25.4674 6.03048 19.1045 10.3497 13.9451L8.81616 12.6613L7.28261 11.3774C2.43665 17.166 -0.511816 24.3049 -1.16293 31.826L0.829618 31.9985ZM8.81616 12.6613L10.3497 13.9451C14.6689 8.78574 20.4704 5.07957 26.9674 3.3292L26.4472 1.39806L25.9269 -0.533088C18.6376 1.43075 12.1286 5.58889 7.28261 11.3774L8.81616 12.6613ZM26.4472 1.39806L26.9674 3.3292C33.4644 1.57882 40.3426 1.86894 46.6691 4.1602L47.3501 2.27973L48.0312 0.399259C40.9331 -2.17143 33.2162 -2.49692 25.9269 -0.533088L26.4472 1.39806ZM47.3501 2.27973L46.6691 4.1602C52.9956 6.45147 58.4644 10.633 62.3338 16.1378L63.9701 14.9876L65.6063 13.8375C61.265 7.66143 55.1292 2.96995 48.0312 0.399259L47.3501 2.27973ZM63.9701 14.9876L62.8199 13.3514L61.2395 14.4624L62.3896 16.0986L63.5397 17.7348L65.1202 16.6238L63.9701 14.9876ZM62.3896 16.0986L64.0258 14.9484C59.9124 9.09657 54.0988 4.65137 47.3734 2.21563L46.6923 4.09611L46.0113 5.97658C51.9652 8.13289 57.1119 12.0682 60.7534 17.2487L62.3896 16.0986ZM46.6923 4.09611L47.3734 2.21563C40.6479 -0.220104 33.3361 -0.528514 26.4294 1.33223L26.9497 3.26337L27.47 5.19452C33.5843 3.54723 40.0574 3.82026 46.0113 5.97658L46.6923 4.09611ZM26.9497 3.26337L26.4294 1.33223C19.5228 3.19297 13.3555 7.13283 8.76389 12.6175L10.2974 13.9014L11.831 15.1852C15.8958 10.3297 21.3556 6.8418 27.47 5.19452L26.9497 3.26337ZM10.2974 13.9014L8.76389 12.6175C4.17231 18.1022 1.37864 24.8663 0.761702 31.9926L2.75425 32.1651L4.74679 32.3376C5.29296 26.0288 7.76615 20.0407 11.831 15.1852L10.2974 13.9014ZM2.75425 32.1651L0.761702 31.9926C0.144768 39.1189 1.73443 46.2625 5.31512 52.4546L7.04649 51.4535L8.77786 50.4523C5.60794 44.9705 4.20064 38.6464 4.74679 32.3376L2.75425 32.1651ZM7.04649 51.4535L5.31512 52.4546C8.89582 58.6468 14.2943 63.5879 20.7784 66.6079L21.6228 64.7949L22.4672 62.9819C16.7269 60.3084 11.9478 55.9341 8.77786 50.4523L7.04649 51.4535ZM21.6228 64.7949L20.7784 66.6079C27.2625 69.628 34.5186 70.5807 41.5625 69.337L41.2148 67.3675L40.8671 65.3979C34.6312 66.499 28.2075 65.6555 22.4672 62.9819L21.6228 64.7949ZM41.2148 67.3675L41.5625 69.337C48.6065 68.0933 55.0976 64.7133 60.1555 59.6555L58.7412 58.2413L57.327 56.827C52.8494 61.3047 47.103 64.2969 40.8671 65.3979L41.2148 67.3675ZM58.7412 58.2413L57.327 59.6555L58.693 61.0215L60.1073 59.6073L61.5215 58.1931L60.1555 56.827L58.7412 58.2413Z" fill="#E4E5E7" mask="url(#path-3-inside-2_2107_2337)"/>
</svg>
