<svg width="50" height="51" viewBox="0 0 50 51" fill="none" xmlns="http://www.w3.org/2000/svg">
<mask id="path-1-inside-1_3143_35897" fill="white">
<path d="M43.4752 41.6971C40.1184 45.4872 35.677 48.1532 30.7536 49.3335C25.8302 50.5139 20.6628 50.1515 15.9523 48.2955C11.2419 46.4394 7.21615 43.1796 4.42116 38.9581C1.62616 34.7365 0.197117 29.7575 0.327817 24.6963C0.458522 19.635 2.14264 14.7364 5.1518 10.6647C8.16096 6.59305 12.3496 3.54536 17.1496 1.93494C21.9496 0.324523 27.1287 0.229301 31.9847 1.66218C36.8406 3.09507 41.1384 5.98673 44.2952 9.94503L43.2241 10.7993C40.2425 7.06071 36.1833 4.32957 31.5969 2.97623C27.0105 1.62288 22.1189 1.71282 17.5853 3.23384C13.0518 4.75486 9.09573 7.63337 6.25361 11.479C3.4115 15.3246 1.82086 19.9513 1.69742 24.7316C1.57397 29.5119 2.92369 34.2145 5.56353 38.2017C8.20337 42.1889 12.0056 45.2678 16.4546 47.0208C20.9036 48.7738 25.7841 49.1161 30.4342 48.0012C35.0843 46.8864 39.2791 44.3684 42.4496 40.7887L43.4752 41.6971Z"/>
</mask>
<path d="M43.4752 41.6971L44.5981 42.6917L45.5927 41.5688L44.4698 40.5742L43.4752 41.6971ZM44.2952 9.94503L45.2305 11.1177L46.4032 10.1825L45.4679 9.00976L44.2952 9.94503ZM43.2241 10.7993L42.0514 11.7345L42.9866 12.9073L44.1593 11.972L43.2241 10.7993ZM42.4496 40.7887L43.4442 39.6658L42.3213 38.6713L41.3267 39.7942L42.4496 40.7887ZM43.4752 41.6971L42.3524 40.7026C39.1995 44.2623 35.0281 46.7663 30.4039 47.8749L30.7536 49.3335L31.1033 50.7922C36.326 49.5401 41.0372 46.7121 44.5981 42.6917L43.4752 41.6971ZM30.7536 49.3335L30.4039 47.8749C25.7797 48.9835 20.9264 48.6431 16.5022 46.8999L15.9523 48.2955L15.4025 49.691C20.3992 51.6598 25.8806 52.0443 31.1033 50.7922L30.7536 49.3335ZM15.9523 48.2955L16.5022 46.8999C12.078 45.1567 8.297 42.095 5.67187 38.13L4.42116 38.9581L3.17044 39.7861C6.13531 44.2643 10.4057 47.7222 15.4025 49.691L15.9523 48.2955ZM4.42116 38.9581L5.67187 38.13C3.04675 34.165 1.70456 29.4886 1.82732 24.735L0.327817 24.6963L-1.17168 24.6575C-1.31033 30.0264 0.205571 35.308 3.17044 39.7861L4.42116 38.9581ZM0.327817 24.6963L1.82732 24.735C1.95008 19.9813 3.53184 15.3804 6.35811 11.5562L5.1518 10.6647L3.94549 9.77319C0.753445 14.0923 -1.03304 19.2887 -1.17168 24.6575L0.327817 24.6963ZM5.1518 10.6647L6.35811 11.5562C9.18439 7.73204 13.1184 4.86958 17.6267 3.35704L17.1496 1.93494L16.6724 0.512846C11.5807 2.22114 7.13754 5.45407 3.94549 9.77319L5.1518 10.6647ZM17.1496 1.93494L17.6267 3.35704C22.1349 1.8445 26.9993 1.75506 31.5601 3.10086L31.9847 1.66218L32.4092 0.223512C27.2581 -1.29646 21.7642 -1.19545 16.6724 0.512846L17.1496 1.93494ZM31.9847 1.66218L31.5601 3.10086C36.121 4.44666 40.1575 7.16257 43.1225 10.8803L44.2952 9.94503L45.4679 9.00976C42.1193 4.81089 37.5603 1.74348 32.4092 0.223512L31.9847 1.66218ZM44.2952 9.94503L43.3599 8.7723L42.2888 9.62655L43.2241 10.7993L44.1593 11.972L45.2305 11.1177L44.2952 9.94503ZM43.2241 10.7993L44.3968 9.864C41.2234 5.88487 36.903 2.97798 32.0214 1.53755L31.5969 2.97623L31.1724 4.4149C35.4637 5.68116 39.2617 8.23655 42.0514 11.7345L43.2241 10.7993ZM31.5969 2.97623L32.0214 1.53755C27.1399 0.0971245 21.9335 0.192847 17.1082 1.81175L17.5853 3.23384L18.0625 4.65594C22.3043 3.2328 26.8811 3.14864 31.1724 4.4149L31.5969 2.97623ZM17.5853 3.23384L17.1082 1.81175C12.2829 3.43064 8.0723 6.49438 5.0473 10.5875L6.25361 11.479L7.45992 12.3705C10.1191 8.77236 13.8206 6.07908 18.0625 4.65594L17.5853 3.23384ZM6.25361 11.479L5.0473 10.5875C2.0223 14.6806 0.329303 19.605 0.197916 24.6929L1.69742 24.7316L3.19692 24.7703C3.31242 20.2977 4.8007 15.9687 7.45992 12.3705L6.25361 11.479ZM1.69742 24.7316L0.197916 24.6929C0.0665254 29.7808 1.50309 34.786 4.31281 39.0298L5.56353 38.2017L6.81424 37.3737C4.34428 33.643 3.08141 29.243 3.19692 24.7703L1.69742 24.7316ZM5.56353 38.2017L4.31281 39.0298C7.12252 43.2736 11.1694 46.5506 15.9047 48.4164L16.4546 47.0208L17.0045 45.6252C12.8418 43.985 9.28421 41.1043 6.81424 37.3737L5.56353 38.2017ZM16.4546 47.0208L15.9047 48.4164C20.64 50.2821 25.8345 50.6465 30.7839 49.4599L30.4342 48.0012L30.0845 46.5426C25.7336 47.5856 21.1672 47.2654 17.0045 45.6252L16.4546 47.0208ZM30.4342 48.0012L30.7839 49.4599C35.7333 48.2733 40.198 45.5933 43.5725 41.7833L42.4496 40.7887L41.3267 39.7942C38.3602 43.1435 34.4354 45.4995 30.0845 46.5426L30.4342 48.0012ZM42.4496 40.7887L41.4551 41.9116L42.4807 42.82L43.4752 41.6971L44.4698 40.5742L43.4442 39.6658L42.4496 40.7887Z" fill="#E4E5E7" mask="url(#path-1-inside-1_3143_35897)"/>
<mask id="path-3-inside-2_3143_35897" fill="white">
<path d="M47.6466 15.5247C49.0808 18.8352 49.7716 22.4199 49.6706 26.0264C49.5696 29.6328 48.6791 33.1732 47.0618 36.3983L45.9282 35.8298C47.4624 32.7705 48.3071 29.412 48.403 25.9908C48.4988 22.5697 47.8434 19.1692 46.483 16.0288L47.6466 15.5247Z"/>
</mask>
<path d="M47.6466 15.5247L49.023 14.9284L48.4268 13.552L47.0504 14.1483L47.6466 15.5247ZM47.0618 36.3983L46.3894 37.7391L47.7303 38.4115L48.4027 37.0706L47.0618 36.3983ZM45.9282 35.8298L44.5874 35.1574L43.915 36.4983L45.2559 37.1707L45.9282 35.8298ZM46.483 16.0288L45.8867 14.6524L44.5103 15.2486L45.1066 16.625L46.483 16.0288ZM47.6466 15.5247L46.2702 16.1209C47.6172 19.2303 48.2661 22.5971 48.1712 25.9844L49.6706 26.0264L51.17 26.0684C51.2772 22.2428 50.5443 18.4402 49.023 14.9284L47.6466 15.5247ZM49.6706 26.0264L48.1712 25.9844C48.0763 29.3716 47.2399 32.6968 45.721 35.7259L47.0618 36.3983L48.4027 37.0706C50.1182 33.6496 51.0628 29.894 51.17 26.0684L49.6706 26.0264ZM47.0618 36.3983L47.7342 35.0574L46.6006 34.489L45.9282 35.8298L45.2559 37.1707L46.3894 37.7391L47.0618 36.3983ZM45.9282 35.8298L47.2691 36.5022C48.9015 33.2468 49.8004 29.6732 49.9024 26.0329L48.403 25.9908L46.9036 25.9488C46.8138 29.1508 46.0232 32.2941 44.5874 35.1574L45.9282 35.8298ZM48.403 25.9908L49.9024 26.0329C50.0044 22.3925 49.307 18.7741 47.8594 15.4325L46.483 16.0288L45.1066 16.625C46.3799 19.5643 46.9933 22.7469 46.9036 25.9488L48.403 25.9908ZM46.483 16.0288L47.0792 17.4052L48.2429 16.9011L47.6466 15.5247L47.0504 14.1483L45.8867 14.6524L46.483 16.0288Z" fill="#FF003C" mask="url(#path-3-inside-2_3143_35897)"/>
<g clip-path="url(#clip0_3143_35897)">
<path d="M16.675 20.7084C16.675 17.9334 18.0625 16.0834 21.3 16.0834H28.7C31.9375 16.0834 33.325 17.9334 33.325 20.7084V29.9584C33.325 32.7334 31.9375 34.5834 28.7 34.5834H21.3C18.0625 34.5834 16.675 32.7334 16.675 29.9584V24.4269" stroke="#4F4F4F" stroke-width="1.4" stroke-miterlimit="10" stroke-linecap="round" stroke-linejoin="round"/>
<path d="M27.3124 18.3959V20.2459C27.3124 21.2634 28.1449 22.0959 29.1624 22.0959H31.0124" stroke="#4F4F4F" stroke-width="1.4" stroke-miterlimit="10" stroke-linecap="round" stroke-linejoin="round"/>
<path d="M21.9167 27.4211H25M25 27.4211H28.0834M25 27.4211V24.3378M25 27.4211V30.5044" stroke="#FF003C" stroke-width="1.4" stroke-linecap="round" stroke-linejoin="round"/>
</g>
<defs>
<clipPath id="clip0_3143_35897">
<rect width="20" height="20" fill="white" transform="translate(15 15.3334)"/>
</clipPath>
</defs>
</svg>
