<svg width="50" height="51" viewBox="0 0 50 51" fill="none" xmlns="http://www.w3.org/2000/svg">
<mask id="path-1-inside-1_3143_35921" fill="white">
<path d="M8.63618 43.8089C4.8461 40.452 2.18012 36.0107 0.999773 31.0872C-0.180569 26.1638 0.181841 20.9965 2.03786 16.286C3.89388 11.5755 7.15369 7.54977 11.3752 4.75478C15.5968 1.95978 20.5758 0.530736 25.6371 0.661435C30.6983 0.79214 35.5969 2.47626 39.6686 5.48542C43.7403 8.49458 46.7879 12.6832 48.3984 17.4832C50.0088 22.2832 50.104 27.4623 48.6711 32.3183C47.2382 37.1742 44.3466 41.472 40.3883 44.6288L39.534 43.5577C43.2726 40.5761 46.0037 36.5169 47.3571 31.9305C48.7104 27.3441 48.6205 22.4525 47.0995 17.919C45.5784 13.3854 42.6999 9.42934 38.8543 6.58723C35.0087 3.74511 30.382 2.15448 25.6017 2.03103C20.8214 1.90759 16.1188 3.2573 12.1316 5.89715C8.14437 8.53699 5.06552 12.3392 3.31253 16.7882C1.55955 21.2372 1.21726 26.1177 2.33208 30.7678C3.4469 35.4179 5.96488 39.6127 9.54457 42.7833L8.63618 43.8089Z"/>
</mask>
<path d="M8.63618 43.8089L7.64164 44.9318L8.76453 45.9263L9.75907 44.8034L8.63618 43.8089ZM40.3883 44.6288L39.2156 45.5641L40.1508 46.7368L41.3235 45.8016L40.3883 44.6288ZM39.534 43.5577L38.5988 42.385L37.4261 43.3202L38.3613 44.493L39.534 43.5577ZM9.54457 42.7833L10.6675 43.7778L11.662 42.6549L10.5391 41.6604L9.54457 42.7833ZM8.63618 43.8089L9.63073 42.686C6.071 39.5331 3.56705 35.3617 2.45844 30.7375L0.999773 31.0872L-0.458893 31.4369C0.793188 36.6596 3.6212 41.3708 7.64164 44.9318L8.63618 43.8089ZM0.999773 31.0872L2.45844 30.7375C1.34984 26.1133 1.69022 21.26 3.43343 16.8358L2.03786 16.286L0.642281 15.7361C-1.32654 20.7329 -1.71097 26.2143 -0.458893 31.4369L0.999773 31.0872ZM2.03786 16.286L3.43343 16.8358C5.17664 12.4117 8.23834 8.63062 12.2033 6.00549L11.3752 4.75478L10.5472 3.50406C6.06904 6.46893 2.6111 10.7393 0.642281 15.7361L2.03786 16.286ZM11.3752 4.75478L12.2033 6.00549C16.1683 3.38037 20.8447 2.03818 25.5983 2.16094L25.6371 0.661435L25.6758 -0.838065C20.3069 -0.976708 15.0253 0.53919 10.5472 3.50406L11.3752 4.75478ZM25.6371 0.661435L25.5983 2.16094C30.352 2.2837 34.9529 3.86546 38.7771 6.69173L39.6686 5.48542L40.5601 4.27911C36.241 1.08706 31.0447 -0.699419 25.6758 -0.838065L25.6371 0.661435ZM39.6686 5.48542L38.7771 6.69173C42.6013 9.518 45.4637 13.452 46.9763 17.9603L48.3984 17.4832L49.8205 17.0061C48.1122 11.9143 44.8792 7.47116 40.5601 4.27911L39.6686 5.48542ZM48.3984 17.4832L46.9763 17.9603C48.4888 22.4686 48.5782 27.3329 47.2325 31.8938L48.6711 32.3183L50.1098 32.7428C51.6298 27.5917 51.5288 22.0978 49.8205 17.0061L48.3984 17.4832ZM48.6711 32.3183L47.2325 31.8938C45.8867 36.4546 43.1707 40.4912 39.453 43.4561L40.3883 44.6288L41.3235 45.8016C45.5224 42.4529 48.5898 37.8939 50.1098 32.7428L48.6711 32.3183ZM40.3883 44.6288L41.561 43.6936L40.7068 42.6224L39.534 43.5577L38.3613 44.493L39.2156 45.5641L40.3883 44.6288ZM39.534 43.5577L40.4693 44.7304C44.4484 41.557 47.3553 37.2366 48.7958 32.3551L47.3571 31.9305L45.9184 31.506C44.6522 35.7973 42.0968 39.5953 38.5988 42.385L39.534 43.5577ZM47.3571 31.9305L48.7958 32.3551C50.2362 27.4735 50.1405 22.2671 48.5216 17.4418L47.0995 17.919L45.6774 18.3961C47.1005 22.6379 47.1847 27.2148 45.9184 31.506L47.3571 31.9305ZM47.0995 17.919L48.5216 17.4418C46.9027 12.6166 43.8389 8.40592 39.7458 5.38092L38.8543 6.58723L37.9628 7.79354C41.561 10.4528 44.2542 14.1543 45.6774 18.3961L47.0995 17.919ZM38.8543 6.58723L39.7458 5.38092C35.6527 2.35592 30.7283 0.662921 25.6404 0.531534L25.6017 2.03103L25.563 3.53053C30.0357 3.64604 34.3646 5.13431 37.9628 7.79354L38.8543 6.58723ZM25.6017 2.03103L25.6404 0.531534C20.5525 0.400144 15.5473 1.83671 11.3035 4.64643L12.1316 5.89715L12.9596 7.14786C16.6903 4.6779 21.0903 3.41503 25.563 3.53053L25.6017 2.03103ZM12.1316 5.89715L11.3035 4.64643C7.05973 7.45614 3.78275 11.503 1.91696 16.2383L3.31253 16.7882L4.70811 17.3381C6.34829 13.1754 9.22902 9.61783 12.9596 7.14786L12.1316 5.89715ZM3.31253 16.7882L1.91696 16.2383C0.0511684 20.9736 -0.313148 26.1682 0.873409 31.1175L2.33208 30.7678L3.79074 30.4181C2.74766 26.0672 3.06793 21.5008 4.70811 17.3381L3.31253 16.7882ZM2.33208 30.7678L0.873409 31.1175C2.05997 36.0669 4.73999 40.5316 8.55003 43.9061L9.54457 42.7833L10.5391 41.6604C7.18978 38.6938 4.83383 34.769 3.79074 30.4181L2.33208 30.7678ZM9.54457 42.7833L8.42169 41.7887L7.5133 42.8143L8.63618 43.8089L9.75907 44.8034L10.6675 43.7778L9.54457 42.7833Z" fill="#E4E5E7" mask="url(#path-1-inside-1_3143_35921)"/>
<mask id="path-3-inside-2_3143_35921" fill="white">
<path d="M34.8086 47.9802C31.498 49.4144 27.9133 50.1052 24.3069 50.0042C20.7005 49.9032 17.1601 49.0127 13.935 47.3954L14.5034 46.2619C17.5628 47.796 20.9213 48.6407 24.3424 48.7366C27.7635 48.8324 31.1641 48.177 34.3045 46.8166L34.8086 47.9802Z"/>
</mask>
<path d="M34.8086 47.9802L35.4048 49.3566L36.7812 48.7604L36.185 47.384L34.8086 47.9802ZM13.935 47.3954L12.5941 46.7231L11.9218 48.0639L13.2626 48.7363L13.935 47.3954ZM14.5034 46.2619L15.1758 44.921L13.835 44.2486L13.1626 45.5895L14.5034 46.2619ZM34.3045 46.8166L35.6809 46.2203L35.0846 44.8439L33.7082 45.4402L34.3045 46.8166ZM34.8086 47.9802L34.2123 46.6038C31.103 47.9508 27.7361 48.5997 24.3489 48.5048L24.3069 50.0042L24.2649 51.5036C28.0905 51.6108 31.8931 50.8779 35.4048 49.3566L34.8086 47.9802ZM24.3069 50.0042L24.3489 48.5048C20.9617 48.4099 17.6364 47.5735 14.6074 46.0546L13.935 47.3954L13.2626 48.7363C16.6837 50.4518 20.4393 51.3964 24.2649 51.5036L24.3069 50.0042ZM13.935 47.3954L15.2759 48.0678L15.8443 46.9342L14.5034 46.2619L13.1626 45.5895L12.5941 46.7231L13.935 47.3954ZM14.5034 46.2619L13.8311 47.6027C17.0864 49.2351 20.6601 50.134 24.3004 50.236L24.3424 48.7366L24.3844 47.2372C21.1825 47.1475 18.0392 46.3568 15.1758 44.921L14.5034 46.2619ZM24.3424 48.7366L24.3004 50.236C27.9407 50.338 31.5591 49.6406 34.9008 48.193L34.3045 46.8166L33.7082 45.4402C30.769 46.7135 27.5863 47.3269 24.3844 47.2372L24.3424 48.7366ZM34.3045 46.8166L32.9281 47.4129L33.4322 48.5765L34.8086 47.9802L36.185 47.384L35.6809 46.2203L34.3045 46.8166Z" fill="#FF003C" mask="url(#path-3-inside-2_3143_35921)"/>
<g clip-path="url(#clip0_3143_35921)">
<path d="M16.72 20.7584C16.72 17.9834 18.1 16.1334 21.32 16.1334H28.68C31.9 16.1334 33.28 17.9834 33.28 20.7584V30.0084C33.28 32.7834 31.9 34.6334 28.68 34.6334H21.32C18.1 34.6334 16.72 32.7834 16.72 30.0084V24.4769" stroke="#4F4F4F" stroke-width="1.4" stroke-miterlimit="10" stroke-linecap="round" stroke-linejoin="round"/>
<path d="M23.4385 23.7721L26.5611 26.8947M21.565 28.7682C20.7027 27.9059 20.7027 26.5079 21.565 25.6456L25.3121 21.8985C26.1744 21.0363 27.5724 21.0363 28.4347 21.8985C29.2969 22.7608 29.2969 24.1588 28.4347 25.0211L24.6876 28.7682C23.8253 29.6305 22.4273 29.6305 21.565 28.7682Z" stroke="#FF003C" stroke-width="1.4" stroke-linecap="round" stroke-linejoin="round"/>
</g>
<defs>
<clipPath id="clip0_3143_35921">
<rect width="20" height="20" fill="white" transform="translate(15 15.3334)"/>
</clipPath>
</defs>
</svg>
