<svg width="15" height="15" viewBox="0 0 15 15" fill="none" xmlns="http://www.w3.org/2000/svg">
<g clip-path="url(#clip0_2465_2291)">
<path d="M12.4096 1.2258C12.8478 1.52984 13.2213 1.91774 13.5086 2.36708C13.7959 2.81641 13.9912 3.31825 14.0833 3.84356C14.2978 5.51721 13.2679 7.23378 13.2679 7.23378C12.2231 8.78813 10.9828 10.2016 9.57728 11.4394C8.34781 12.4122 6.95193 13.1538 5.45753 13.628C4.5858 13.976 3.63223 14.0654 2.71101 13.8855C1.89449 13.6613 1.17211 13.1797 0.651162 12.5122C0.529076 12.2085 0.442627 11.8917 0.393636 11.5681C0.344522 11.2841 0.344522 10.9938 0.393636 10.7098C0.436549 10.4094 3.52637 8.99326 3.82677 9.07908C4.12717 9.16491 4.38469 9.7228 4.72801 10.1949C5.07132 10.6669 5.20002 10.8815 5.54333 10.8815C5.88665 10.8815 7.38868 10.2807 8.80485 8.99326C9.61373 8.29189 10.2459 7.40976 10.6501 6.41841C10.6501 6.41841 10.3926 6.11801 10.0493 5.64595C9.78218 5.35325 9.59069 4.99967 9.49147 4.61601C9.49147 4.40144 10.6931 1.35454 10.9935 1.2258C11.4632 1.15976 11.9399 1.15976 12.4096 1.2258Z" fill="#FF003C"/>
</g>
<defs>
<clipPath id="clip0_2465_2291">
<rect width="14" height="14" fill="white" transform="translate(0.234741 0.576172)"/>
</clipPath>
</defs>
</svg>
