<svg width="21" height="21" viewBox="0 0 21 21" fill="none" xmlns="http://www.w3.org/2000/svg">
<g clip-path="url(#clip0_2042_3162)">
<path d="M6.17627 11.5245H7.6368L9.09732 13.9587L11.0447 9.09027L12.5052 12.0113C12.5052 12.0113 13.3954 12.0113 13.9657 12.0113" stroke="#FF003C" stroke-width="1.4" stroke-linecap="round" stroke-linejoin="round"/>
<path d="M9.10909 0.813965H8.22109C7.29609 0.813965 6.37109 0.813965 6.37109 2.66396C6.37109 4.51396 7.29609 4.51396 8.22109 4.51396H11.9211C13.7711 4.51396 13.7711 3.58896 13.7711 2.66396C13.7711 0.813965 12.8461 0.813965 11.9211 0.813965" stroke="#626262" stroke-width="1.4" stroke-miterlimit="10" stroke-linecap="round" stroke-linejoin="round"/>
<path d="M1.74609 6.84036C1.74609 4.34564 3.13359 2.6825 6.37107 2.6825M1.74609 10.1833V15.1561C1.74609 17.6508 3.13359 19.314 6.37107 19.314H13.771C17.0085 19.314 18.396 17.6508 18.396 15.1561V6.84036C18.396 4.40681 17.0757 2.76455 14.0058 2.68548" stroke="#626262" stroke-width="1.4" stroke-miterlimit="10" stroke-linecap="round" stroke-linejoin="round"/>
</g>
<defs>
<clipPath id="clip0_2042_3162">
<rect width="20" height="20" fill="white" transform="translate(0.0712891 0.0639648)"/>
</clipPath>
</defs>
</svg>
