<svg xmlns="http://www.w3.org/2000/svg" width="14" height="15" viewBox="0 0 14 15" fill="none">
  <path d="M4.20581 9.66334V10.096C4.20581 12.2466 5.94916 13.99 8.0998 13.99C10.2504 13.99 11.9938 12.2466 11.9938 10.096V7.93268" stroke="#626262" stroke-width="0.995762" stroke-linecap="round" stroke-linejoin="round"/>
  <path d="M5.93637 1.87543H6.8017C7.27937 1.87543 7.66703 2.2631 7.66703 2.74076V6.20208C7.66703 8.11389 6.11751 9.66341 4.20571 9.66341C2.2939 9.66341 0.744385 8.11389 0.744385 6.20208V2.74076C0.744385 2.2631 1.13205 1.87543 1.60972 1.87543H2.47505" stroke="#626262" stroke-width="0.995762" stroke-linecap="round" stroke-linejoin="round"/>
  <path d="M2.47497 1.01001V3.17334" stroke="#626262" stroke-width="0.995762" stroke-linecap="round" stroke-linejoin="round"/>
  <path d="M5.93639 1.01001V3.17334" stroke="#626262" stroke-width="0.995762" stroke-linecap="round" stroke-linejoin="round"/>
  <path fill-rule="evenodd" clip-rule="evenodd" d="M11.9936 7.93264C12.9495 7.93264 13.7243 7.15788 13.7243 6.20198C13.7243 5.24607 12.9495 4.47131 11.9936 4.47131C11.0377 4.47131 10.2629 5.24607 10.2629 6.20198C10.2629 7.15788 11.0377 7.93264 11.9936 7.93264Z" fill="#FF003C"/>
</svg>
