<svg width="81" height="59" viewBox="0 0 81 59" fill="none" xmlns="http://www.w3.org/2000/svg">
<g filter="url(#filter0_dd_2051_1763)">
<circle cx="40.0713" cy="26.064" r="24.5" fill="white"/>
</g>
<g clip-path="url(#clip0_2051_1763)">
<mask id="path-2-inside-1_2051_1763" fill="white">
<path d="M41.5643 50.699C36.5106 51.0053 31.485 49.7499 27.169 47.1032C22.8529 44.4564 19.4553 40.5463 17.4369 35.9031C15.4185 31.2598 14.8769 26.1082 15.8857 21.1468C16.8944 16.1853 19.4046 11.6541 23.0759 8.1677C26.7472 4.68127 31.4018 2.40828 36.4087 1.65698C41.4156 0.90568 46.5325 1.71241 51.0653 3.96779C55.5982 6.22317 59.3277 9.81805 61.7482 14.2649C64.1687 18.7118 65.163 23.7955 64.5962 28.8267L63.2348 28.6733C63.77 23.9214 62.831 19.1199 60.5448 14.9199C58.2587 10.7199 54.7362 7.32458 50.455 5.1944C46.1738 3.06422 41.341 2.30227 36.6121 3.01187C31.8831 3.72146 27.4868 5.86827 24.0193 9.16116C20.5518 12.4541 18.181 16.7337 17.2283 21.4197C16.2755 26.1057 16.787 30.9714 18.6934 35.3569C20.5998 39.7423 23.8088 43.4354 27.8852 45.9352C31.9616 48.4351 36.7083 49.6207 41.4814 49.3314L41.5643 50.699Z"/>
</mask>
<path d="M41.5643 50.699L41.655 52.1962L43.1523 52.1055L43.0615 50.6082L41.5643 50.699ZM64.5962 28.8267L64.4283 30.3172L65.9189 30.4851L66.0868 28.9946L64.5962 28.8267ZM63.2348 28.6733L61.7442 28.5054L61.5763 29.996L63.0669 30.1639L63.2348 28.6733ZM41.4814 49.3314L42.9786 49.2407L42.8879 47.7434L41.3906 47.8342L41.4814 49.3314ZM41.5643 50.699L41.4735 49.2017C36.727 49.4894 32.0068 48.3104 27.9531 45.8245L27.169 47.1032L26.3848 48.3819C30.9631 51.1895 36.2942 52.5212 41.655 52.1962L41.5643 50.699ZM27.169 47.1032L27.9531 45.8245C23.8994 43.3386 20.7083 39.6661 18.8126 35.3051L17.4369 35.9031L16.0613 36.5011C18.2024 41.4265 21.8065 45.5742 26.3848 48.3819L27.169 47.1032ZM17.4369 35.9031L18.8126 35.3051C16.9168 30.9441 16.4082 26.1055 17.3556 21.4456L15.8857 21.1468L14.4157 20.8479C13.3457 26.1109 13.9202 31.5756 16.0613 36.5011L17.4369 35.9031ZM15.8857 21.1468L17.3556 21.4456C18.303 16.7857 20.6607 12.5299 24.1088 9.25539L23.0759 8.1677L22.0429 7.08001C18.1485 10.7783 15.4858 15.5849 14.4157 20.8479L15.8857 21.1468ZM23.0759 8.1677L24.1088 9.25539C27.5569 5.98085 31.9287 3.84601 36.6313 3.14037L36.4087 1.65698L36.1862 0.173585C30.875 0.970551 25.9374 3.38168 22.0429 7.08001L23.0759 8.1677ZM36.4087 1.65698L36.6313 3.14037C41.3339 2.43473 46.1398 3.19244 50.3971 5.31074L51.0653 3.96779L51.7335 2.62484C46.9252 0.23239 41.4974 -0.623377 36.1862 0.173585L36.4087 1.65698ZM51.0653 3.96779L50.3971 5.31074C54.6545 7.42904 58.1573 10.8054 60.4307 14.982L61.7482 14.2649L63.0657 13.5478C60.4981 8.83067 56.5419 5.0173 51.7335 2.62484L51.0653 3.96779ZM61.7482 14.2649L60.4307 14.982C62.7041 19.1587 63.6379 23.9334 63.1056 28.6587L64.5962 28.8267L66.0868 28.9946C66.688 23.6577 65.6333 18.265 63.0657 13.5478L61.7482 14.2649ZM64.5962 28.8267L64.7641 27.3361L63.4027 27.1827L63.2348 28.6733L63.0669 30.1639L64.4283 30.3172L64.5962 28.8267ZM63.2348 28.6733L64.7253 28.8412C65.2951 23.7836 64.2955 18.6731 61.8623 14.2028L60.5448 14.9199L59.2274 15.637C61.3664 19.5668 62.245 24.0593 61.7442 28.5054L63.2348 28.6733ZM60.5448 14.9199L61.8623 14.2028C59.4291 9.73251 55.6799 6.1187 51.1232 3.85145L50.455 5.1944L49.7868 6.53735C53.7925 8.53045 57.0884 11.7073 59.2274 15.637L60.5448 14.9199ZM50.455 5.1944L51.1232 3.85145C46.5665 1.5842 41.4227 0.773214 36.3895 1.52847L36.6121 3.01187L36.8346 4.49526C41.2593 3.83132 45.7811 4.54425 49.7868 6.53735L50.455 5.1944ZM36.6121 3.01187L36.3895 1.52847C31.3562 2.28373 26.677 4.56868 22.9864 8.07348L24.0193 9.16116L25.0522 10.2489C28.2966 7.16785 32.41 5.15919 36.8346 4.49526L36.6121 3.01187ZM24.0193 9.16116L22.9864 8.07348C19.2958 11.5783 16.7724 16.1333 15.7583 21.1209L17.2283 21.4197L18.6982 21.7186C19.5896 17.3341 21.8079 13.3298 25.0522 10.2489L24.0193 9.16116ZM17.2283 21.4197L15.7583 21.1209C14.7443 26.1084 15.2887 31.2872 17.3178 35.9549L18.6934 35.3569L20.069 34.7589C18.2854 30.6556 17.8068 26.1031 18.6982 21.7186L17.2283 21.4197ZM18.6934 35.3569L17.3178 35.9549C19.3468 40.6225 22.7623 44.5532 27.101 47.2139L27.8852 45.9352L28.6693 44.6565C24.8552 42.3176 21.8527 38.8621 20.069 34.7589L18.6934 35.3569ZM27.8852 45.9352L27.101 47.2139C31.4398 49.8747 36.4919 51.1366 41.5721 50.8287L41.4814 49.3314L41.3906 47.8342C36.9247 48.1049 32.4835 46.9955 28.6693 44.6565L27.8852 45.9352ZM41.4814 49.3314L39.9841 49.4222L40.067 50.7897L41.5643 50.699L43.0615 50.6082L42.9786 49.2407L41.4814 49.3314Z" fill="#E4E5E7" mask="url(#path-2-inside-1_2051_1763)"/>
<mask id="path-4-inside-2_2051_1763" fill="white">
<path d="M63.0206 35.1419C61.6938 38.4969 59.6475 41.5202 57.026 43.9989C54.4044 46.4775 51.2713 48.3513 47.8473 49.4882L47.4476 48.2847C50.6957 47.2062 53.6679 45.4287 56.1547 43.0774C58.6416 40.7261 60.5827 37.8581 61.8414 34.6755L63.0206 35.1419Z"/>
</mask>
<path d="M63.0206 35.1419L64.4155 35.6935L64.9672 34.2986L63.5723 33.747L63.0206 35.1419ZM47.8473 49.4882L46.4237 49.9609L46.8964 51.3845L48.3199 50.9118L47.8473 49.4882ZM47.4476 48.2847L46.975 46.8611L45.5514 47.3338L46.0241 48.7574L47.4476 48.2847ZM61.8414 34.6755L62.393 33.2806L60.9981 32.729L60.4465 34.1239L61.8414 34.6755ZM63.0206 35.1419L61.6258 34.5902C60.3796 37.7413 58.4577 40.5809 55.9954 42.9089L57.026 43.9989L58.0565 45.0888C60.8374 42.4595 63.008 39.2524 64.4155 35.6935L63.0206 35.1419ZM57.026 43.9989L55.9954 42.9089C53.5332 45.2369 50.5905 46.9968 47.3746 48.0646L47.8473 49.4882L48.3199 50.9118C51.9521 49.7058 55.2756 47.7181 58.0565 45.0888L57.026 43.9989ZM47.8473 49.4882L49.2708 49.0155L48.8712 47.812L47.4476 48.2847L46.0241 48.7574L46.4237 49.9609L47.8473 49.4882ZM47.4476 48.2847L47.9203 49.7083C51.3765 48.5607 54.5391 46.6693 57.1853 44.1673L56.1547 43.0774L55.1242 41.9874C52.7967 44.1881 50.015 45.8517 46.975 46.8611L47.4476 48.2847ZM56.1547 43.0774L57.1853 44.1673C59.8315 41.6654 61.897 38.6137 63.2363 35.2271L61.8414 34.6755L60.4465 34.1239C59.2685 37.1026 57.4517 39.7868 55.1242 41.9874L56.1547 43.0774ZM61.8414 34.6755L61.2897 36.0704L62.469 36.5368L63.0206 35.1419L63.5723 33.747L62.393 33.2806L61.8414 34.6755Z" fill="#FF003C" mask="url(#path-4-inside-2_2051_1763)"/>
<g clip-path="url(#clip1_2051_1763)">
<path d="M30.9047 26.9623V28.8139C30.9047 33.3973 32.738 35.2306 37.3213 35.2306H42.8213C47.4047 35.2306 49.238 33.3973 49.238 28.8139V23.3139C49.238 18.7306 47.4047 16.8973 42.8213 16.8973H37.3213C32.738 16.8973 30.9047 18.7306 30.9047 23.3139" stroke="#626262" stroke-width="1.4" stroke-linecap="round" stroke-linejoin="round"/>
<path d="M43.5092 23.314H36.6342" stroke="#FF003C" stroke-width="1.4" stroke-linecap="round" stroke-linejoin="round"/>
<path d="M43.5092 28.814H36.6342" stroke="#FF003C" stroke-width="1.4" stroke-linecap="round" stroke-linejoin="round"/>
</g>
</g>
<defs>
<filter id="filter0_dd_2051_1763" x="11.5861" y="0.235577" width="56.9703" height="58.2987" filterUnits="userSpaceOnUse" color-interpolation-filters="sRGB">
<feFlood flood-opacity="0" result="BackgroundImageFix"/>
<feColorMatrix in="SourceAlpha" type="matrix" values="0 0 0 0 0 0 0 0 0 0 0 0 0 0 0 0 0 0 127 0" result="hardAlpha"/>
<feOffset dy="1.32839"/>
<feGaussianBlur stdDeviation="1.32839"/>
<feColorMatrix type="matrix" values="0 0 0 0 0.824475 0 0 0 0 0.852415 0 0 0 0 0.908297 0 0 0 0.6 0"/>
<feBlend mode="normal" in2="BackgroundImageFix" result="effect1_dropShadow_2051_1763"/>
<feColorMatrix in="SourceAlpha" type="matrix" values="0 0 0 0 0 0 0 0 0 0 0 0 0 0 0 0 0 0 127 0" result="hardAlpha"/>
<feOffset dy="3.98516"/>
<feGaussianBlur stdDeviation="1.99258"/>
<feColorMatrix type="matrix" values="0 0 0 0 0.539148 0 0 0 0 0.578009 0 0 0 0 0.675161 0 0 0 0.22 0"/>
<feBlend mode="normal" in2="effect1_dropShadow_2051_1763" result="effect2_dropShadow_2051_1763"/>
<feBlend mode="normal" in="SourceGraphic" in2="effect2_dropShadow_2051_1763" result="shape"/>
</filter>
<clipPath id="clip0_2051_1763">
<rect width="50" height="50" fill="white" transform="translate(15.0713 1.06396)"/>
</clipPath>
<clipPath id="clip1_2051_1763">
<rect width="20" height="20" fill="white" transform="translate(30.0713 16.064)"/>
</clipPath>
</defs>
</svg>
