<svg width="17" height="17" viewBox="0 0 17 17" fill="none" xmlns="http://www.w3.org/2000/svg">
<path d="M11.7725 4.21802C13.2633 5.25418 14.292 6.9016 14.5008 8.80247" stroke="#626262" stroke-width="1.2" stroke-linecap="round" stroke-linejoin="round"/>
<path d="M1.73193 8.83971C1.92575 6.94629 2.93955 5.29887 4.41552 4.25525" stroke="#626262" stroke-width="1.2" stroke-linecap="round" stroke-linejoin="round"/>
<path d="M5.23486 15.2281C6.09957 15.668 7.08356 15.914 8.11972 15.914C9.11861 15.914 10.0579 15.6903 10.9002 15.2803" stroke="#626262" stroke-width="1.2" stroke-linecap="round" stroke-linejoin="round"/>
<path d="M6.04736 3.28631C6.04736 4.42684 6.97171 5.35864 8.11969 5.35864C9.26766 5.35864 10.192 4.43429 10.192 3.28631C10.192 2.13833 9.26766 1.21399 8.11969 1.21399" stroke="#FF003C" stroke-width="1.2" stroke-linecap="round" stroke-linejoin="round"/>
<path d="M2.73004 14.4679C3.87455 14.4679 4.80236 13.5401 4.80236 12.3956C4.80236 11.2511 3.87455 10.3232 2.73004 10.3232C1.58553 10.3232 0.657715 11.2511 0.657715 12.3956C0.657715 13.5401 1.58553 14.4679 2.73004 14.4679Z" stroke="#626262" stroke-width="1.2" stroke-linecap="round" stroke-linejoin="round"/>
<path d="M15.485 12.3956C15.485 11.255 14.5606 10.3232 13.4127 10.3232C12.2647 10.3232 11.3403 11.2476 11.3403 12.3956C11.3403 13.5435 12.2647 14.4679 13.4127 14.4679" stroke="#626262" stroke-width="1.2" stroke-linecap="round" stroke-linejoin="round"/>
</svg>
