<svg width="21" height="21" viewBox="0 0 21 21" fill="none" xmlns="http://www.w3.org/2000/svg">
<g clip-path="url(#clip0_2042_3179)">
<path d="M2.87207 14.3569C2.4785 14.7221 2.23155 15.2426 2.23145 15.8218C2.23145 16.9263 3.12688 17.8218 4.23145 17.8218C4.85389 17.8216 5.40966 17.5373 5.77637 17.0913C5.77735 17.122 5.78125 17.1531 5.78125 17.1841C5.78102 18.747 4.51414 20.0142 2.95117 20.0142C1.38829 20.0141 0.121327 18.7469 0.121094 17.1841C0.121094 15.6475 1.34565 14.399 2.87207 14.3569Z" fill="#FF003C"/>
<path d="M8.23942 6.55437L5.68639 9.1074C5.62159 9.1722 5.57741 9.25474 5.55944 9.3446L4.97958 12.2439C4.94328 12.4254 4.85404 12.5922 4.72313 12.7231L2.93459 14.5116C2.20214 15.2441 2.20214 16.4316 2.93459 17.164C3.66703 17.8965 4.85456 17.8965 5.58701 17.164L7.37555 15.3755C7.50646 15.2446 7.6732 15.1554 7.85474 15.119L10.754 14.5392C10.8439 14.5212 10.9264 14.477 10.9912 14.4122L18.186 7.21747C19.6509 5.75258 19.6509 3.37752 18.186 1.91263C16.7211 0.447742 14.346 0.447742 12.8812 1.91263L10.8918 3.90195M8.23942 6.55437L10.8918 3.90195M8.23942 6.55437L10.8918 9.20679M10.8918 3.90195L13.5443 6.55437" stroke="#626262" stroke-width="1.4" stroke-linecap="round" stroke-linejoin="round"/>
</g>
<defs>
<clipPath id="clip0_2042_3179">
<rect width="20" height="20" fill="white" transform="translate(0.0712891 0.0639648)"/>
</clipPath>
</defs>
</svg>
