<svg width="21" height="21" viewBox="0 0 21 21" fill="none" xmlns="http://www.w3.org/2000/svg">
<g clip-path="url(#clip0_2042_3188)">
<line x1="6.93262" y1="10.5521" x2="13.21" y2="10.5521" stroke="#FF003C" stroke-width="1.5" stroke-linecap="round"/>
<line x1="6.93262" y1="13.5521" x2="13.21" y2="13.5521" stroke="#FF003C" stroke-width="1.5" stroke-linecap="round"/>
<path d="M9.14669 0.813965H8.25869C7.33369 0.813965 6.40869 0.813965 6.40869 2.66396C6.40869 4.51396 7.33369 4.51396 8.25869 4.51396H11.9587C13.8087 4.51396 13.8087 3.58896 13.8087 2.66396C13.8087 0.813965 12.8837 0.813965 11.9587 0.813965" stroke="#626262" stroke-width="1.4" stroke-miterlimit="10" stroke-linecap="round" stroke-linejoin="round"/>
<path d="M1.74658 6.84036C1.74658 4.34564 3.13407 2.6825 6.37155 2.6825M1.74658 10.1833V15.1561C1.74658 17.6508 3.13407 19.314 6.37155 19.314H13.7715C17.009 19.314 18.3965 17.6508 18.3965 15.1561V6.84036C18.3965 4.40681 17.0762 2.76455 14.0063 2.68548" stroke="#626262" stroke-width="1.4" stroke-miterlimit="10" stroke-linecap="round" stroke-linejoin="round"/>
</g>
<defs>
<clipPath id="clip0_2042_3188">
<rect width="20" height="20" fill="white" transform="translate(0.0712891 0.0639648)"/>
</clipPath>
</defs>
</svg>
