<svg width="70" height="70" viewBox="0 0 70 70" fill="none" xmlns="http://www.w3.org/2000/svg">
<g clip-path="url(#clip0_2107_2332)">
<mask id="path-1-inside-1_2107_2332" fill="white">
<path d="M49.7326 3.47253C54.3414 5.62619 58.422 8.76411 61.687 12.6653C64.952 16.5665 67.3219 21.1361 68.63 26.0522L66.902 26.512C65.6611 21.8484 63.4129 17.5137 60.3157 13.8129C57.2185 10.1122 53.3476 7.13549 48.9756 5.0925L49.7326 3.47253Z"/>
</mask>
<path d="M49.7326 3.47253L50.5793 1.6606L48.7673 0.813901L47.9206 2.62584L49.7326 3.47253ZM68.63 26.0522L69.1442 27.985L71.077 27.4707L70.5627 25.538L68.63 26.0522ZM66.902 26.512L64.9692 27.0262L65.4835 28.959L67.4162 28.4447L66.902 26.512ZM48.9756 5.0925L47.1637 4.2458L46.317 6.05773L48.1289 6.90443L48.9756 5.0925ZM49.7326 3.47253L48.8859 5.28447C53.2298 7.31435 57.0759 10.2719 60.1532 13.9489L61.687 12.6653L63.2207 11.3817C59.7681 7.25629 55.453 3.93803 50.5793 1.6606L49.7326 3.47253ZM61.687 12.6653L60.1532 13.9489C63.2306 17.6259 65.4643 21.9328 66.6972 26.5665L68.63 26.0522L70.5627 25.538C69.1795 20.3393 66.6733 15.5071 63.2207 11.3817L61.687 12.6653ZM68.63 26.0522L68.1157 24.1194L66.3877 24.5792L66.902 26.512L67.4162 28.4447L69.1442 27.985L68.63 26.0522ZM66.902 26.512L68.8347 25.9977C67.5187 21.0516 65.1343 16.4542 61.8495 12.5293L60.3157 13.8129L58.782 15.0965C61.6916 18.5731 63.8036 22.6452 64.9692 27.0262L66.902 26.512ZM60.3157 13.8129L61.8495 12.5293C58.5646 8.60436 54.4592 5.44733 49.8223 3.28056L48.9756 5.0925L48.1289 6.90443C52.236 8.82365 55.8724 11.62 58.782 15.0965L60.3157 13.8129ZM48.9756 5.0925L50.7875 5.9392L51.5445 4.31923L49.7326 3.47253L47.9206 2.62584L47.1637 4.2458L48.9756 5.0925Z" fill="#FF003C" mask="url(#path-1-inside-1_2107_2332)"/>
<mask id="path-3-inside-2_2107_2332" fill="white">
<path d="M69.8 35C69.8 42.1389 67.6044 49.1051 63.511 54.954C59.4176 60.8028 53.6245 65.2511 46.9172 67.6959C40.2099 70.1406 32.913 70.4633 26.016 68.6203C19.1191 66.7774 12.9558 62.8578 8.362 57.3932C3.7682 51.9287 0.966165 45.1835 0.335876 38.0724C-0.294414 30.9614 1.27754 23.8285 4.83857 17.6411C8.3996 11.4538 13.7774 6.51128 20.2427 3.48393C26.7079 0.456583 33.9478 -0.509139 40.9805 0.717727L40.6486 2.62081C34.0062 1.46205 27.1682 2.37417 21.0619 5.23346C14.9555 8.09275 9.87625 12.7609 6.5129 18.6048C3.14955 24.4487 1.66486 31.1856 2.26016 37.9019C2.85546 44.6182 5.50195 50.9889 9.84073 56.1501C14.1795 61.3114 20.0007 65.0133 26.5147 66.754C33.0288 68.4947 39.9206 68.1898 46.2556 65.8808C52.5906 63.5718 58.0621 59.3704 61.9283 53.8463C65.7945 48.3221 67.8681 41.7426 67.8681 35H69.8Z"/>
</mask>
<path d="M69.8 35H71.8V33H69.8V35ZM40.9805 0.717727L42.9508 1.06144L43.2945 -0.908807L41.3243 -1.25252L40.9805 0.717727ZM40.6486 2.62081L40.3048 4.59106L42.2751 4.93477L42.6188 2.96452L40.6486 2.62081ZM67.8681 35V33H65.8681V35H67.8681ZM69.8 35H67.8C67.8 41.7286 65.7306 48.2945 61.8724 53.8072L63.511 54.954L65.1496 56.1007C69.4782 49.9158 71.8 42.5492 71.8 35H69.8ZM63.511 54.954L61.8724 53.8072C58.0143 59.3198 52.5541 63.5126 46.2323 65.8168L46.9172 67.6959L47.6021 69.5749C54.6948 66.9897 60.8209 62.2857 65.1496 56.1007L63.511 54.954ZM46.9172 67.6959L46.2323 65.8168C39.9104 68.121 33.0329 68.4252 26.5323 66.6881L26.016 68.6203L25.4997 70.5525C32.793 72.5014 40.5093 72.1601 47.6021 69.5749L46.9172 67.6959ZM26.016 68.6203L26.5323 66.6881C20.0318 64.9511 14.2227 61.2568 9.89292 56.1063L8.362 57.3932L6.83108 58.6802C11.6889 64.4588 18.2064 68.6036 25.4997 70.5525L26.016 68.6203ZM8.362 57.3932L9.89292 56.1063C5.56313 50.9558 2.92213 44.5982 2.32807 37.8959L0.335876 38.0724L-1.65631 38.249C-0.989801 45.7688 1.97327 52.9016 6.83108 58.6802L8.362 57.3932ZM0.335876 38.0724L2.32807 37.8959C1.734 31.1935 3.21561 24.4705 6.57198 18.6388L4.83857 17.6411L3.10516 16.6435C-0.660529 23.1865 -2.32283 30.7293 -1.65631 38.249L0.335876 38.0724ZM4.83857 17.6411L6.57198 18.6388C9.92836 12.807 14.9971 8.14856 21.0908 5.2952L20.2427 3.48393L19.3945 1.67266C12.5577 4.874 6.87084 10.1005 3.10516 16.6435L4.83857 17.6411ZM20.2427 3.48393L21.0908 5.2952C27.1845 2.44184 34.0083 1.53161 40.6368 2.68797L40.9805 0.717727L41.3243 -1.25252C33.8873 -2.54989 26.2314 -1.52867 19.3945 1.67266L20.2427 3.48393ZM40.9805 0.717727L39.0103 0.374018L38.6783 2.2771L40.6486 2.62081L42.6188 2.96452L42.9508 1.06144L40.9805 0.717727ZM40.6486 2.62081L40.9923 0.650569C33.9458 -0.578701 26.6917 0.388913 20.2137 3.42219L21.0619 5.23346L21.91 7.04473C27.6448 4.35942 34.0667 3.50281 40.3048 4.59106L40.6486 2.62081ZM21.0619 5.23346L20.2137 3.42219C13.7358 6.45547 8.34749 11.4076 4.77948 17.6071L6.5129 18.6048L8.24631 19.6024C11.405 14.1141 16.1752 9.73003 21.91 7.04473L21.0619 5.23346ZM6.5129 18.6048L4.77948 17.6071C1.21148 23.8066 -0.363555 30.9535 0.267969 38.0785L2.26016 37.9019L4.25235 37.7253C3.69327 31.4177 5.08762 25.0907 8.24631 19.6024L6.5129 18.6048ZM2.26016 37.9019L0.267969 38.0785C0.899493 45.2034 3.70702 51.9618 8.30982 57.4371L9.84073 56.1501L11.3717 54.8632C7.29688 50.016 4.81143 44.0329 4.25235 37.7253L2.26016 37.9019ZM9.84073 56.1501L8.30982 57.4371C12.9126 62.9124 19.088 66.8396 25.9984 68.6862L26.5147 66.754L27.0311 64.8218C20.9134 63.187 15.4464 59.7103 11.3717 54.8632L9.84073 56.1501ZM26.5147 66.754L25.9984 68.6862C32.9089 70.5328 40.2201 70.2094 46.9405 67.7599L46.2556 65.8808L45.5707 64.0018C39.6212 66.1703 33.1488 66.4565 27.0311 64.8218L26.5147 66.754ZM46.2556 65.8808L46.9405 67.7599C53.6609 65.3104 59.4654 60.8533 63.5669 54.993L61.9283 53.8463L60.2897 52.6995C56.6588 57.8875 51.5202 61.8333 45.5707 64.0018L46.2556 65.8808ZM61.9283 53.8463L63.5669 54.993C67.6683 49.1328 69.8681 42.1529 69.8681 35H67.8681H65.8681C65.8681 41.3323 63.9206 47.5115 60.2897 52.6995L61.9283 53.8463ZM67.8681 35V37H69.8V35V33H67.8681V35Z" fill="#E4E5E7" mask="url(#path-3-inside-2_2107_2332)"/>
</g>
<defs>
<clipPath id="clip0_2107_2332">
<rect width="70" height="70" fill="white"/>
</clipPath>
</defs>
</svg>
