<svg width="70" height="70" viewBox="0 0 70 70" fill="none" xmlns="http://www.w3.org/2000/svg">
<mask id="path-1-inside-1_2107_2342" fill="white">
<path d="M0.733702 28.9292C1.62113 23.92 3.59599 19.1663 6.51921 15.0029C9.44243 10.8395 13.2429 7.36755 17.653 4.83168L18.5443 6.3818C14.3608 8.78736 10.7556 12.0809 7.98262 16.0304C5.20961 19.9799 3.33622 24.4893 2.49439 29.2411L0.733702 28.9292Z"/>
</mask>
<path d="M0.733702 28.9292L-1.23563 28.5803L-1.58452 30.5497L0.384818 30.8985L0.733702 28.9292ZM17.653 4.83168L19.3868 3.83472L18.3898 2.10092L16.656 3.09788L17.653 4.83168ZM18.5443 6.3818L19.5413 8.1156L21.2751 7.11864L20.2781 5.38484L18.5443 6.3818ZM2.49439 29.2411L2.14551 31.2105L4.11484 31.5593L4.46373 29.59L2.49439 29.2411ZM0.733702 28.9292L2.70304 29.2781C3.53946 24.5568 5.40083 20.0763 8.15604 16.1521L6.51921 15.0029L4.88237 13.8536C1.79116 18.2563 -0.297207 23.2833 -1.23563 28.5803L0.733702 28.9292ZM6.51921 15.0029L8.15604 16.1521C10.9113 12.228 14.4933 8.95561 18.6499 6.56549L17.653 4.83168L16.656 3.09788C11.9925 5.77948 7.97359 9.45093 4.88237 13.8536L6.51921 15.0029ZM17.653 4.83168L15.9192 5.82865L16.8105 7.37876L18.5443 6.3818L20.2781 5.38484L19.3868 3.83472L17.653 4.83168ZM18.5443 6.3818L17.5474 4.648C13.1104 7.1993 9.28681 10.6923 6.34579 14.8811L7.98262 16.0304L9.61946 17.1796C12.2245 13.4694 15.6113 10.3754 19.5413 8.1156L18.5443 6.3818ZM7.98262 16.0304L6.34579 14.8811C3.40477 19.0699 1.41788 23.8526 0.525056 28.8922L2.49439 29.2411L4.46373 29.59C5.25455 25.1261 7.01444 20.8899 9.61946 17.1796L7.98262 16.0304ZM2.49439 29.2411L2.84328 27.2718L1.08259 26.9599L0.733702 28.9292L0.384818 30.8985L2.14551 31.2105L2.49439 29.2411Z" fill="#FF003C" mask="url(#path-1-inside-1_2107_2342)"/>
<mask id="path-3-inside-2_2107_2342" fill="white">
<path d="M25.9931 1.38572C32.8888 -0.461975 40.1859 -0.144207 46.8948 2.29593C53.6038 4.73607 59.4 9.1805 63.4974 15.0265C67.5948 20.8725 69.7951 27.8372 69.8 34.9762C69.8048 42.1151 67.614 49.0828 63.5246 54.9344C59.4352 60.7861 53.6451 65.2384 46.9395 67.6877C40.2338 70.137 32.9372 70.4647 26.039 68.6264C19.1408 66.7881 12.9748 62.8728 8.37729 57.4114C3.77976 51.9499 0.973121 45.2067 0.337978 38.0961L2.26214 37.9242C2.86203 44.6401 5.51287 51.009 9.85517 56.1673C14.1975 61.3255 20.0211 65.0235 26.5364 66.7597C33.0517 68.496 39.9433 68.1864 46.2767 65.8731C52.6101 63.5598 58.0788 59.3546 61.9411 53.8278C65.8035 48.3011 67.8727 41.7201 67.8681 34.9775C67.8635 28.2349 65.7854 21.6568 61.9154 16.1353C58.0455 10.6138 52.5711 6.41609 46.2345 4.11141C39.898 1.80673 33.006 1.5066 26.4931 3.25173L25.9931 1.38572Z"/>
</mask>
<path d="M25.9931 1.38572L25.4754 -0.546132L23.5436 -0.0284938L24.0612 1.90336L25.9931 1.38572ZM0.337978 38.0961L0.160038 36.104L-1.83203 36.2819L-1.65409 38.274L0.337978 38.0961ZM2.26214 37.9242L4.25421 37.7462L4.07627 35.7542L2.0842 35.9321L2.26214 37.9242ZM26.4931 3.25173L24.5612 3.76936L25.0789 5.70122L27.0107 5.18358L26.4931 3.25173ZM25.9931 1.38572L26.5107 3.31757C33.0101 1.57607 39.8878 1.87557 46.2112 4.17547L46.8948 2.29593L47.5784 0.416389C40.4839 -2.16398 32.7674 -2.50002 25.4754 -0.546132L25.9931 1.38572ZM46.8948 2.29593L46.2112 4.17547C52.5346 6.47537 57.9977 10.6644 61.8596 16.1744L63.4974 15.0265L65.1352 13.8786C60.8023 7.69662 54.673 2.99676 47.5784 0.416389L46.8948 2.29593ZM63.4974 15.0265L61.8596 16.1744C65.7215 21.6844 67.7954 28.2489 67.8 34.9776L69.8 34.9762L71.8 34.9748C71.7948 27.4256 69.468 20.0606 65.1352 13.8786L63.4974 15.0265ZM69.8 34.9762L67.8 34.9776C67.8046 41.7062 65.7397 48.2735 61.8853 53.7888L63.5246 54.9344L65.164 56.0801C69.4884 49.8922 71.8051 42.524 71.8 34.9748L69.8 34.9762ZM63.5246 54.9344L61.8853 53.7888C58.0309 59.3041 52.5735 63.5005 46.2533 65.8091L46.9395 67.6877L47.6256 69.5663C54.7167 66.9762 60.8395 62.268 65.164 56.0801L63.5246 54.9344ZM46.9395 67.6877L46.2533 65.8091C39.933 68.1176 33.0557 68.4265 26.554 66.6939L26.039 68.6264L25.524 70.559C32.8186 72.5029 40.5346 72.1563 47.6256 69.5663L46.9395 67.6877ZM26.039 68.6264L26.554 66.6939C20.0522 64.9612 14.2406 61.2709 9.90733 56.1234L8.37729 57.4114L6.84725 58.6994C11.709 64.4747 18.2293 68.6151 25.524 70.559L26.039 68.6264ZM8.37729 57.4114L9.90733 56.1234C5.57403 50.9758 2.92869 44.6201 2.33005 37.9181L0.337978 38.0961L-1.65409 38.274C-0.982446 45.7933 1.98549 52.9241 6.84725 58.6994L8.37729 57.4114ZM0.337978 38.0961L0.515917 40.0881L2.44008 39.9163L2.26214 37.9242L2.0842 35.9321L0.160038 36.104L0.337978 38.0961ZM2.26214 37.9242L0.270075 38.1021C0.906463 45.2267 3.7186 51.9831 8.32513 57.4553L9.85517 56.1673L11.3852 54.8793C7.30713 50.0349 4.81759 44.0535 4.25421 37.7462L2.26214 37.9242ZM9.85517 56.1673L8.32513 57.4553C12.9317 62.9274 19.1097 66.8504 26.0214 68.6923L26.5364 66.7597L27.0514 64.8272C20.9326 63.1966 15.4633 59.7236 11.3852 54.8793L9.85517 56.1673ZM26.5364 66.7597L26.0214 68.6923C32.9331 70.5342 40.2441 70.2058 46.9629 67.7517L46.2767 65.8731L45.5905 63.9945C39.6425 66.1671 33.1702 66.4578 27.0514 64.8272L26.5364 66.7597ZM46.2767 65.8731L46.9629 67.7517C53.6816 65.2976 59.4831 60.8366 63.5805 54.9735L61.9411 53.8278L60.3018 52.6822C56.6744 57.8726 51.5385 61.8219 45.5905 63.9945L46.2767 65.8731ZM61.9411 53.8278L63.5805 54.9735C67.6779 49.1104 69.873 42.1291 69.8681 34.9761L67.8681 34.9775L65.8681 34.9789C65.8725 41.3112 63.9292 47.4917 60.3018 52.6822L61.9411 53.8278ZM67.8681 34.9775L69.8681 34.9761C69.8633 27.8232 67.6586 20.8449 63.5532 14.9874L61.9154 16.1353L60.2776 17.2832C63.9121 22.4687 65.8638 28.6465 65.8681 34.9789L67.8681 34.9775ZM61.9154 16.1353L63.5532 14.9874C59.4478 9.12992 53.6402 4.67678 46.9181 2.23187L46.2345 4.11141L45.5509 5.99095C51.5019 8.15539 56.6432 12.0977 60.2776 17.2832L61.9154 16.1353ZM46.2345 4.11141L46.9181 2.23187C40.196 -0.213047 32.8846 -0.53144 25.9754 1.31987L26.4931 3.25173L27.0107 5.18358C33.1273 3.54464 39.5999 3.82651 45.5509 5.99095L46.2345 4.11141ZM26.4931 3.25173L28.4249 2.73409L27.9249 0.868082L25.9931 1.38572L24.0612 1.90336L24.5612 3.76936L26.4931 3.25173Z" fill="#E4E5E7" mask="url(#path-3-inside-2_2107_2342)"/>
</svg>
