<svg width="50" height="50" viewBox="0 0 50 50" fill="none" xmlns="http://www.w3.org/2000/svg">
<g clip-path="url(#clip0_3143_35887)">
<mask id="path-1-inside-1_3143_35887" fill="white">
<path d="M48.409 17.1816C50.0129 21.9838 50.1011 27.1631 48.6616 32.0171C47.222 36.8711 44.3245 41.1649 40.3619 44.3163C36.3993 47.4677 31.5634 49.3242 26.5099 49.6339C21.4565 49.9437 16.43 48.6918 12.1121 46.048C7.79432 43.4041 4.39405 39.4963 2.37247 34.8545C0.35089 30.2127 -0.194198 25.0614 0.811141 20.0993C1.81648 15.1371 4.32359 10.6042 7.99248 7.1153C11.6614 3.62636 16.3145 1.3502 21.3209 0.595479L21.5251 1.95023C16.7967 2.66305 12.4018 4.81286 8.9366 8.10812C5.47138 11.4034 3.10345 15.6846 2.15392 20.3713C1.20439 25.058 1.71921 29.9233 3.62857 34.3075C5.53793 38.6916 8.74944 42.3825 12.8276 44.8795C16.9057 47.3766 21.6532 48.559 26.4261 48.2665C31.199 47.9739 35.7665 46.2205 39.5091 43.244C43.2518 40.2676 45.9884 36.2121 47.348 31.6276C48.7076 27.043 48.6244 22.1513 47.1096 17.6157L48.409 17.1816Z"/>
</mask>
<path d="M48.409 17.1816L49.8318 16.7065L49.3566 15.2837L47.9339 15.7589L48.409 17.1816ZM21.3209 0.595479L22.8041 0.371879L22.5805 -1.11136L21.0973 -0.887761L21.3209 0.595479ZM21.5251 1.95023L21.7487 3.43347L23.232 3.20987L23.0084 1.72663L21.5251 1.95023ZM47.1096 17.6157L46.6344 16.1929L45.2116 16.6681L45.6868 18.0908L47.1096 17.6157ZM48.409 17.1816L46.9863 17.6568C48.4927 22.1671 48.5755 27.0316 47.2235 31.5906L48.6616 32.0171L50.0996 32.4436C51.6267 27.2946 51.5331 21.8005 49.8318 16.7065L48.409 17.1816ZM48.6616 32.0171L47.2235 31.5906C45.8714 36.1496 43.15 40.1825 39.4283 43.1423L40.3619 44.3163L41.2956 45.4903C45.499 42.1474 48.5726 37.5926 50.0996 32.4436L48.6616 32.0171ZM40.3619 44.3163L39.4283 43.1423C35.7065 46.1022 31.1645 47.8458 26.4181 48.1368L26.5099 49.6339L26.6017 51.1311C31.9623 50.8025 37.0921 48.8333 41.2956 45.4903L40.3619 44.3163ZM26.5099 49.6339L26.4181 48.1368C21.6718 48.4277 16.9508 47.2519 12.8954 44.7687L12.1121 46.048L11.3289 47.3272C15.9091 50.1317 21.2411 51.4597 26.6017 51.1311L26.5099 49.6339ZM12.1121 46.048L12.8954 44.7687C8.84003 42.2856 5.64643 38.6153 3.74771 34.2556L2.37247 34.8545L0.997232 35.4534C3.14168 40.3774 6.7486 44.5227 11.3289 47.3272L12.1121 46.048ZM2.37247 34.8545L3.74771 34.2556C1.84899 29.8959 1.33704 25.0577 2.28127 20.3971L0.811141 20.0993L-0.65899 19.8014C-1.72543 25.0651 -1.14722 30.5295 0.997232 35.4534L2.37247 34.8545ZM0.811141 20.0993L2.28127 20.3971C3.22551 15.7366 5.58024 11.4792 9.02615 8.20229L7.99248 7.1153L6.95881 6.02832C3.06694 9.72931 0.407449 14.5377 -0.65899 19.8014L0.811141 20.0993ZM7.99248 7.1153L9.02615 8.20229C12.4721 4.9254 16.8424 2.78757 21.5445 2.07872L21.3209 0.595479L21.0973 -0.887761C15.7866 -0.0871715 10.8507 2.32733 6.95881 6.02832L7.99248 7.1153ZM21.3209 0.595479L19.8377 0.81908L20.0419 2.17383L21.5251 1.95023L23.0084 1.72663L22.8041 0.371879L21.3209 0.595479ZM21.5251 1.95023L21.3015 0.466987C16.2688 1.22568 11.5911 3.51383 7.90294 7.02114L8.9366 8.10812L9.97027 9.1951C13.2125 6.11189 17.3245 4.10042 21.7487 3.43347L21.5251 1.95023ZM8.9366 8.10812L7.90294 7.02114C4.21473 10.5284 1.69441 15.0852 0.683783 20.0735L2.15392 20.3713L3.62405 20.6692C4.51247 16.2841 6.72803 12.2783 9.97027 9.1951L8.9366 8.10812ZM2.15392 20.3713L0.683783 20.0735C-0.326847 25.0617 0.221105 30.2401 2.25333 34.9064L3.62857 34.3075L5.00381 33.7085C3.21731 29.6065 2.73562 25.0543 3.62405 20.6692L2.15392 20.3713ZM3.62857 34.3075L2.25333 34.9064C4.28556 39.5727 7.70372 43.5011 12.0443 46.1588L12.8276 44.8795L13.6109 43.6003C9.79515 41.2639 6.7903 37.8106 5.00381 33.7085L3.62857 34.3075ZM12.8276 44.8795L12.0443 46.1588C16.3849 48.8165 21.4378 50.075 26.5179 49.7636L26.4261 48.2665L26.3343 46.7693C21.8685 47.043 17.4266 45.9367 13.6109 43.6003L12.8276 44.8795ZM26.4261 48.2665L26.5179 49.7636C31.5979 49.4522 36.4593 47.586 40.4428 44.418L39.5091 43.244L38.5755 42.07C35.0737 44.855 30.8001 46.4955 26.3343 46.7693L26.4261 48.2665ZM39.5091 43.244L40.4428 44.418C44.4263 41.2501 47.339 36.9336 48.7861 32.0541L47.348 31.6276L45.9099 31.2011C44.6378 35.4906 42.0773 39.2851 38.5755 42.07L39.5091 43.244ZM47.348 31.6276L48.7861 32.0541C50.2332 27.1745 50.1446 21.968 48.5323 17.1405L47.1096 17.6157L45.6868 18.0908C47.1042 22.3346 47.1821 26.9116 45.9099 31.2011L47.348 31.6276ZM47.1096 17.6157L47.5847 19.0384L48.8842 18.6044L48.409 17.1816L47.9339 15.7589L46.6344 16.1929L47.1096 17.6157Z" fill="#E4E5E7" mask="url(#path-1-inside-1_3143_35887)"/>
<mask id="path-3-inside-2_3143_35887" fill="white">
<path d="M27.8288 0.482884C31.4129 0.896161 34.8628 2.0902 37.9355 3.98091C41.0082 5.87162 43.6291 8.41302 45.6134 11.4261L44.5544 12.1236C42.6719 9.26534 40.1858 6.85452 37.2709 5.06096C34.3561 3.2674 31.0834 2.13471 27.6835 1.74266L27.8288 0.482884Z"/>
</mask>
<path d="M27.8288 0.482884L28.0006 -1.00724L26.5105 -1.17907L26.3386 0.311058L27.8288 0.482884ZM45.6134 11.4261L46.4385 12.6789L47.6912 11.8538L46.8662 10.6011L45.6134 11.4261ZM44.5544 12.1236L43.3016 12.9486L44.1266 14.2014L45.3794 13.3763L44.5544 12.1236ZM27.6835 1.74266L26.1934 1.57084L26.0216 3.06096L27.5117 3.23279L27.6835 1.74266ZM27.8288 0.482884L27.6569 1.97301C31.0232 2.36117 34.2634 3.48264 37.1494 5.25844L37.9355 3.98091L38.7216 2.70339C35.4621 0.697766 31.8025 -0.568847 28.0006 -1.00724L27.8288 0.482884ZM37.9355 3.98091L37.1494 5.25844C40.0354 7.03424 42.4969 9.42118 44.3607 12.2511L45.6134 11.4261L46.8662 10.6011C44.7612 7.40487 41.9811 4.70901 38.7216 2.70339L37.9355 3.98091ZM45.6134 11.4261L44.7884 10.1734L43.7293 10.8709L44.5544 12.1236L45.3794 13.3763L46.4385 12.6789L45.6134 11.4261ZM44.5544 12.1236L45.8071 11.2986C43.8041 8.25718 41.1586 5.69191 38.057 3.78343L37.2709 5.06096L36.4848 6.33848C39.2129 8.01713 41.5398 10.2735 43.3016 12.9486L44.5544 12.1236ZM37.2709 5.06096L38.057 3.78343C34.9554 1.87496 31.4731 0.669698 27.8553 0.252538L27.6835 1.74266L27.5117 3.23279C30.6938 3.59971 33.7567 4.65983 36.4848 6.33848L37.2709 5.06096ZM27.6835 1.74266L29.1736 1.91449L29.3189 0.654709L27.8288 0.482884L26.3386 0.311058L26.1934 1.57084L27.6835 1.74266Z" fill="#FF003C" mask="url(#path-3-inside-2_3143_35887)"/>
<g clip-path="url(#clip1_3143_35887)">
<path d="M25.0001 15.25C19.6204 15.25 15.2501 19.6203 15.2501 25C15.2501 26.7292 15.7243 28.3429 16.5152 29.7516L15.2658 34.2118C15.2458 34.2832 15.2449 34.3586 15.2632 34.4304C15.2814 34.5022 15.3182 34.568 15.3698 34.6212C15.4214 34.6744 15.486 34.7131 15.5573 34.7336C15.6285 34.754 15.7039 34.7554 15.7758 34.7376L20.4264 33.5851C21.793 34.3146 23.3437 34.75 25.0001 34.75C30.3797 34.75 34.7501 30.3797 34.7501 25C34.7501 19.6203 30.3797 15.25 25.0001 15.25ZM25.0001 16.0978C29.9215 16.0978 33.9022 20.0786 33.9022 25C33.9022 29.9214 29.9215 33.9022 25.0001 33.9022C23.4223 33.9022 21.9445 33.4908 20.6599 32.772C20.566 32.7195 20.4556 32.7047 20.3511 32.7306L16.2784 33.7399L17.3705 29.8435C17.3861 29.7885 17.3904 29.7308 17.3831 29.674C17.3759 29.6173 17.3572 29.5625 17.3282 29.5132C16.5475 28.1893 16.0979 26.6491 16.0979 25C16.0979 20.0786 20.0786 16.0978 25.0001 16.0978Z" fill="#626262" stroke="#626262" stroke-width="0.403727"/>
<path d="M22.2427 21.6162C22.0092 21.7782 21.8102 21.9849 21.6571 22.2244C21.504 22.4638 21.3999 22.7312 21.3509 23.0111C21.2365 23.9029 21.7853 24.8176 21.7853 24.8176C22.342 25.6458 23.003 26.399 23.7519 27.0585C24.407 27.5769 25.1508 27.972 25.9471 28.2247C26.4116 28.4101 26.9197 28.4578 27.4105 28.3619C27.8456 28.2425 28.2305 27.9858 28.5081 27.6302C28.5732 27.4684 28.6192 27.2995 28.6453 27.1271C28.6715 26.9758 28.6715 26.8211 28.6453 26.6698C28.6225 26.5097 26.9761 25.7551 26.816 25.8008C26.6559 25.8466 26.5187 26.1438 26.3358 26.3954C26.1529 26.6469 26.0843 26.7612 25.9013 26.7612C25.7184 26.7612 24.9181 26.4411 24.1635 25.7551C23.7325 25.3814 23.3956 24.9113 23.1802 24.3831C23.1802 24.3831 23.3174 24.223 23.5003 23.9715C23.6427 23.8155 23.7447 23.6271 23.7976 23.4227C23.7976 23.3084 23.1573 21.6848 22.9973 21.6162C22.747 21.581 22.493 21.581 22.2427 21.6162Z" fill="#FF003C"/>
</g>
</g>
<defs>
<clipPath id="clip0_3143_35887">
<rect width="50" height="50" fill="white"/>
</clipPath>
<clipPath id="clip1_3143_35887">
<rect width="20" height="20" fill="white" transform="translate(15 15)"/>
</clipPath>
</defs>
</svg>
